<?xml version="1.0" encoding="utf-8" standalone="no"?>
<!DOCTYPE svg PUBLIC "-//W3C//DTD SVG 1.1//EN"
  "http://www.w3.org/Graphics/SVG/1.1/DTD/svg11.dtd">
<!-- Created with matplotlib (https://matplotlib.org/) -->
<svg height="288pt" version="1.1" viewBox="0 0 432 288" width="432pt" xmlns="http://www.w3.org/2000/svg" xmlns:xlink="http://www.w3.org/1999/xlink">
 <defs>
  <style type="text/css">
*{stroke-linecap:butt;stroke-linejoin:round;}
  </style>
 </defs>
 <g id="figure_1">
  <g id="patch_1">
   <path d="M 0 288 
L 432 288 
L 432 0 
L 0 0 
z
" style="fill:#ffffff;"/>
  </g>
  <g id="axes_1">
   <g id="patch_2">
    <path d="M 54 252 
L 388.8 252 
L 388.8 34.56 
L 54 34.56 
z
" style="fill:#ffffff;"/>
   </g>
   <g id="matplotlib.axis_1">
    <g id="xtick_1">
     <g id="line2d_1">
      <defs>
       <path d="M 0 0 
L 0 3.5 
" id="me550a9d04c" style="stroke:#000000;stroke-width:0.8;"/>
      </defs>
      <g>
       <use style="stroke:#000000;stroke-width:0.8;" x="69.218182" xlink:href="#me550a9d04c" y="252"/>
      </g>
     </g>
     <g id="text_1">
      <!-- 0 -->
      <defs>
       <path d="M 31.78125 66.40625 
Q 24.171875 66.40625 20.328125 58.90625 
Q 16.5 51.421875 16.5 36.375 
Q 16.5 21.390625 20.328125 13.890625 
Q 24.171875 6.390625 31.78125 6.390625 
Q 39.453125 6.390625 43.28125 13.890625 
Q 47.125 21.390625 47.125 36.375 
Q 47.125 51.421875 43.28125 58.90625 
Q 39.453125 66.40625 31.78125 66.40625 
z
M 31.78125 74.21875 
Q 44.046875 74.21875 50.515625 64.515625 
Q 56.984375 54.828125 56.984375 36.375 
Q 56.984375 17.96875 50.515625 8.265625 
Q 44.046875 -1.421875 31.78125 -1.421875 
Q 19.53125 -1.421875 13.0625 8.265625 
Q 6.59375 17.96875 6.59375 36.375 
Q 6.59375 54.828125 13.0625 64.515625 
Q 19.53125 74.21875 31.78125 74.21875 
z
" id="DejaVuSans-48"/>
      </defs>
      <g transform="translate(66.036932 266.598437)scale(0.1 -0.1)">
       <use xlink:href="#DejaVuSans-48"/>
      </g>
     </g>
    </g>
    <g id="xtick_2">
     <g id="line2d_2">
      <g>
       <use style="stroke:#000000;stroke-width:0.8;" x="130.151843" xlink:href="#me550a9d04c" y="252"/>
      </g>
     </g>
     <g id="text_2">
      <!-- 200 -->
      <defs>
       <path d="M 19.1875 8.296875 
L 53.609375 8.296875 
L 53.609375 0 
L 7.328125 0 
L 7.328125 8.296875 
Q 12.9375 14.109375 22.625 23.890625 
Q 32.328125 33.6875 34.8125 36.53125 
Q 39.546875 41.84375 41.421875 45.53125 
Q 43.3125 49.21875 43.3125 52.78125 
Q 43.3125 58.59375 39.234375 62.25 
Q 35.15625 65.921875 28.609375 65.921875 
Q 23.96875 65.921875 18.8125 64.3125 
Q 13.671875 62.703125 7.8125 59.421875 
L 7.8125 69.390625 
Q 13.765625 71.78125 18.9375 73 
Q 24.125 74.21875 28.421875 74.21875 
Q 39.75 74.21875 46.484375 68.546875 
Q 53.21875 62.890625 53.21875 53.421875 
Q 53.21875 48.921875 51.53125 44.890625 
Q 49.859375 40.875 45.40625 35.40625 
Q 44.1875 33.984375 37.640625 27.21875 
Q 31.109375 20.453125 19.1875 8.296875 
z
" id="DejaVuSans-50"/>
      </defs>
      <g transform="translate(120.608093 266.598437)scale(0.1 -0.1)">
       <use xlink:href="#DejaVuSans-50"/>
       <use x="63.623047" xlink:href="#DejaVuSans-48"/>
       <use x="127.246094" xlink:href="#DejaVuSans-48"/>
      </g>
     </g>
    </g>
    <g id="xtick_3">
     <g id="line2d_3">
      <g>
       <use style="stroke:#000000;stroke-width:0.8;" x="191.085504" xlink:href="#me550a9d04c" y="252"/>
      </g>
     </g>
     <g id="text_3">
      <!-- 400 -->
      <defs>
       <path d="M 37.796875 64.3125 
L 12.890625 25.390625 
L 37.796875 25.390625 
z
M 35.203125 72.90625 
L 47.609375 72.90625 
L 47.609375 25.390625 
L 58.015625 25.390625 
L 58.015625 17.1875 
L 47.609375 17.1875 
L 47.609375 0 
L 37.796875 0 
L 37.796875 17.1875 
L 4.890625 17.1875 
L 4.890625 26.703125 
z
" id="DejaVuSans-52"/>
      </defs>
      <g transform="translate(181.541754 266.598437)scale(0.1 -0.1)">
       <use xlink:href="#DejaVuSans-52"/>
       <use x="63.623047" xlink:href="#DejaVuSans-48"/>
       <use x="127.246094" xlink:href="#DejaVuSans-48"/>
      </g>
     </g>
    </g>
    <g id="xtick_4">
     <g id="line2d_4">
      <g>
       <use style="stroke:#000000;stroke-width:0.8;" x="252.019165" xlink:href="#me550a9d04c" y="252"/>
      </g>
     </g>
     <g id="text_4">
      <!-- 600 -->
      <defs>
       <path d="M 33.015625 40.375 
Q 26.375 40.375 22.484375 35.828125 
Q 18.609375 31.296875 18.609375 23.390625 
Q 18.609375 15.53125 22.484375 10.953125 
Q 26.375 6.390625 33.015625 6.390625 
Q 39.65625 6.390625 43.53125 10.953125 
Q 47.40625 15.53125 47.40625 23.390625 
Q 47.40625 31.296875 43.53125 35.828125 
Q 39.65625 40.375 33.015625 40.375 
z
M 52.59375 71.296875 
L 52.59375 62.3125 
Q 48.875 64.0625 45.09375 64.984375 
Q 41.3125 65.921875 37.59375 65.921875 
Q 27.828125 65.921875 22.671875 59.328125 
Q 17.53125 52.734375 16.796875 39.40625 
Q 19.671875 43.65625 24.015625 45.921875 
Q 28.375 48.1875 33.59375 48.1875 
Q 44.578125 48.1875 50.953125 41.515625 
Q 57.328125 34.859375 57.328125 23.390625 
Q 57.328125 12.15625 50.6875 5.359375 
Q 44.046875 -1.421875 33.015625 -1.421875 
Q 20.359375 -1.421875 13.671875 8.265625 
Q 6.984375 17.96875 6.984375 36.375 
Q 6.984375 53.65625 15.1875 63.9375 
Q 23.390625 74.21875 37.203125 74.21875 
Q 40.921875 74.21875 44.703125 73.484375 
Q 48.484375 72.75 52.59375 71.296875 
z
" id="DejaVuSans-54"/>
      </defs>
      <g transform="translate(242.475415 266.598437)scale(0.1 -0.1)">
       <use xlink:href="#DejaVuSans-54"/>
       <use x="63.623047" xlink:href="#DejaVuSans-48"/>
       <use x="127.246094" xlink:href="#DejaVuSans-48"/>
      </g>
     </g>
    </g>
    <g id="xtick_5">
     <g id="line2d_5">
      <g>
       <use style="stroke:#000000;stroke-width:0.8;" x="312.952826" xlink:href="#me550a9d04c" y="252"/>
      </g>
     </g>
     <g id="text_5">
      <!-- 800 -->
      <defs>
       <path d="M 31.78125 34.625 
Q 24.75 34.625 20.71875 30.859375 
Q 16.703125 27.09375 16.703125 20.515625 
Q 16.703125 13.921875 20.71875 10.15625 
Q 24.75 6.390625 31.78125 6.390625 
Q 38.8125 6.390625 42.859375 10.171875 
Q 46.921875 13.96875 46.921875 20.515625 
Q 46.921875 27.09375 42.890625 30.859375 
Q 38.875 34.625 31.78125 34.625 
z
M 21.921875 38.8125 
Q 15.578125 40.375 12.03125 44.71875 
Q 8.5 49.078125 8.5 55.328125 
Q 8.5 64.0625 14.71875 69.140625 
Q 20.953125 74.21875 31.78125 74.21875 
Q 42.671875 74.21875 48.875 69.140625 
Q 55.078125 64.0625 55.078125 55.328125 
Q 55.078125 49.078125 51.53125 44.71875 
Q 48 40.375 41.703125 38.8125 
Q 48.828125 37.15625 52.796875 32.3125 
Q 56.78125 27.484375 56.78125 20.515625 
Q 56.78125 9.90625 50.3125 4.234375 
Q 43.84375 -1.421875 31.78125 -1.421875 
Q 19.734375 -1.421875 13.25 4.234375 
Q 6.78125 9.90625 6.78125 20.515625 
Q 6.78125 27.484375 10.78125 32.3125 
Q 14.796875 37.15625 21.921875 38.8125 
z
M 18.3125 54.390625 
Q 18.3125 48.734375 21.84375 45.5625 
Q 25.390625 42.390625 31.78125 42.390625 
Q 38.140625 42.390625 41.71875 45.5625 
Q 45.3125 48.734375 45.3125 54.390625 
Q 45.3125 60.0625 41.71875 63.234375 
Q 38.140625 66.40625 31.78125 66.40625 
Q 25.390625 66.40625 21.84375 63.234375 
Q 18.3125 60.0625 18.3125 54.390625 
z
" id="DejaVuSans-56"/>
      </defs>
      <g transform="translate(303.409076 266.598437)scale(0.1 -0.1)">
       <use xlink:href="#DejaVuSans-56"/>
       <use x="63.623047" xlink:href="#DejaVuSans-48"/>
       <use x="127.246094" xlink:href="#DejaVuSans-48"/>
      </g>
     </g>
    </g>
    <g id="xtick_6">
     <g id="line2d_6">
      <g>
       <use style="stroke:#000000;stroke-width:0.8;" x="373.886486" xlink:href="#me550a9d04c" y="252"/>
      </g>
     </g>
     <g id="text_6">
      <!-- 1000 -->
      <defs>
       <path d="M 12.40625 8.296875 
L 28.515625 8.296875 
L 28.515625 63.921875 
L 10.984375 60.40625 
L 10.984375 69.390625 
L 28.421875 72.90625 
L 38.28125 72.90625 
L 38.28125 8.296875 
L 54.390625 8.296875 
L 54.390625 0 
L 12.40625 0 
z
" id="DejaVuSans-49"/>
      </defs>
      <g transform="translate(361.161486 266.598437)scale(0.1 -0.1)">
       <use xlink:href="#DejaVuSans-49"/>
       <use x="63.623047" xlink:href="#DejaVuSans-48"/>
       <use x="127.246094" xlink:href="#DejaVuSans-48"/>
       <use x="190.869141" xlink:href="#DejaVuSans-48"/>
      </g>
     </g>
    </g>
    <g id="text_7">
     <!-- Epochs -->
     <defs>
      <path d="M 9.8125 72.90625 
L 55.90625 72.90625 
L 55.90625 64.59375 
L 19.671875 64.59375 
L 19.671875 43.015625 
L 54.390625 43.015625 
L 54.390625 34.71875 
L 19.671875 34.71875 
L 19.671875 8.296875 
L 56.78125 8.296875 
L 56.78125 0 
L 9.8125 0 
z
" id="DejaVuSans-69"/>
      <path d="M 18.109375 8.203125 
L 18.109375 -20.796875 
L 9.078125 -20.796875 
L 9.078125 54.6875 
L 18.109375 54.6875 
L 18.109375 46.390625 
Q 20.953125 51.265625 25.265625 53.625 
Q 29.59375 56 35.59375 56 
Q 45.5625 56 51.78125 48.09375 
Q 58.015625 40.1875 58.015625 27.296875 
Q 58.015625 14.40625 51.78125 6.484375 
Q 45.5625 -1.421875 35.59375 -1.421875 
Q 29.59375 -1.421875 25.265625 0.953125 
Q 20.953125 3.328125 18.109375 8.203125 
z
M 48.6875 27.296875 
Q 48.6875 37.203125 44.609375 42.84375 
Q 40.53125 48.484375 33.40625 48.484375 
Q 26.265625 48.484375 22.1875 42.84375 
Q 18.109375 37.203125 18.109375 27.296875 
Q 18.109375 17.390625 22.1875 11.75 
Q 26.265625 6.109375 33.40625 6.109375 
Q 40.53125 6.109375 44.609375 11.75 
Q 48.6875 17.390625 48.6875 27.296875 
z
" id="DejaVuSans-112"/>
      <path d="M 30.609375 48.390625 
Q 23.390625 48.390625 19.1875 42.75 
Q 14.984375 37.109375 14.984375 27.296875 
Q 14.984375 17.484375 19.15625 11.84375 
Q 23.34375 6.203125 30.609375 6.203125 
Q 37.796875 6.203125 41.984375 11.859375 
Q 46.1875 17.53125 46.1875 27.296875 
Q 46.1875 37.015625 41.984375 42.703125 
Q 37.796875 48.390625 30.609375 48.390625 
z
M 30.609375 56 
Q 42.328125 56 49.015625 48.375 
Q 55.71875 40.765625 55.71875 27.296875 
Q 55.71875 13.875 49.015625 6.21875 
Q 42.328125 -1.421875 30.609375 -1.421875 
Q 18.84375 -1.421875 12.171875 6.21875 
Q 5.515625 13.875 5.515625 27.296875 
Q 5.515625 40.765625 12.171875 48.375 
Q 18.84375 56 30.609375 56 
z
" id="DejaVuSans-111"/>
      <path d="M 48.78125 52.59375 
L 48.78125 44.1875 
Q 44.96875 46.296875 41.140625 47.34375 
Q 37.3125 48.390625 33.40625 48.390625 
Q 24.65625 48.390625 19.8125 42.84375 
Q 14.984375 37.3125 14.984375 27.296875 
Q 14.984375 17.28125 19.8125 11.734375 
Q 24.65625 6.203125 33.40625 6.203125 
Q 37.3125 6.203125 41.140625 7.25 
Q 44.96875 8.296875 48.78125 10.40625 
L 48.78125 2.09375 
Q 45.015625 0.34375 40.984375 -0.53125 
Q 36.96875 -1.421875 32.421875 -1.421875 
Q 20.0625 -1.421875 12.78125 6.34375 
Q 5.515625 14.109375 5.515625 27.296875 
Q 5.515625 40.671875 12.859375 48.328125 
Q 20.21875 56 33.015625 56 
Q 37.15625 56 41.109375 55.140625 
Q 45.0625 54.296875 48.78125 52.59375 
z
" id="DejaVuSans-99"/>
      <path d="M 54.890625 33.015625 
L 54.890625 0 
L 45.90625 0 
L 45.90625 32.71875 
Q 45.90625 40.484375 42.875 44.328125 
Q 39.84375 48.1875 33.796875 48.1875 
Q 26.515625 48.1875 22.3125 43.546875 
Q 18.109375 38.921875 18.109375 30.90625 
L 18.109375 0 
L 9.078125 0 
L 9.078125 75.984375 
L 18.109375 75.984375 
L 18.109375 46.1875 
Q 21.34375 51.125 25.703125 53.5625 
Q 30.078125 56 35.796875 56 
Q 45.21875 56 50.046875 50.171875 
Q 54.890625 44.34375 54.890625 33.015625 
z
" id="DejaVuSans-104"/>
      <path d="M 44.28125 53.078125 
L 44.28125 44.578125 
Q 40.484375 46.53125 36.375 47.5 
Q 32.28125 48.484375 27.875 48.484375 
Q 21.1875 48.484375 17.84375 46.4375 
Q 14.5 44.390625 14.5 40.28125 
Q 14.5 37.15625 16.890625 35.375 
Q 19.28125 33.59375 26.515625 31.984375 
L 29.59375 31.296875 
Q 39.15625 29.25 43.1875 25.515625 
Q 47.21875 21.78125 47.21875 15.09375 
Q 47.21875 7.46875 41.1875 3.015625 
Q 35.15625 -1.421875 24.609375 -1.421875 
Q 20.21875 -1.421875 15.453125 -0.5625 
Q 10.6875 0.296875 5.421875 2 
L 5.421875 11.28125 
Q 10.40625 8.6875 15.234375 7.390625 
Q 20.0625 6.109375 24.8125 6.109375 
Q 31.15625 6.109375 34.5625 8.28125 
Q 37.984375 10.453125 37.984375 14.40625 
Q 37.984375 18.0625 35.515625 20.015625 
Q 33.0625 21.96875 24.703125 23.78125 
L 21.578125 24.515625 
Q 13.234375 26.265625 9.515625 29.90625 
Q 5.8125 33.546875 5.8125 39.890625 
Q 5.8125 47.609375 11.28125 51.796875 
Q 16.75 56 26.8125 56 
Q 31.78125 56 36.171875 55.265625 
Q 40.578125 54.546875 44.28125 53.078125 
z
" id="DejaVuSans-115"/>
     </defs>
     <g transform="translate(203.484375 280.276563)scale(0.1 -0.1)">
      <use xlink:href="#DejaVuSans-69"/>
      <use x="63.183594" xlink:href="#DejaVuSans-112"/>
      <use x="126.660156" xlink:href="#DejaVuSans-111"/>
      <use x="187.841797" xlink:href="#DejaVuSans-99"/>
      <use x="242.822266" xlink:href="#DejaVuSans-104"/>
      <use x="306.201172" xlink:href="#DejaVuSans-115"/>
     </g>
    </g>
   </g>
   <g id="matplotlib.axis_2">
    <g id="ytick_1">
     <g id="line2d_7">
      <defs>
       <path d="M 0 0 
L -3.5 0 
" id="mb8d3f17003" style="stroke:#000000;stroke-width:0.8;"/>
      </defs>
      <g>
       <use style="stroke:#000000;stroke-width:0.8;" x="54" xlink:href="#mb8d3f17003" y="229.034095"/>
      </g>
     </g>
     <g id="text_8">
      <!-- 0.2 -->
      <defs>
       <path d="M 10.6875 12.40625 
L 21 12.40625 
L 21 0 
L 10.6875 0 
z
" id="DejaVuSans-46"/>
      </defs>
      <g transform="translate(31.096875 232.833314)scale(0.1 -0.1)">
       <use xlink:href="#DejaVuSans-48"/>
       <use x="63.623047" xlink:href="#DejaVuSans-46"/>
       <use x="95.410156" xlink:href="#DejaVuSans-50"/>
      </g>
     </g>
    </g>
    <g id="ytick_2">
     <g id="line2d_8">
      <g>
       <use style="stroke:#000000;stroke-width:0.8;" x="54" xlink:href="#mb8d3f17003" y="181.381445"/>
      </g>
     </g>
     <g id="text_9">
      <!-- 0.4 -->
      <g transform="translate(31.096875 185.180664)scale(0.1 -0.1)">
       <use xlink:href="#DejaVuSans-48"/>
       <use x="63.623047" xlink:href="#DejaVuSans-46"/>
       <use x="95.410156" xlink:href="#DejaVuSans-52"/>
      </g>
     </g>
    </g>
    <g id="ytick_3">
     <g id="line2d_9">
      <g>
       <use style="stroke:#000000;stroke-width:0.8;" x="54" xlink:href="#mb8d3f17003" y="133.728795"/>
      </g>
     </g>
     <g id="text_10">
      <!-- 0.6 -->
      <g transform="translate(31.096875 137.528014)scale(0.1 -0.1)">
       <use xlink:href="#DejaVuSans-48"/>
       <use x="63.623047" xlink:href="#DejaVuSans-46"/>
       <use x="95.410156" xlink:href="#DejaVuSans-54"/>
      </g>
     </g>
    </g>
    <g id="ytick_4">
     <g id="line2d_10">
      <g>
       <use style="stroke:#000000;stroke-width:0.8;" x="54" xlink:href="#mb8d3f17003" y="86.076145"/>
      </g>
     </g>
     <g id="text_11">
      <!-- 0.8 -->
      <g transform="translate(31.096875 89.875363)scale(0.1 -0.1)">
       <use xlink:href="#DejaVuSans-48"/>
       <use x="63.623047" xlink:href="#DejaVuSans-46"/>
       <use x="95.410156" xlink:href="#DejaVuSans-56"/>
      </g>
     </g>
    </g>
    <g id="ytick_5">
     <g id="line2d_11">
      <g>
       <use style="stroke:#000000;stroke-width:0.8;" x="54" xlink:href="#mb8d3f17003" y="38.423494"/>
      </g>
     </g>
     <g id="text_12">
      <!-- 1.0 -->
      <g transform="translate(31.096875 42.222713)scale(0.1 -0.1)">
       <use xlink:href="#DejaVuSans-49"/>
       <use x="63.623047" xlink:href="#DejaVuSans-46"/>
       <use x="95.410156" xlink:href="#DejaVuSans-48"/>
      </g>
     </g>
    </g>
    <g id="text_13">
     <!-- Accuracy -->
     <defs>
      <path d="M 34.1875 63.1875 
L 20.796875 26.90625 
L 47.609375 26.90625 
z
M 28.609375 72.90625 
L 39.796875 72.90625 
L 67.578125 0 
L 57.328125 0 
L 50.6875 18.703125 
L 17.828125 18.703125 
L 11.1875 0 
L 0.78125 0 
z
" id="DejaVuSans-65"/>
      <path d="M 8.5 21.578125 
L 8.5 54.6875 
L 17.484375 54.6875 
L 17.484375 21.921875 
Q 17.484375 14.15625 20.5 10.265625 
Q 23.53125 6.390625 29.59375 6.390625 
Q 36.859375 6.390625 41.078125 11.03125 
Q 45.3125 15.671875 45.3125 23.6875 
L 45.3125 54.6875 
L 54.296875 54.6875 
L 54.296875 0 
L 45.3125 0 
L 45.3125 8.40625 
Q 42.046875 3.421875 37.71875 1 
Q 33.40625 -1.421875 27.6875 -1.421875 
Q 18.265625 -1.421875 13.375 4.4375 
Q 8.5 10.296875 8.5 21.578125 
z
M 31.109375 56 
z
" id="DejaVuSans-117"/>
      <path d="M 41.109375 46.296875 
Q 39.59375 47.171875 37.8125 47.578125 
Q 36.03125 48 33.890625 48 
Q 26.265625 48 22.1875 43.046875 
Q 18.109375 38.09375 18.109375 28.8125 
L 18.109375 0 
L 9.078125 0 
L 9.078125 54.6875 
L 18.109375 54.6875 
L 18.109375 46.1875 
Q 20.953125 51.171875 25.484375 53.578125 
Q 30.03125 56 36.53125 56 
Q 37.453125 56 38.578125 55.875 
Q 39.703125 55.765625 41.0625 55.515625 
z
" id="DejaVuSans-114"/>
      <path d="M 34.28125 27.484375 
Q 23.390625 27.484375 19.1875 25 
Q 14.984375 22.515625 14.984375 16.5 
Q 14.984375 11.71875 18.140625 8.90625 
Q 21.296875 6.109375 26.703125 6.109375 
Q 34.1875 6.109375 38.703125 11.40625 
Q 43.21875 16.703125 43.21875 25.484375 
L 43.21875 27.484375 
z
M 52.203125 31.203125 
L 52.203125 0 
L 43.21875 0 
L 43.21875 8.296875 
Q 40.140625 3.328125 35.546875 0.953125 
Q 30.953125 -1.421875 24.3125 -1.421875 
Q 15.921875 -1.421875 10.953125 3.296875 
Q 6 8.015625 6 15.921875 
Q 6 25.140625 12.171875 29.828125 
Q 18.359375 34.515625 30.609375 34.515625 
L 43.21875 34.515625 
L 43.21875 35.40625 
Q 43.21875 41.609375 39.140625 45 
Q 35.0625 48.390625 27.6875 48.390625 
Q 23 48.390625 18.546875 47.265625 
Q 14.109375 46.140625 10.015625 43.890625 
L 10.015625 52.203125 
Q 14.9375 54.109375 19.578125 55.046875 
Q 24.21875 56 28.609375 56 
Q 40.484375 56 46.34375 49.84375 
Q 52.203125 43.703125 52.203125 31.203125 
z
" id="DejaVuSans-97"/>
      <path d="M 32.171875 -5.078125 
Q 28.375 -14.84375 24.75 -17.8125 
Q 21.140625 -20.796875 15.09375 -20.796875 
L 7.90625 -20.796875 
L 7.90625 -13.28125 
L 13.1875 -13.28125 
Q 16.890625 -13.28125 18.9375 -11.515625 
Q 21 -9.765625 23.484375 -3.21875 
L 25.09375 0.875 
L 2.984375 54.6875 
L 12.5 54.6875 
L 29.59375 11.921875 
L 46.6875 54.6875 
L 56.203125 54.6875 
z
" id="DejaVuSans-121"/>
     </defs>
     <g transform="translate(25.017187 166.194844)rotate(-90)scale(0.1 -0.1)">
      <use xlink:href="#DejaVuSans-65"/>
      <use x="68.392578" xlink:href="#DejaVuSans-99"/>
      <use x="123.373047" xlink:href="#DejaVuSans-99"/>
      <use x="178.353516" xlink:href="#DejaVuSans-117"/>
      <use x="241.732422" xlink:href="#DejaVuSans-114"/>
      <use x="282.845703" xlink:href="#DejaVuSans-97"/>
      <use x="344.125" xlink:href="#DejaVuSans-99"/>
      <use x="399.105469" xlink:href="#DejaVuSans-121"/>
     </g>
    </g>
   </g>
   <g id="line2d_12">
    <path clip-path="url(#p4a33073138)" d="M 69.218182 242.116364 
L 71.35086 187.111049 
L 73.17887 157.680832 
L 73.483538 155.767238 
L 74.702211 141.939087 
L 75.00688 138.684578 
L 75.311548 134.103129 
L 75.616216 132.566672 
L 75.920885 131.854306 
L 76.225553 127.286831 
L 76.834889 123.124414 
L 77.139558 122.607604 
L 77.444226 118.668678 
L 77.748894 117.271894 
L 78.053563 114.897373 
L 78.358231 114.003425 
L 78.967568 110.050524 
L 79.272236 109.338172 
L 79.576904 107.508382 
L 80.186241 106.502696 
L 80.490909 103.206292 
L 80.795577 101.166985 
L 81.100246 102.438057 
L 81.404914 100.161299 
L 81.709582 100.175274 
L 82.014251 98.331523 
L 82.928256 96.264282 
L 83.232924 94.560204 
L 83.84226 93.903721 
L 84.451597 91.724742 
L 84.756265 89.908911 
L 85.060934 89.825108 
L 85.365602 89.224494 
L 85.67027 89.671461 
L 85.974939 87.213122 
L 86.279607 86.905827 
L 86.584275 86.151566 
L 86.888943 85.92809 
L 87.193612 85.257633 
L 87.49828 86.165541 
L 87.802948 84.224012 
L 88.107617 84.852561 
L 88.412285 83.427842 
L 88.716953 82.799294 
L 89.021622 82.883097 
L 89.32629 82.017098 
L 89.630958 80.396824 
L 89.935627 82.254549 
L 90.240295 79.57272 
L 90.544963 80.620314 
L 91.458968 79.125753 
L 91.763636 79.209556 
L 92.677641 75.801415 
L 92.98231 77.198198 
L 93.286978 75.717597 
L 93.591646 75.996956 
L 93.896314 75.116983 
L 94.200983 76.052825 
L 94.505651 75.130957 
L 94.810319 75.829349 
L 95.114988 75.033179 
L 95.419656 73.748134 
L 95.724324 74.823663 
L 96.028993 73.95765 
L 96.333661 72.700553 
L 96.638329 72.491037 
L 96.942998 71.289795 
L 97.247666 72.686578 
L 98.161671 71.066318 
L 98.466339 72.030095 
L 98.771007 71.583129 
L 99.075676 71.373612 
L 99.380344 71.471376 
L 99.685012 69.795247 
L 100.294349 71.010449 
L 100.599017 70.353952 
L 100.903686 69.404149 
L 101.208354 70.046658 
L 101.513022 68.901299 
L 102.122359 69.879051 
L 102.731695 68.524176 
L 103.036364 68.594005 
L 103.341032 69.068921 
L 103.6457 68.538136 
L 103.950369 68.244816 
L 104.255037 67.546424 
L 104.559705 67.25309 
L 105.169042 67.350868 
L 105.47371 66.359157 
L 105.778378 66.44296 
L 106.083047 67.029614 
L 106.692383 66.526764 
L 106.997052 66.73628 
L 107.30172 67.099443 
L 107.606388 65.814412 
L 107.911057 65.479183 
L 108.215725 65.730608 
L 108.520393 65.171889 
L 108.825061 65.507118 
L 109.12973 66.303287 
L 109.434398 66.079797 
L 109.739066 64.641118 
L 110.043735 65.465209 
L 110.348403 64.766817 
L 110.95774 64.04049 
L 111.262408 63.467811 
L 111.567076 63.467811 
L 111.871744 64.571275 
L 112.176413 64.473497 
L 112.481081 63.52368 
L 112.785749 64.61317 
L 113.090418 63.705262 
L 113.395086 63.425916 
L 114.004423 64.361759 
L 114.309091 63.202426 
L 114.613759 63.411942 
L 115.223096 63.286229 
L 115.527764 62.462125 
L 115.832432 63.481785 
L 116.137101 63.621458 
L 116.441769 63.188451 
L 116.746437 63.272269 
L 117.051106 62.490059 
L 117.660442 61.582151 
L 117.965111 62.280543 
L 118.574447 62.727524 
L 118.879115 61.610086 
L 119.183784 61.526282 
L 119.79312 61.90342 
L 120.097789 61.121224 
L 120.707125 60.422832 
L 121.011794 60.380924 
L 121.316462 61.246923 
L 121.62113 60.241251 
L 121.925799 60.646309 
L 122.230467 60.841865 
L 122.839803 60.646309 
L 123.144472 59.570793 
L 123.44914 59.486976 
L 124.058477 60.283146 
L 124.363145 60.394898 
L 124.667813 59.808244 
L 124.972482 60.352989 
L 125.27715 59.612688 
L 125.581818 60.003786 
L 125.886486 59.123812 
L 126.191155 58.746689 
L 126.495823 59.473015 
L 126.800491 59.626663 
L 127.10516 58.593042 
L 127.409828 58.509238 
L 127.714496 58.760649 
L 128.323833 58.537173 
L 128.628501 59.473015 
L 128.93317 59.836179 
L 129.237838 58.41146 
L 129.542506 58.565107 
L 129.847174 58.872402 
L 130.151843 58.732715 
L 130.456511 58.327657 
L 130.761179 58.551133 
L 131.065848 57.964493 
L 131.370516 58.18797 
L 131.675184 58.620976 
L 131.979853 57.727043 
L 132.284521 58.271788 
L 132.893857 57.629265 
L 133.198526 56.679448 
L 133.503194 57.964493 
L 133.807862 58.299722 
L 134.112531 58.146075 
L 134.417199 57.266102 
L 134.721867 58.118141 
L 135.026536 57.489578 
L 135.635872 57.000702 
L 135.940541 57.643225 
L 136.245209 57.391814 
L 136.549877 56.386128 
L 136.854545 57.070546 
L 137.159214 56.958807 
L 137.463882 57.461643 
L 137.76855 57.321971 
L 138.377887 55.981056 
L 138.987224 56.888964 
L 139.291892 55.757565 
L 139.59656 56.539775 
L 140.205897 55.77154 
L 140.510565 56.944833 
L 141.119902 56.120729 
L 141.42457 56.777226 
L 141.729238 55.394402 
L 142.033907 55.603933 
L 142.338575 55.967096 
L 142.643243 55.142991 
L 143.25258 56.372154 
L 143.557248 56.022965 
L 143.861916 55.394402 
L 144.166585 55.701696 
L 144.775921 55.338533 
L 145.385258 55.310599 
L 145.689926 55.464246 
L 146.299263 54.40269 
L 146.603931 55.338533 
L 146.9086 55.408377 
L 147.213268 54.919501 
L 147.517936 55.49218 
L 148.431941 53.899855 
L 148.736609 54.905541 
L 149.345946 54.346821 
L 149.650614 54.640141 
L 149.955283 54.151265 
L 150.259951 55.450285 
L 150.564619 54.933475 
L 150.869287 54.779828 
L 151.173956 53.969684 
L 151.478624 55.115057 
L 151.783292 55.464246 
L 152.087961 55.212821 
L 152.392629 54.556338 
L 153.001966 53.788102 
L 153.306634 54.444599 
L 153.611302 54.221109 
L 153.915971 53.718273 
L 154.220639 53.997618 
L 155.74398 53.760168 
L 156.048649 53.620495 
L 156.353317 53.201463 
L 156.657985 54.249043 
L 157.267322 53.690338 
L 157.57199 53.704299 
L 157.876658 54.444599 
L 158.181327 53.033841 
L 158.790663 53.816037 
L 159.095332 52.991946 
L 159.4 53.857946 
L 159.704668 53.662404 
L 160.009337 52.544965 
L 160.314005 52.628783 
L 160.618673 52.977972 
L 161.22801 53.061776 
L 161.532678 53.550652 
L 161.837346 52.237686 
L 162.142015 52.531005 
L 162.446683 53.145594 
L 162.751351 52.349424 
L 163.05602 53.606521 
L 163.360688 52.936063 
L 163.665356 53.35511 
L 163.970025 51.832613 
L 164.274693 52.000221 
L 164.884029 53.662404 
L 165.188698 52.642743 
L 165.493366 52.866234 
L 165.798034 52.642743 
L 166.102703 52.810365 
L 166.407371 52.698613 
L 166.712039 52.125933 
L 167.016708 52.55894 
L 167.321376 52.447202 
L 167.626044 51.846574 
L 167.930713 52.768456 
L 168.235381 53.019881 
L 168.844717 51.651032 
L 169.149386 52.447202 
L 169.454054 52.600849 
L 169.758722 51.930391 
L 170.063391 52.461162 
L 170.368059 52.195777 
L 170.672727 51.553254 
L 170.977396 51.511345 
L 171.282064 51.664992 
L 171.586732 51.190091 
L 171.8914 51.427541 
L 172.196069 52.27958 
L 172.805405 50.938665 
L 173.110074 51.301829 
L 173.71941 51.46945 
L 174.024079 51.204065 
L 174.328747 51.846574 
L 174.633415 50.896771 
L 174.938084 50.631371 
L 175.242752 51.609123 
L 175.54742 50.812953 
L 175.852088 51.706901 
L 176.156757 51.17613 
L 176.461425 51.329763 
L 176.766093 50.687255 
L 177.070762 50.854862 
L 177.37543 51.329763 
L 177.680098 50.533608 
L 177.984767 50.743124 
L 178.289435 50.757084 
L 179.20344 51.455476 
L 179.508108 51.204065 
L 179.812776 51.581188 
L 180.117445 51.595163 
L 180.422113 50.826927 
L 180.726781 51.455476 
L 181.03145 50.924705 
L 181.336118 50.924705 
L 181.640786 51.148182 
L 181.945455 50.44979 
L 182.250123 51.24596 
L 182.554791 50.882796 
L 182.859459 50.826927 
L 183.164128 50.43583 
L 183.468796 49.793307 
L 183.773464 51.399607 
L 184.078133 49.667594 
L 184.382801 50.561542 
L 184.992138 50.365986 
L 185.296806 50.687255 
L 185.601474 49.821241 
L 185.906143 50.393921 
L 186.210811 51.218025 
L 186.515479 51.036443 
L 186.820147 50.100601 
L 187.124816 50.282182 
L 187.429484 50.198379 
L 187.734152 49.332366 
L 188.038821 49.737438 
L 188.343489 49.891085 
L 188.648157 50.296157 
L 188.952826 50.15647 
L 189.257494 49.681569 
L 189.562162 50.058692 
L 189.86683 50.226313 
L 190.171499 50.645346 
L 190.476167 49.611725 
L 190.780835 50.128535 
L 191.085504 50.254248 
L 191.390172 50.533608 
L 191.69484 49.751398 
L 191.999509 49.737438 
L 192.608845 49.374274 
L 192.913514 49.011111 
L 193.218182 49.290471 
L 193.52285 49.150784 
L 193.827518 49.3603 
L 194.132187 49.793307 
L 194.436855 50.002823 
L 194.741523 48.941268 
L 195.046192 48.745726 
L 195.35086 49.597765 
L 195.655528 49.555856 
L 195.960197 49.653634 
L 196.569533 48.871439 
L 197.17887 49.06698 
L 197.483538 48.885399 
L 197.788206 49.318405 
L 198.092875 48.955242 
L 198.397543 49.248562 
L 199.00688 49.458078 
L 199.311548 48.885399 
L 199.616216 48.955242 
L 199.920885 48.82953 
L 200.225553 49.108889 
L 200.530221 48.969202 
L 200.834889 49.262536 
L 201.139558 48.927308 
L 201.444226 49.653634 
L 201.748894 49.625699 
L 202.053563 49.290471 
L 202.662899 49.039046 
L 203.272236 49.206653 
L 204.186241 48.955242 
L 204.795577 48.382563 
L 205.100246 49.080955 
L 205.404914 48.466366 
L 205.709582 48.82953 
L 206.014251 48.731752 
L 206.623587 47.977491 
L 206.928256 48.997137 
L 207.232924 48.075269 
L 208.146929 48.815555 
L 208.756265 48.0194 
L 209.060934 49.220627 
L 209.365602 48.731752 
L 209.67027 49.06698 
L 209.974939 48.815555 
L 210.279607 49.430144 
L 210.584275 49.304431 
L 210.888943 48.312719 
L 211.193612 48.159072 
L 211.49828 48.731752 
L 212.107617 48.03336 
L 212.412285 47.865752 
L 212.716953 48.089229 
L 213.021622 48.173047 
L 213.32629 47.795909 
L 213.630958 48.82953 
L 213.935627 48.005425 
L 214.240295 48.424457 
L 214.544963 48.522235 
L 214.849631 47.935582 
L 215.458968 48.159072 
L 215.763636 48.424457 
L 216.068305 48.354628 
L 216.372973 47.991465 
L 216.677641 48.340654 
L 216.98231 48.075269 
L 217.286978 47.209255 
L 217.591646 48.689843 
L 217.896314 47.600353 
L 218.505651 47.977491 
L 218.810319 47.74004 
L 219.114988 47.726066 
L 219.419656 47.334968 
L 219.724324 47.321008 
L 220.333661 47.851778 
L 220.638329 47.390837 
L 220.942998 48.089229 
L 221.247666 47.614327 
L 221.552334 48.159072 
L 221.857002 47.935582 
L 222.161671 47.432746 
L 222.466339 47.921622 
L 223.075676 47.767974 
L 223.380344 47.167361 
L 223.685012 47.544484 
L 223.989681 47.376877 
L 224.294349 47.390837 
L 224.599017 47.293073 
L 224.903686 47.055608 
L 225.208354 47.390837 
L 225.513022 47.111491 
L 225.81769 48.131138 
L 226.427027 46.971805 
L 226.731695 47.684171 
L 227.036364 47.46068 
L 227.341032 47.642262 
L 227.6457 47.083543 
L 227.950369 47.628288 
L 228.255037 47.181321 
L 228.559705 47.46068 
L 228.864373 47.265124 
L 229.169042 47.642262 
L 229.47371 47.404811 
L 229.778378 46.804197 
L 230.083047 47.767974 
L 230.387715 47.404811 
L 230.997052 47.209255 
L 231.30172 47.139426 
L 231.606388 47.432746 
L 231.911057 46.901961 
L 232.215725 47.167361 
L 232.520393 47.795909 
L 233.12973 46.482929 
L 233.434398 47.418771 
L 233.739066 47.083543 
L 234.043735 47.279099 
L 234.348403 46.94387 
L 234.95774 47.139426 
L 235.262408 46.566747 
L 235.567076 46.915935 
L 235.871744 46.119766 
L 236.176413 46.901961 
L 236.481081 46.315322 
L 237.395086 47.795909 
L 237.699754 47.125452 
L 238.004423 47.321008 
L 238.309091 47.013713 
L 238.613759 47.321008 
L 238.918428 46.915935 
L 239.223096 46.231518 
L 239.527764 46.734354 
L 239.832432 46.804197 
L 240.137101 47.251164 
L 240.441769 46.566747 
L 240.746437 47.279099 
L 241.355774 46.874027 
L 241.660442 47.055608 
L 241.965111 46.94387 
L 242.269779 45.980093 
L 242.574447 46.357216 
L 242.879115 46.496903 
L 243.183784 46.482929 
L 243.488452 47.139426 
L 243.79312 46.399125 
L 244.097789 46.329282 
L 244.402457 46.091831 
L 244.707125 46.049936 
L 245.011794 46.482929 
L 245.316462 46.13374 
L 245.62113 46.049936 
L 245.925799 46.622616 
L 246.230467 45.938184 
L 246.839803 47.251164 
L 247.144472 46.301347 
L 247.44914 47.083543 
L 248.058477 46.119766 
L 248.363145 46.482929 
L 248.972482 46.901961 
L 249.27715 46.468969 
L 249.581818 45.728668 
L 249.886486 45.63089 
L 250.495823 46.748328 
L 250.800491 47.125452 
L 251.10516 45.449308 
L 251.714496 46.287387 
L 252.019165 45.602955 
L 252.323833 45.938184 
L 252.93317 45.588995 
L 253.237838 45.784537 
L 253.542506 45.840406 
L 253.847174 46.622616 
L 254.151843 45.966119 
L 254.761179 45.253766 
L 255.065848 45.323596 
L 255.370516 45.770577 
L 255.675184 45.379479 
L 255.979853 45.588995 
L 256.284521 45.211858 
L 256.893857 45.686773 
L 257.198526 45.407414 
L 257.503194 45.309636 
L 257.807862 45.61693 
L 258.112531 45.211858 
L 258.417199 45.407414 
L 258.721867 45.379479 
L 259.026536 45.505191 
L 259.331204 45.142014 
L 259.940541 45.519152 
L 260.245209 45.128054 
L 260.549877 44.988381 
L 261.159214 45.547086 
L 261.76855 45.421374 
L 262.073219 45.253766 
L 262.377887 45.505191 
L 262.682555 44.904563 
L 262.987224 45.183923 
L 263.291892 44.443636 
L 263.59656 45.128054 
L 263.901229 45.309636 
L 264.205897 45.211858 
L 264.510565 44.792825 
L 264.815233 44.862669 
L 265.119902 45.365505 
L 265.42457 45.183923 
L 265.729238 45.407414 
L 266.033907 45.239792 
L 266.338575 44.611244 
L 266.643243 45.421374 
L 266.947912 45.868355 
L 267.25258 44.918538 
L 267.557248 45.602955 
L 267.861916 45.155988 
L 268.166585 44.918538 
L 268.471253 45.100119 
L 268.775921 45.100119 
L 269.08059 45.253766 
L 269.385258 45.169963 
L 269.689926 45.575021 
L 270.299263 44.625218 
L 270.603931 44.946472 
L 270.9086 45.686773 
L 271.213268 44.722982 
L 271.517936 45.393439 
L 272.127273 45.086145 
L 272.431941 45.086145 
L 272.736609 45.33757 
L 273.041278 44.792825 
L 273.345946 45.211858 
L 273.650614 45.840406 
L 273.955283 45.435348 
L 274.259951 44.750916 
L 274.564619 45.309636 
L 275.783292 45.33757 
L 276.087961 45.100119 
L 276.392629 45.505191 
L 276.697297 45.365505 
L 277.001966 45.421374 
L 277.306634 44.932498 
L 277.611302 44.709022 
L 277.915971 45.016316 
L 278.220639 45.561061 
L 278.525307 45.798511 
L 278.829975 44.834734 
L 279.134644 45.11408 
L 279.74398 45.393439 
L 280.048649 45.05821 
L 280.353317 45.505191 
L 280.657985 45.351544 
L 280.962654 45.016316 
L 281.57199 45.658824 
L 281.876658 45.505191 
L 282.181327 45.225832 
L 282.485995 45.225832 
L 282.790663 45.463283 
L 283.095332 44.890603 
L 283.4 44.848694 
L 284.009337 45.239792 
L 284.314005 45.253766 
L 284.618673 45.421374 
L 284.923342 44.597269 
L 285.532678 45.309636 
L 285.837346 44.82076 
L 286.142015 44.736956 
L 286.446683 45.882315 
L 286.751351 44.8068 
L 287.05602 45.421374 
L 287.360688 44.932498 
L 287.970025 45.379479 
L 288.274693 45.281701 
L 288.579361 45.966119 
L 289.188698 44.960432 
L 289.798034 45.393439 
L 290.102703 45.11408 
L 290.407371 45.602955 
L 291.016708 45.086145 
L 291.321376 44.988381 
L 291.626044 45.281701 
L 291.930713 45.002341 
L 292.235381 45.561061 
L 292.540049 45.05821 
L 293.149386 45.253766 
L 293.454054 45.072185 
L 293.758722 45.561061 
L 294.368059 44.792825 
L 294.672727 44.778851 
L 294.977396 45.072185 
L 295.282064 45.672799 
L 295.586732 45.644864 
L 296.196069 45.197897 
L 296.500737 45.379479 
L 296.805405 45.253766 
L 297.110074 44.988381 
L 297.414742 45.379479 
L 298.024079 44.709022 
L 298.328747 45.714708 
L 298.633415 45.407414 
L 298.938084 45.351544 
L 299.242752 44.695047 
L 299.54742 45.281701 
L 299.852088 45.309636 
L 300.156757 45.477243 
L 300.461425 45.225832 
L 301.070762 45.267727 
L 301.37543 45.379479 
L 301.680098 45.05821 
L 301.984767 45.365505 
L 302.289435 44.988381 
L 302.898771 44.988381 
L 303.20344 44.82076 
L 303.508108 45.183923 
L 303.812776 45.309636 
L 304.117445 44.862669 
L 304.422113 45.924224 
L 304.726781 45.211858 
L 305.03145 45.281701 
L 305.336118 45.477243 
L 305.640786 44.8068 
L 305.945455 45.142014 
L 306.250123 45.197897 
L 306.554791 45.477243 
L 306.859459 45.05821 
L 307.773464 45.505191 
L 308.078133 44.988381 
L 308.382801 45.658824 
L 308.687469 45.407414 
L 308.992138 44.681087 
L 309.601474 45.588995 
L 309.906143 45.100119 
L 310.210811 45.505191 
L 310.515479 45.309636 
L 310.820147 45.812471 
L 311.124816 45.281701 
L 311.429484 45.519152 
L 311.734152 45.477243 
L 312.038821 45.072185 
L 312.343489 45.169963 
L 312.648157 44.792825 
L 312.952826 44.974407 
L 313.257494 45.533126 
L 313.86683 45.072185 
L 314.171499 45.351544 
L 314.476167 45.421374 
L 314.780835 45.155988 
L 315.085504 45.295661 
L 315.390172 45.239792 
L 315.69484 44.625218 
L 315.999509 45.197897 
L 316.304177 45.379479 
L 316.608845 45.351544 
L 316.913514 45.533126 
L 317.218182 45.281701 
L 317.52285 45.686773 
L 317.827518 45.575021 
L 318.132187 45.155988 
L 318.436855 45.686773 
L 318.741523 45.547086 
L 319.35086 44.974407 
L 319.655528 44.890603 
L 319.960197 45.980093 
L 320.264865 45.197897 
L 320.569533 45.686773 
L 320.874201 45.281701 
L 321.17887 45.239792 
L 321.483538 44.862669 
L 321.788206 44.722982 
L 322.092875 45.225832 
L 322.397543 44.667113 
L 322.702211 45.267727 
L 323.00688 44.890603 
L 323.311548 45.491217 
L 323.616216 45.197897 
L 323.920885 45.463283 
L 324.225553 45.533126 
L 324.530221 44.974407 
L 324.834889 45.533126 
L 325.139558 45.435348 
L 325.444226 45.072185 
L 325.748894 45.33757 
L 326.053563 44.695047 
L 326.358231 44.778851 
L 326.662899 45.561061 
L 326.967568 44.918538 
L 327.272236 45.086145 
L 327.576904 45.519152 
L 328.186241 44.792825 
L 328.490909 45.002341 
L 328.795577 44.876629 
L 329.100246 45.519152 
L 329.404914 45.267727 
L 329.709582 45.407414 
L 330.318919 45.449308 
L 330.623587 45.086145 
L 330.928256 44.988381 
L 331.537592 45.225832 
L 331.84226 44.792825 
L 332.146929 45.575021 
L 332.451597 45.812471 
L 332.756265 45.239792 
L 333.060934 45.351544 
L 333.365602 45.072185 
L 333.67027 45.309636 
L 333.974939 45.183923 
L 334.279607 45.728668 
L 334.584275 45.086145 
L 334.888943 45.351544 
L 335.193612 45.002341 
L 336.107617 44.946472 
L 336.412285 45.225832 
L 336.716953 45.142014 
L 337.021622 44.625218 
L 337.32629 45.435348 
L 337.935627 45.267727 
L 338.240295 45.658824 
L 338.849631 45.183923 
L 339.1543 45.072185 
L 339.458968 44.736956 
L 339.763636 45.183923 
L 340.068305 45.11408 
L 340.372973 45.463283 
L 340.677641 45.183923 
L 340.98231 45.267727 
L 341.286978 45.547086 
L 341.591646 44.5414 
L 341.896314 45.519152 
L 342.200983 44.778851 
L 342.505651 45.505191 
L 342.810319 45.086145 
L 343.114988 45.225832 
L 343.724324 45.016316 
L 344.028993 45.211858 
L 344.333661 45.016316 
L 344.638329 44.639178 
L 344.942998 45.812471 
L 345.247666 44.862669 
L 345.552334 45.183923 
L 345.857002 45.197897 
L 346.161671 44.890603 
L 346.466339 45.407414 
L 346.771007 45.281701 
L 347.075676 45.435348 
L 347.380344 45.197897 
L 347.685012 45.505191 
L 347.989681 45.142014 
L 348.294349 45.644864 
L 348.599017 44.709022 
L 348.903686 45.225832 
L 349.513022 45.435348 
L 349.81769 45.183923 
L 350.122359 45.575021 
L 350.427027 45.239792 
L 351.341032 45.463283 
L 351.6457 45.155988 
L 351.950369 45.225832 
L 353.169042 45.04425 
L 353.47371 45.393439 
L 353.778378 45.128054 
L 354.387715 45.602955 
L 354.692383 45.04425 
L 354.997052 46.301347 
L 355.30172 45.323596 
L 355.606388 45.295661 
L 355.911057 45.030276 
L 356.215725 45.547086 
L 356.520393 45.449308 
L 356.825061 45.686773 
L 357.12973 45.002341 
L 357.434398 45.04425 
L 357.739066 45.575021 
L 358.043735 45.225832 
L 358.348403 45.142014 
L 358.653071 44.918538 
L 358.95774 45.155988 
L 359.262408 45.225832 
L 359.567076 45.547086 
L 359.871744 45.211858 
L 360.176413 45.658824 
L 360.481081 45.588995 
L 360.785749 44.667113 
L 361.090418 45.11408 
L 361.395086 45.267727 
L 361.699754 44.792825 
L 362.004423 45.295661 
L 362.309091 45.030276 
L 362.613759 45.658824 
L 362.918428 44.960432 
L 363.223096 45.183923 
L 363.527764 44.834734 
L 363.832432 45.086145 
L 364.137101 45.155988 
L 364.441769 44.876629 
L 364.746437 45.365505 
L 365.051106 45.128054 
L 365.355774 44.5414 
L 365.660442 45.142014 
L 365.965111 45.435348 
L 366.574447 44.639178 
L 366.879115 45.169963 
L 367.183784 45.128054 
L 368.097789 45.61693 
L 368.402457 44.82076 
L 368.707125 45.435348 
L 369.316462 44.946472 
L 369.62113 45.211858 
L 369.925799 45.05821 
L 370.230467 45.086145 
L 370.535135 44.932498 
L 371.753808 45.505191 
L 372.058477 45.33757 
L 372.363145 45.770577 
L 372.667813 45.281701 
L 372.972482 45.561061 
L 373.27715 45.155988 
L 373.581818 45.491217 
L 373.581818 45.491217 
" style="fill:none;stroke:#1f77b4;stroke-linecap:square;stroke-width:1.5;"/>
   </g>
   <g id="patch_3">
    <path d="M 54 252 
L 54 34.56 
" style="fill:none;stroke:#000000;stroke-linecap:square;stroke-linejoin:miter;stroke-width:0.8;"/>
   </g>
   <g id="patch_4">
    <path d="M 388.8 252 
L 388.8 34.56 
" style="fill:none;stroke:#000000;stroke-linecap:square;stroke-linejoin:miter;stroke-width:0.8;"/>
   </g>
   <g id="patch_5">
    <path d="M 54 252 
L 388.8 252 
" style="fill:none;stroke:#000000;stroke-linecap:square;stroke-linejoin:miter;stroke-width:0.8;"/>
   </g>
   <g id="patch_6">
    <path d="M 54 34.56 
L 388.8 34.56 
" style="fill:none;stroke:#000000;stroke-linecap:square;stroke-linejoin:miter;stroke-width:0.8;"/>
   </g>
   <g id="legend_1">
    <g id="patch_7">
     <path d="M 218.435937 247 
L 381.8 247 
Q 383.8 247 383.8 245 
L 383.8 231.321875 
Q 383.8 229.321875 381.8 229.321875 
L 218.435937 229.321875 
Q 216.435937 229.321875 216.435937 231.321875 
L 216.435937 245 
Q 216.435937 247 218.435937 247 
z
" style="fill:#ffffff;opacity:0.8;stroke:#cccccc;stroke-linejoin:miter;"/>
    </g>
    <g id="line2d_13">
     <path d="M 220.435937 237.420312 
L 240.435937 237.420312 
" style="fill:none;stroke:#1f77b4;stroke-linecap:square;stroke-width:1.5;"/>
    </g>
    <g id="line2d_14"/>
    <g id="text_14">
     <!-- Fusion-based align. model -->
     <defs>
      <path d="M 9.8125 72.90625 
L 51.703125 72.90625 
L 51.703125 64.59375 
L 19.671875 64.59375 
L 19.671875 43.109375 
L 48.578125 43.109375 
L 48.578125 34.8125 
L 19.671875 34.8125 
L 19.671875 0 
L 9.8125 0 
z
" id="DejaVuSans-70"/>
      <path d="M 9.421875 54.6875 
L 18.40625 54.6875 
L 18.40625 0 
L 9.421875 0 
z
M 9.421875 75.984375 
L 18.40625 75.984375 
L 18.40625 64.59375 
L 9.421875 64.59375 
z
" id="DejaVuSans-105"/>
      <path d="M 54.890625 33.015625 
L 54.890625 0 
L 45.90625 0 
L 45.90625 32.71875 
Q 45.90625 40.484375 42.875 44.328125 
Q 39.84375 48.1875 33.796875 48.1875 
Q 26.515625 48.1875 22.3125 43.546875 
Q 18.109375 38.921875 18.109375 30.90625 
L 18.109375 0 
L 9.078125 0 
L 9.078125 54.6875 
L 18.109375 54.6875 
L 18.109375 46.1875 
Q 21.34375 51.125 25.703125 53.5625 
Q 30.078125 56 35.796875 56 
Q 45.21875 56 50.046875 50.171875 
Q 54.890625 44.34375 54.890625 33.015625 
z
" id="DejaVuSans-110"/>
      <path d="M 4.890625 31.390625 
L 31.203125 31.390625 
L 31.203125 23.390625 
L 4.890625 23.390625 
z
" id="DejaVuSans-45"/>
      <path d="M 48.6875 27.296875 
Q 48.6875 37.203125 44.609375 42.84375 
Q 40.53125 48.484375 33.40625 48.484375 
Q 26.265625 48.484375 22.1875 42.84375 
Q 18.109375 37.203125 18.109375 27.296875 
Q 18.109375 17.390625 22.1875 11.75 
Q 26.265625 6.109375 33.40625 6.109375 
Q 40.53125 6.109375 44.609375 11.75 
Q 48.6875 17.390625 48.6875 27.296875 
z
M 18.109375 46.390625 
Q 20.953125 51.265625 25.265625 53.625 
Q 29.59375 56 35.59375 56 
Q 45.5625 56 51.78125 48.09375 
Q 58.015625 40.1875 58.015625 27.296875 
Q 58.015625 14.40625 51.78125 6.484375 
Q 45.5625 -1.421875 35.59375 -1.421875 
Q 29.59375 -1.421875 25.265625 0.953125 
Q 20.953125 3.328125 18.109375 8.203125 
L 18.109375 0 
L 9.078125 0 
L 9.078125 75.984375 
L 18.109375 75.984375 
z
" id="DejaVuSans-98"/>
      <path d="M 56.203125 29.59375 
L 56.203125 25.203125 
L 14.890625 25.203125 
Q 15.484375 15.921875 20.484375 11.0625 
Q 25.484375 6.203125 34.421875 6.203125 
Q 39.59375 6.203125 44.453125 7.46875 
Q 49.3125 8.734375 54.109375 11.28125 
L 54.109375 2.78125 
Q 49.265625 0.734375 44.1875 -0.34375 
Q 39.109375 -1.421875 33.890625 -1.421875 
Q 20.796875 -1.421875 13.15625 6.1875 
Q 5.515625 13.8125 5.515625 26.8125 
Q 5.515625 40.234375 12.765625 48.109375 
Q 20.015625 56 32.328125 56 
Q 43.359375 56 49.78125 48.890625 
Q 56.203125 41.796875 56.203125 29.59375 
z
M 47.21875 32.234375 
Q 47.125 39.59375 43.09375 43.984375 
Q 39.0625 48.390625 32.421875 48.390625 
Q 24.90625 48.390625 20.390625 44.140625 
Q 15.875 39.890625 15.1875 32.171875 
z
" id="DejaVuSans-101"/>
      <path d="M 45.40625 46.390625 
L 45.40625 75.984375 
L 54.390625 75.984375 
L 54.390625 0 
L 45.40625 0 
L 45.40625 8.203125 
Q 42.578125 3.328125 38.25 0.953125 
Q 33.9375 -1.421875 27.875 -1.421875 
Q 17.96875 -1.421875 11.734375 6.484375 
Q 5.515625 14.40625 5.515625 27.296875 
Q 5.515625 40.1875 11.734375 48.09375 
Q 17.96875 56 27.875 56 
Q 33.9375 56 38.25 53.625 
Q 42.578125 51.265625 45.40625 46.390625 
z
M 14.796875 27.296875 
Q 14.796875 17.390625 18.875 11.75 
Q 22.953125 6.109375 30.078125 6.109375 
Q 37.203125 6.109375 41.296875 11.75 
Q 45.40625 17.390625 45.40625 27.296875 
Q 45.40625 37.203125 41.296875 42.84375 
Q 37.203125 48.484375 30.078125 48.484375 
Q 22.953125 48.484375 18.875 42.84375 
Q 14.796875 37.203125 14.796875 27.296875 
z
" id="DejaVuSans-100"/>
      <path id="DejaVuSans-32"/>
      <path d="M 9.421875 75.984375 
L 18.40625 75.984375 
L 18.40625 0 
L 9.421875 0 
z
" id="DejaVuSans-108"/>
      <path d="M 45.40625 27.984375 
Q 45.40625 37.75 41.375 43.109375 
Q 37.359375 48.484375 30.078125 48.484375 
Q 22.859375 48.484375 18.828125 43.109375 
Q 14.796875 37.75 14.796875 27.984375 
Q 14.796875 18.265625 18.828125 12.890625 
Q 22.859375 7.515625 30.078125 7.515625 
Q 37.359375 7.515625 41.375 12.890625 
Q 45.40625 18.265625 45.40625 27.984375 
z
M 54.390625 6.78125 
Q 54.390625 -7.171875 48.1875 -13.984375 
Q 42 -20.796875 29.203125 -20.796875 
Q 24.46875 -20.796875 20.265625 -20.09375 
Q 16.0625 -19.390625 12.109375 -17.921875 
L 12.109375 -9.1875 
Q 16.0625 -11.328125 19.921875 -12.34375 
Q 23.78125 -13.375 27.78125 -13.375 
Q 36.625 -13.375 41.015625 -8.765625 
Q 45.40625 -4.15625 45.40625 5.171875 
L 45.40625 9.625 
Q 42.625 4.78125 38.28125 2.390625 
Q 33.9375 0 27.875 0 
Q 17.828125 0 11.671875 7.65625 
Q 5.515625 15.328125 5.515625 27.984375 
Q 5.515625 40.671875 11.671875 48.328125 
Q 17.828125 56 27.875 56 
Q 33.9375 56 38.28125 53.609375 
Q 42.625 51.21875 45.40625 46.390625 
L 45.40625 54.6875 
L 54.390625 54.6875 
z
" id="DejaVuSans-103"/>
      <path d="M 52 44.1875 
Q 55.375 50.25 60.0625 53.125 
Q 64.75 56 71.09375 56 
Q 79.640625 56 84.28125 50.015625 
Q 88.921875 44.046875 88.921875 33.015625 
L 88.921875 0 
L 79.890625 0 
L 79.890625 32.71875 
Q 79.890625 40.578125 77.09375 44.375 
Q 74.3125 48.1875 68.609375 48.1875 
Q 61.625 48.1875 57.5625 43.546875 
Q 53.515625 38.921875 53.515625 30.90625 
L 53.515625 0 
L 44.484375 0 
L 44.484375 32.71875 
Q 44.484375 40.625 41.703125 44.40625 
Q 38.921875 48.1875 33.109375 48.1875 
Q 26.21875 48.1875 22.15625 43.53125 
Q 18.109375 38.875 18.109375 30.90625 
L 18.109375 0 
L 9.078125 0 
L 9.078125 54.6875 
L 18.109375 54.6875 
L 18.109375 46.1875 
Q 21.1875 51.21875 25.484375 53.609375 
Q 29.78125 56 35.6875 56 
Q 41.65625 56 45.828125 52.96875 
Q 50 49.953125 52 44.1875 
z
" id="DejaVuSans-109"/>
     </defs>
     <g transform="translate(248.435937 240.920312)scale(0.1 -0.1)">
      <use xlink:href="#DejaVuSans-70"/>
      <use x="57.441406" xlink:href="#DejaVuSans-117"/>
      <use x="120.820312" xlink:href="#DejaVuSans-115"/>
      <use x="172.919922" xlink:href="#DejaVuSans-105"/>
      <use x="200.703125" xlink:href="#DejaVuSans-111"/>
      <use x="261.884766" xlink:href="#DejaVuSans-110"/>
      <use x="325.263672" xlink:href="#DejaVuSans-45"/>
      <use x="361.347656" xlink:href="#DejaVuSans-98"/>
      <use x="424.824219" xlink:href="#DejaVuSans-97"/>
      <use x="486.103516" xlink:href="#DejaVuSans-115"/>
      <use x="538.203125" xlink:href="#DejaVuSans-101"/>
      <use x="599.726562" xlink:href="#DejaVuSans-100"/>
      <use x="663.203125" xlink:href="#DejaVuSans-32"/>
      <use x="694.990234" xlink:href="#DejaVuSans-97"/>
      <use x="756.269531" xlink:href="#DejaVuSans-108"/>
      <use x="784.052734" xlink:href="#DejaVuSans-105"/>
      <use x="811.835938" xlink:href="#DejaVuSans-103"/>
      <use x="875.3125" xlink:href="#DejaVuSans-110"/>
      <use x="938.691406" xlink:href="#DejaVuSans-46"/>
      <use x="970.478516" xlink:href="#DejaVuSans-32"/>
      <use x="1002.265625" xlink:href="#DejaVuSans-109"/>
      <use x="1099.677734" xlink:href="#DejaVuSans-111"/>
      <use x="1160.859375" xlink:href="#DejaVuSans-100"/>
      <use x="1224.335938" xlink:href="#DejaVuSans-101"/>
      <use x="1285.859375" xlink:href="#DejaVuSans-108"/>
     </g>
    </g>
   </g>
  </g>
 </g>
 <defs>
  <clipPath id="p4a33073138">
   <rect height="217.44" width="334.8" x="54" y="34.56"/>
  </clipPath>
 </defs>
</svg>
