<?xml version="1.0" encoding="utf-8" standalone="no"?>
<!DOCTYPE svg PUBLIC "-//W3C//DTD SVG 1.1//EN"
  "http://www.w3.org/Graphics/SVG/1.1/DTD/svg11.dtd">
<!-- Created with matplotlib (https://matplotlib.org/) -->
<svg height="288pt" version="1.1" viewBox="0 0 432 288" width="432pt" xmlns="http://www.w3.org/2000/svg" xmlns:xlink="http://www.w3.org/1999/xlink">
 <defs>
  <style type="text/css">
*{stroke-linecap:butt;stroke-linejoin:round;}
  </style>
 </defs>
 <g id="figure_1">
  <g id="patch_1">
   <path d="M 0 288 
L 432 288 
L 432 0 
L 0 0 
z
" style="fill:#ffffff;"/>
  </g>
  <g id="axes_1">
   <g id="patch_2">
    <path d="M 54 252 
L 388.8 252 
L 388.8 34.56 
L 54 34.56 
z
" style="fill:#ffffff;"/>
   </g>
   <g id="matplotlib.axis_1">
    <g id="xtick_1">
     <g id="line2d_1">
      <defs>
       <path d="M 0 0 
L 0 3.5 
" id="m5778cfd75a" style="stroke:#000000;stroke-width:0.8;"/>
      </defs>
      <g>
       <use style="stroke:#000000;stroke-width:0.8;" x="69.218182" xlink:href="#m5778cfd75a" y="252"/>
      </g>
     </g>
     <g id="text_1">
      <!-- 0 -->
      <defs>
       <path d="M 31.78125 66.40625 
Q 24.171875 66.40625 20.328125 58.90625 
Q 16.5 51.421875 16.5 36.375 
Q 16.5 21.390625 20.328125 13.890625 
Q 24.171875 6.390625 31.78125 6.390625 
Q 39.453125 6.390625 43.28125 13.890625 
Q 47.125 21.390625 47.125 36.375 
Q 47.125 51.421875 43.28125 58.90625 
Q 39.453125 66.40625 31.78125 66.40625 
z
M 31.78125 74.21875 
Q 44.046875 74.21875 50.515625 64.515625 
Q 56.984375 54.828125 56.984375 36.375 
Q 56.984375 17.96875 50.515625 8.265625 
Q 44.046875 -1.421875 31.78125 -1.421875 
Q 19.53125 -1.421875 13.0625 8.265625 
Q 6.59375 17.96875 6.59375 36.375 
Q 6.59375 54.828125 13.0625 64.515625 
Q 19.53125 74.21875 31.78125 74.21875 
z
" id="DejaVuSans-48"/>
      </defs>
      <g transform="translate(66.036932 266.598437)scale(0.1 -0.1)">
       <use xlink:href="#DejaVuSans-48"/>
      </g>
     </g>
    </g>
    <g id="xtick_2">
     <g id="line2d_2">
      <g>
       <use style="stroke:#000000;stroke-width:0.8;" x="130.151843" xlink:href="#m5778cfd75a" y="252"/>
      </g>
     </g>
     <g id="text_2">
      <!-- 200 -->
      <defs>
       <path d="M 19.1875 8.296875 
L 53.609375 8.296875 
L 53.609375 0 
L 7.328125 0 
L 7.328125 8.296875 
Q 12.9375 14.109375 22.625 23.890625 
Q 32.328125 33.6875 34.8125 36.53125 
Q 39.546875 41.84375 41.421875 45.53125 
Q 43.3125 49.21875 43.3125 52.78125 
Q 43.3125 58.59375 39.234375 62.25 
Q 35.15625 65.921875 28.609375 65.921875 
Q 23.96875 65.921875 18.8125 64.3125 
Q 13.671875 62.703125 7.8125 59.421875 
L 7.8125 69.390625 
Q 13.765625 71.78125 18.9375 73 
Q 24.125 74.21875 28.421875 74.21875 
Q 39.75 74.21875 46.484375 68.546875 
Q 53.21875 62.890625 53.21875 53.421875 
Q 53.21875 48.921875 51.53125 44.890625 
Q 49.859375 40.875 45.40625 35.40625 
Q 44.1875 33.984375 37.640625 27.21875 
Q 31.109375 20.453125 19.1875 8.296875 
z
" id="DejaVuSans-50"/>
      </defs>
      <g transform="translate(120.608093 266.598437)scale(0.1 -0.1)">
       <use xlink:href="#DejaVuSans-50"/>
       <use x="63.623047" xlink:href="#DejaVuSans-48"/>
       <use x="127.246094" xlink:href="#DejaVuSans-48"/>
      </g>
     </g>
    </g>
    <g id="xtick_3">
     <g id="line2d_3">
      <g>
       <use style="stroke:#000000;stroke-width:0.8;" x="191.085504" xlink:href="#m5778cfd75a" y="252"/>
      </g>
     </g>
     <g id="text_3">
      <!-- 400 -->
      <defs>
       <path d="M 37.796875 64.3125 
L 12.890625 25.390625 
L 37.796875 25.390625 
z
M 35.203125 72.90625 
L 47.609375 72.90625 
L 47.609375 25.390625 
L 58.015625 25.390625 
L 58.015625 17.1875 
L 47.609375 17.1875 
L 47.609375 0 
L 37.796875 0 
L 37.796875 17.1875 
L 4.890625 17.1875 
L 4.890625 26.703125 
z
" id="DejaVuSans-52"/>
      </defs>
      <g transform="translate(181.541754 266.598437)scale(0.1 -0.1)">
       <use xlink:href="#DejaVuSans-52"/>
       <use x="63.623047" xlink:href="#DejaVuSans-48"/>
       <use x="127.246094" xlink:href="#DejaVuSans-48"/>
      </g>
     </g>
    </g>
    <g id="xtick_4">
     <g id="line2d_4">
      <g>
       <use style="stroke:#000000;stroke-width:0.8;" x="252.019165" xlink:href="#m5778cfd75a" y="252"/>
      </g>
     </g>
     <g id="text_4">
      <!-- 600 -->
      <defs>
       <path d="M 33.015625 40.375 
Q 26.375 40.375 22.484375 35.828125 
Q 18.609375 31.296875 18.609375 23.390625 
Q 18.609375 15.53125 22.484375 10.953125 
Q 26.375 6.390625 33.015625 6.390625 
Q 39.65625 6.390625 43.53125 10.953125 
Q 47.40625 15.53125 47.40625 23.390625 
Q 47.40625 31.296875 43.53125 35.828125 
Q 39.65625 40.375 33.015625 40.375 
z
M 52.59375 71.296875 
L 52.59375 62.3125 
Q 48.875 64.0625 45.09375 64.984375 
Q 41.3125 65.921875 37.59375 65.921875 
Q 27.828125 65.921875 22.671875 59.328125 
Q 17.53125 52.734375 16.796875 39.40625 
Q 19.671875 43.65625 24.015625 45.921875 
Q 28.375 48.1875 33.59375 48.1875 
Q 44.578125 48.1875 50.953125 41.515625 
Q 57.328125 34.859375 57.328125 23.390625 
Q 57.328125 12.15625 50.6875 5.359375 
Q 44.046875 -1.421875 33.015625 -1.421875 
Q 20.359375 -1.421875 13.671875 8.265625 
Q 6.984375 17.96875 6.984375 36.375 
Q 6.984375 53.65625 15.1875 63.9375 
Q 23.390625 74.21875 37.203125 74.21875 
Q 40.921875 74.21875 44.703125 73.484375 
Q 48.484375 72.75 52.59375 71.296875 
z
" id="DejaVuSans-54"/>
      </defs>
      <g transform="translate(242.475415 266.598437)scale(0.1 -0.1)">
       <use xlink:href="#DejaVuSans-54"/>
       <use x="63.623047" xlink:href="#DejaVuSans-48"/>
       <use x="127.246094" xlink:href="#DejaVuSans-48"/>
      </g>
     </g>
    </g>
    <g id="xtick_5">
     <g id="line2d_5">
      <g>
       <use style="stroke:#000000;stroke-width:0.8;" x="312.952826" xlink:href="#m5778cfd75a" y="252"/>
      </g>
     </g>
     <g id="text_5">
      <!-- 800 -->
      <defs>
       <path d="M 31.78125 34.625 
Q 24.75 34.625 20.71875 30.859375 
Q 16.703125 27.09375 16.703125 20.515625 
Q 16.703125 13.921875 20.71875 10.15625 
Q 24.75 6.390625 31.78125 6.390625 
Q 38.8125 6.390625 42.859375 10.171875 
Q 46.921875 13.96875 46.921875 20.515625 
Q 46.921875 27.09375 42.890625 30.859375 
Q 38.875 34.625 31.78125 34.625 
z
M 21.921875 38.8125 
Q 15.578125 40.375 12.03125 44.71875 
Q 8.5 49.078125 8.5 55.328125 
Q 8.5 64.0625 14.71875 69.140625 
Q 20.953125 74.21875 31.78125 74.21875 
Q 42.671875 74.21875 48.875 69.140625 
Q 55.078125 64.0625 55.078125 55.328125 
Q 55.078125 49.078125 51.53125 44.71875 
Q 48 40.375 41.703125 38.8125 
Q 48.828125 37.15625 52.796875 32.3125 
Q 56.78125 27.484375 56.78125 20.515625 
Q 56.78125 9.90625 50.3125 4.234375 
Q 43.84375 -1.421875 31.78125 -1.421875 
Q 19.734375 -1.421875 13.25 4.234375 
Q 6.78125 9.90625 6.78125 20.515625 
Q 6.78125 27.484375 10.78125 32.3125 
Q 14.796875 37.15625 21.921875 38.8125 
z
M 18.3125 54.390625 
Q 18.3125 48.734375 21.84375 45.5625 
Q 25.390625 42.390625 31.78125 42.390625 
Q 38.140625 42.390625 41.71875 45.5625 
Q 45.3125 48.734375 45.3125 54.390625 
Q 45.3125 60.0625 41.71875 63.234375 
Q 38.140625 66.40625 31.78125 66.40625 
Q 25.390625 66.40625 21.84375 63.234375 
Q 18.3125 60.0625 18.3125 54.390625 
z
" id="DejaVuSans-56"/>
      </defs>
      <g transform="translate(303.409076 266.598437)scale(0.1 -0.1)">
       <use xlink:href="#DejaVuSans-56"/>
       <use x="63.623047" xlink:href="#DejaVuSans-48"/>
       <use x="127.246094" xlink:href="#DejaVuSans-48"/>
      </g>
     </g>
    </g>
    <g id="xtick_6">
     <g id="line2d_6">
      <g>
       <use style="stroke:#000000;stroke-width:0.8;" x="373.886486" xlink:href="#m5778cfd75a" y="252"/>
      </g>
     </g>
     <g id="text_6">
      <!-- 1000 -->
      <defs>
       <path d="M 12.40625 8.296875 
L 28.515625 8.296875 
L 28.515625 63.921875 
L 10.984375 60.40625 
L 10.984375 69.390625 
L 28.421875 72.90625 
L 38.28125 72.90625 
L 38.28125 8.296875 
L 54.390625 8.296875 
L 54.390625 0 
L 12.40625 0 
z
" id="DejaVuSans-49"/>
      </defs>
      <g transform="translate(361.161486 266.598437)scale(0.1 -0.1)">
       <use xlink:href="#DejaVuSans-49"/>
       <use x="63.623047" xlink:href="#DejaVuSans-48"/>
       <use x="127.246094" xlink:href="#DejaVuSans-48"/>
       <use x="190.869141" xlink:href="#DejaVuSans-48"/>
      </g>
     </g>
    </g>
    <g id="text_7">
     <!-- Epochs -->
     <defs>
      <path d="M 9.8125 72.90625 
L 55.90625 72.90625 
L 55.90625 64.59375 
L 19.671875 64.59375 
L 19.671875 43.015625 
L 54.390625 43.015625 
L 54.390625 34.71875 
L 19.671875 34.71875 
L 19.671875 8.296875 
L 56.78125 8.296875 
L 56.78125 0 
L 9.8125 0 
z
" id="DejaVuSans-69"/>
      <path d="M 18.109375 8.203125 
L 18.109375 -20.796875 
L 9.078125 -20.796875 
L 9.078125 54.6875 
L 18.109375 54.6875 
L 18.109375 46.390625 
Q 20.953125 51.265625 25.265625 53.625 
Q 29.59375 56 35.59375 56 
Q 45.5625 56 51.78125 48.09375 
Q 58.015625 40.1875 58.015625 27.296875 
Q 58.015625 14.40625 51.78125 6.484375 
Q 45.5625 -1.421875 35.59375 -1.421875 
Q 29.59375 -1.421875 25.265625 0.953125 
Q 20.953125 3.328125 18.109375 8.203125 
z
M 48.6875 27.296875 
Q 48.6875 37.203125 44.609375 42.84375 
Q 40.53125 48.484375 33.40625 48.484375 
Q 26.265625 48.484375 22.1875 42.84375 
Q 18.109375 37.203125 18.109375 27.296875 
Q 18.109375 17.390625 22.1875 11.75 
Q 26.265625 6.109375 33.40625 6.109375 
Q 40.53125 6.109375 44.609375 11.75 
Q 48.6875 17.390625 48.6875 27.296875 
z
" id="DejaVuSans-112"/>
      <path d="M 30.609375 48.390625 
Q 23.390625 48.390625 19.1875 42.75 
Q 14.984375 37.109375 14.984375 27.296875 
Q 14.984375 17.484375 19.15625 11.84375 
Q 23.34375 6.203125 30.609375 6.203125 
Q 37.796875 6.203125 41.984375 11.859375 
Q 46.1875 17.53125 46.1875 27.296875 
Q 46.1875 37.015625 41.984375 42.703125 
Q 37.796875 48.390625 30.609375 48.390625 
z
M 30.609375 56 
Q 42.328125 56 49.015625 48.375 
Q 55.71875 40.765625 55.71875 27.296875 
Q 55.71875 13.875 49.015625 6.21875 
Q 42.328125 -1.421875 30.609375 -1.421875 
Q 18.84375 -1.421875 12.171875 6.21875 
Q 5.515625 13.875 5.515625 27.296875 
Q 5.515625 40.765625 12.171875 48.375 
Q 18.84375 56 30.609375 56 
z
" id="DejaVuSans-111"/>
      <path d="M 48.78125 52.59375 
L 48.78125 44.1875 
Q 44.96875 46.296875 41.140625 47.34375 
Q 37.3125 48.390625 33.40625 48.390625 
Q 24.65625 48.390625 19.8125 42.84375 
Q 14.984375 37.3125 14.984375 27.296875 
Q 14.984375 17.28125 19.8125 11.734375 
Q 24.65625 6.203125 33.40625 6.203125 
Q 37.3125 6.203125 41.140625 7.25 
Q 44.96875 8.296875 48.78125 10.40625 
L 48.78125 2.09375 
Q 45.015625 0.34375 40.984375 -0.53125 
Q 36.96875 -1.421875 32.421875 -1.421875 
Q 20.0625 -1.421875 12.78125 6.34375 
Q 5.515625 14.109375 5.515625 27.296875 
Q 5.515625 40.671875 12.859375 48.328125 
Q 20.21875 56 33.015625 56 
Q 37.15625 56 41.109375 55.140625 
Q 45.0625 54.296875 48.78125 52.59375 
z
" id="DejaVuSans-99"/>
      <path d="M 54.890625 33.015625 
L 54.890625 0 
L 45.90625 0 
L 45.90625 32.71875 
Q 45.90625 40.484375 42.875 44.328125 
Q 39.84375 48.1875 33.796875 48.1875 
Q 26.515625 48.1875 22.3125 43.546875 
Q 18.109375 38.921875 18.109375 30.90625 
L 18.109375 0 
L 9.078125 0 
L 9.078125 75.984375 
L 18.109375 75.984375 
L 18.109375 46.1875 
Q 21.34375 51.125 25.703125 53.5625 
Q 30.078125 56 35.796875 56 
Q 45.21875 56 50.046875 50.171875 
Q 54.890625 44.34375 54.890625 33.015625 
z
" id="DejaVuSans-104"/>
      <path d="M 44.28125 53.078125 
L 44.28125 44.578125 
Q 40.484375 46.53125 36.375 47.5 
Q 32.28125 48.484375 27.875 48.484375 
Q 21.1875 48.484375 17.84375 46.4375 
Q 14.5 44.390625 14.5 40.28125 
Q 14.5 37.15625 16.890625 35.375 
Q 19.28125 33.59375 26.515625 31.984375 
L 29.59375 31.296875 
Q 39.15625 29.25 43.1875 25.515625 
Q 47.21875 21.78125 47.21875 15.09375 
Q 47.21875 7.46875 41.1875 3.015625 
Q 35.15625 -1.421875 24.609375 -1.421875 
Q 20.21875 -1.421875 15.453125 -0.5625 
Q 10.6875 0.296875 5.421875 2 
L 5.421875 11.28125 
Q 10.40625 8.6875 15.234375 7.390625 
Q 20.0625 6.109375 24.8125 6.109375 
Q 31.15625 6.109375 34.5625 8.28125 
Q 37.984375 10.453125 37.984375 14.40625 
Q 37.984375 18.0625 35.515625 20.015625 
Q 33.0625 21.96875 24.703125 23.78125 
L 21.578125 24.515625 
Q 13.234375 26.265625 9.515625 29.90625 
Q 5.8125 33.546875 5.8125 39.890625 
Q 5.8125 47.609375 11.28125 51.796875 
Q 16.75 56 26.8125 56 
Q 31.78125 56 36.171875 55.265625 
Q 40.578125 54.546875 44.28125 53.078125 
z
" id="DejaVuSans-115"/>
     </defs>
     <g transform="translate(203.484375 280.276563)scale(0.1 -0.1)">
      <use xlink:href="#DejaVuSans-69"/>
      <use x="63.183594" xlink:href="#DejaVuSans-112"/>
      <use x="126.660156" xlink:href="#DejaVuSans-111"/>
      <use x="187.841797" xlink:href="#DejaVuSans-99"/>
      <use x="242.822266" xlink:href="#DejaVuSans-104"/>
      <use x="306.201172" xlink:href="#DejaVuSans-115"/>
     </g>
    </g>
   </g>
   <g id="matplotlib.axis_2">
    <g id="ytick_1">
     <g id="line2d_7">
      <defs>
       <path d="M 0 0 
L -3.5 0 
" id="me5fe27baad" style="stroke:#000000;stroke-width:0.8;"/>
      </defs>
      <g>
       <use style="stroke:#000000;stroke-width:0.8;" x="54" xlink:href="#me5fe27baad" y="223.651913"/>
      </g>
     </g>
     <g id="text_8">
      <!-- 10 -->
      <g transform="translate(34.275 227.451131)scale(0.1 -0.1)">
       <use xlink:href="#DejaVuSans-49"/>
       <use x="63.623047" xlink:href="#DejaVuSans-48"/>
      </g>
     </g>
    </g>
    <g id="ytick_2">
     <g id="line2d_8">
      <g>
       <use style="stroke:#000000;stroke-width:0.8;" x="54" xlink:href="#me5fe27baad" y="193.658896"/>
      </g>
     </g>
     <g id="text_9">
      <!-- 20 -->
      <g transform="translate(34.275 197.458114)scale(0.1 -0.1)">
       <use xlink:href="#DejaVuSans-50"/>
       <use x="63.623047" xlink:href="#DejaVuSans-48"/>
      </g>
     </g>
    </g>
    <g id="ytick_3">
     <g id="line2d_9">
      <g>
       <use style="stroke:#000000;stroke-width:0.8;" x="54" xlink:href="#me5fe27baad" y="163.665879"/>
      </g>
     </g>
     <g id="text_10">
      <!-- 30 -->
      <defs>
       <path d="M 40.578125 39.3125 
Q 47.65625 37.796875 51.625 33 
Q 55.609375 28.21875 55.609375 21.1875 
Q 55.609375 10.40625 48.1875 4.484375 
Q 40.765625 -1.421875 27.09375 -1.421875 
Q 22.515625 -1.421875 17.65625 -0.515625 
Q 12.796875 0.390625 7.625 2.203125 
L 7.625 11.71875 
Q 11.71875 9.328125 16.59375 8.109375 
Q 21.484375 6.890625 26.8125 6.890625 
Q 36.078125 6.890625 40.9375 10.546875 
Q 45.796875 14.203125 45.796875 21.1875 
Q 45.796875 27.640625 41.28125 31.265625 
Q 36.765625 34.90625 28.71875 34.90625 
L 20.21875 34.90625 
L 20.21875 43.015625 
L 29.109375 43.015625 
Q 36.375 43.015625 40.234375 45.921875 
Q 44.09375 48.828125 44.09375 54.296875 
Q 44.09375 59.90625 40.109375 62.90625 
Q 36.140625 65.921875 28.71875 65.921875 
Q 24.65625 65.921875 20.015625 65.03125 
Q 15.375 64.15625 9.8125 62.3125 
L 9.8125 71.09375 
Q 15.4375 72.65625 20.34375 73.4375 
Q 25.25 74.21875 29.59375 74.21875 
Q 40.828125 74.21875 47.359375 69.109375 
Q 53.90625 64.015625 53.90625 55.328125 
Q 53.90625 49.265625 50.4375 45.09375 
Q 46.96875 40.921875 40.578125 39.3125 
z
" id="DejaVuSans-51"/>
      </defs>
      <g transform="translate(34.275 167.465097)scale(0.1 -0.1)">
       <use xlink:href="#DejaVuSans-51"/>
       <use x="63.623047" xlink:href="#DejaVuSans-48"/>
      </g>
     </g>
    </g>
    <g id="ytick_4">
     <g id="line2d_10">
      <g>
       <use style="stroke:#000000;stroke-width:0.8;" x="54" xlink:href="#me5fe27baad" y="133.672862"/>
      </g>
     </g>
     <g id="text_11">
      <!-- 40 -->
      <g transform="translate(34.275 137.472081)scale(0.1 -0.1)">
       <use xlink:href="#DejaVuSans-52"/>
       <use x="63.623047" xlink:href="#DejaVuSans-48"/>
      </g>
     </g>
    </g>
    <g id="ytick_5">
     <g id="line2d_11">
      <g>
       <use style="stroke:#000000;stroke-width:0.8;" x="54" xlink:href="#me5fe27baad" y="103.679845"/>
      </g>
     </g>
     <g id="text_12">
      <!-- 50 -->
      <defs>
       <path d="M 10.796875 72.90625 
L 49.515625 72.90625 
L 49.515625 64.59375 
L 19.828125 64.59375 
L 19.828125 46.734375 
Q 21.96875 47.46875 24.109375 47.828125 
Q 26.265625 48.1875 28.421875 48.1875 
Q 40.625 48.1875 47.75 41.5 
Q 54.890625 34.8125 54.890625 23.390625 
Q 54.890625 11.625 47.5625 5.09375 
Q 40.234375 -1.421875 26.90625 -1.421875 
Q 22.3125 -1.421875 17.546875 -0.640625 
Q 12.796875 0.140625 7.71875 1.703125 
L 7.71875 11.625 
Q 12.109375 9.234375 16.796875 8.0625 
Q 21.484375 6.890625 26.703125 6.890625 
Q 35.15625 6.890625 40.078125 11.328125 
Q 45.015625 15.765625 45.015625 23.390625 
Q 45.015625 31 40.078125 35.4375 
Q 35.15625 39.890625 26.703125 39.890625 
Q 22.75 39.890625 18.8125 39.015625 
Q 14.890625 38.140625 10.796875 36.28125 
z
" id="DejaVuSans-53"/>
      </defs>
      <g transform="translate(34.275 107.479064)scale(0.1 -0.1)">
       <use xlink:href="#DejaVuSans-53"/>
       <use x="63.623047" xlink:href="#DejaVuSans-48"/>
      </g>
     </g>
    </g>
    <g id="ytick_6">
     <g id="line2d_12">
      <g>
       <use style="stroke:#000000;stroke-width:0.8;" x="54" xlink:href="#me5fe27baad" y="73.686828"/>
      </g>
     </g>
     <g id="text_13">
      <!-- 60 -->
      <g transform="translate(34.275 77.486047)scale(0.1 -0.1)">
       <use xlink:href="#DejaVuSans-54"/>
       <use x="63.623047" xlink:href="#DejaVuSans-48"/>
      </g>
     </g>
    </g>
    <g id="ytick_7">
     <g id="line2d_13">
      <g>
       <use style="stroke:#000000;stroke-width:0.8;" x="54" xlink:href="#me5fe27baad" y="43.693811"/>
      </g>
     </g>
     <g id="text_14">
      <!-- 70 -->
      <defs>
       <path d="M 8.203125 72.90625 
L 55.078125 72.90625 
L 55.078125 68.703125 
L 28.609375 0 
L 18.3125 0 
L 43.21875 64.59375 
L 8.203125 64.59375 
z
" id="DejaVuSans-55"/>
      </defs>
      <g transform="translate(34.275 47.49303)scale(0.1 -0.1)">
       <use xlink:href="#DejaVuSans-55"/>
       <use x="63.623047" xlink:href="#DejaVuSans-48"/>
      </g>
     </g>
    </g>
    <g id="text_15">
     <!-- Loss -->
     <defs>
      <path d="M 9.8125 72.90625 
L 19.671875 72.90625 
L 19.671875 8.296875 
L 55.171875 8.296875 
L 55.171875 0 
L 9.8125 0 
z
" id="DejaVuSans-76"/>
     </defs>
     <g transform="translate(28.195312 154.333906)rotate(-90)scale(0.1 -0.1)">
      <use xlink:href="#DejaVuSans-76"/>
      <use x="55.697266" xlink:href="#DejaVuSans-111"/>
      <use x="116.878906" xlink:href="#DejaVuSans-115"/>
      <use x="168.978516" xlink:href="#DejaVuSans-115"/>
     </g>
    </g>
    <g id="text_16">
     <!-- +3.453e5 -->
     <defs>
      <path d="M 46 62.703125 
L 46 35.5 
L 73.1875 35.5 
L 73.1875 27.203125 
L 46 27.203125 
L 46 0 
L 37.796875 0 
L 37.796875 27.203125 
L 10.59375 27.203125 
L 10.59375 35.5 
L 37.796875 35.5 
L 37.796875 62.703125 
z
" id="DejaVuSans-43"/>
      <path d="M 10.6875 12.40625 
L 21 12.40625 
L 21 0 
L 10.6875 0 
z
" id="DejaVuSans-46"/>
      <path d="M 56.203125 29.59375 
L 56.203125 25.203125 
L 14.890625 25.203125 
Q 15.484375 15.921875 20.484375 11.0625 
Q 25.484375 6.203125 34.421875 6.203125 
Q 39.59375 6.203125 44.453125 7.46875 
Q 49.3125 8.734375 54.109375 11.28125 
L 54.109375 2.78125 
Q 49.265625 0.734375 44.1875 -0.34375 
Q 39.109375 -1.421875 33.890625 -1.421875 
Q 20.796875 -1.421875 13.15625 6.1875 
Q 5.515625 13.8125 5.515625 26.8125 
Q 5.515625 40.234375 12.765625 48.109375 
Q 20.015625 56 32.328125 56 
Q 43.359375 56 49.78125 48.890625 
Q 56.203125 41.796875 56.203125 29.59375 
z
M 47.21875 32.234375 
Q 47.125 39.59375 43.09375 43.984375 
Q 39.0625 48.390625 32.421875 48.390625 
Q 24.90625 48.390625 20.390625 44.140625 
Q 15.875 39.890625 15.1875 32.171875 
z
" id="DejaVuSans-101"/>
     </defs>
     <g transform="translate(54 31.56)scale(0.1 -0.1)">
      <use xlink:href="#DejaVuSans-43"/>
      <use x="83.789062" xlink:href="#DejaVuSans-51"/>
      <use x="147.412109" xlink:href="#DejaVuSans-46"/>
      <use x="179.199219" xlink:href="#DejaVuSans-52"/>
      <use x="242.822266" xlink:href="#DejaVuSans-53"/>
      <use x="306.445312" xlink:href="#DejaVuSans-51"/>
      <use x="370.068359" xlink:href="#DejaVuSans-101"/>
      <use x="431.591797" xlink:href="#DejaVuSans-53"/>
     </g>
    </g>
   </g>
   <g id="line2d_14">
    <path clip-path="url(#pacc03f6c64)" d="M 69.218182 44.443636 
L 70.436855 72.468362 
L 72.264865 107.897613 
L 74.092875 128.330356 
L 75.920885 145.57634 
L 78.053563 166.102811 
L 84.146929 226.838671 
L 85.060934 232.181177 
L 85.67027 234.711838 
L 86.279607 236.024032 
L 86.888943 237.055042 
L 87.193612 237.429955 
L 88.107617 238.929606 
L 89.630958 240.335528 
L 90.240295 240.2418 
L 92.068305 240.2418 
L 92.372973 240.429256 
L 92.98231 240.335528 
L 93.591646 240.429256 
L 94.200983 240.148072 
L 95.114988 240.710441 
L 95.419656 240.335528 
L 95.724324 240.522985 
L 96.638329 240.2418 
L 96.942998 240.522985 
L 97.247666 240.335528 
L 97.857002 240.616713 
L 98.466339 240.335528 
L 98.771007 240.710441 
L 99.380344 240.616713 
L 99.685012 240.616713 
L 99.989681 240.429256 
L 100.599017 240.522985 
L 100.903686 240.429256 
L 101.81769 240.710441 
L 102.122359 240.522985 
L 103.036364 240.804169 
L 103.950369 240.616713 
L 104.864373 240.710441 
L 105.169042 240.897897 
L 105.778378 240.616713 
L 106.387715 240.616713 
L 106.692383 240.804169 
L 106.997052 240.710441 
L 107.30172 240.804169 
L 107.911057 240.522985 
L 108.215725 240.897897 
L 108.520393 240.710441 
L 109.739066 240.804169 
L 110.043735 240.897897 
L 110.653071 240.804169 
L 110.95774 240.804169 
L 111.262408 240.991626 
L 111.567076 240.804169 
L 111.871744 241.085354 
L 112.481081 240.804169 
L 112.785749 240.991626 
L 113.395086 240.804169 
L 113.699754 240.897897 
L 114.004423 241.179082 
L 114.918428 240.991626 
L 115.223096 241.085354 
L 115.832432 240.991626 
L 116.441769 241.085354 
L 118.269779 240.991626 
L 118.574447 240.804169 
L 119.183784 241.085354 
L 119.488452 240.991626 
L 119.79312 241.179082 
L 120.097789 240.897897 
L 121.011794 241.085354 
L 121.316462 240.991626 
L 121.62113 241.085354 
L 121.925799 240.991626 
L 122.230467 241.27281 
L 122.535135 241.085354 
L 125.581818 241.085354 
L 125.886486 241.27281 
L 126.800491 241.085354 
L 127.409828 241.085354 
L 127.714496 241.27281 
L 128.93317 241.27281 
L 129.237838 241.085354 
L 129.542506 241.27281 
L 129.847174 241.27281 
L 130.151843 240.991626 
L 130.456511 241.27281 
L 131.065848 241.179082 
L 131.370516 241.085354 
L 131.979853 241.179082 
L 133.198526 241.27281 
L 133.503194 240.991626 
L 133.807862 241.27281 
L 136.245209 241.27281 
L 136.549877 241.085354 
L 137.159214 241.27281 
L 137.463882 241.179082 
L 138.073219 241.27281 
L 142.338575 241.366538 
L 142.643243 241.460266 
L 142.947912 241.27281 
L 146.603931 241.366538 
L 146.9086 241.553995 
L 147.213268 241.366538 
L 149.345946 241.27281 
L 149.650614 241.553995 
L 150.259951 241.27281 
L 150.564619 241.460266 
L 150.869287 241.27281 
L 152.697297 241.27281 
L 153.001966 241.553995 
L 153.306634 241.27281 
L 153.915971 241.366538 
L 154.525307 241.27281 
L 155.134644 241.366538 
L 155.439312 241.460266 
L 156.048649 241.366538 
L 156.353317 241.460266 
L 156.657985 241.366538 
L 156.962654 241.460266 
L 157.267322 241.27281 
L 157.57199 241.460266 
L 158.181327 241.366538 
L 159.095332 241.647723 
L 159.4 241.27281 
L 160.009337 241.553995 
L 160.314005 241.366538 
L 160.618673 241.553995 
L 161.22801 241.27281 
L 161.837346 241.647723 
L 162.142015 241.366538 
L 162.446683 241.460266 
L 163.05602 241.366538 
L 163.360688 241.553995 
L 164.274693 241.553995 
L 164.579361 241.27281 
L 164.884029 241.553995 
L 165.493366 241.460266 
L 165.798034 241.553995 
L 166.102703 241.460266 
L 166.407371 241.553995 
L 166.712039 241.460266 
L 167.321376 241.553995 
L 167.626044 241.366538 
L 167.930713 241.366538 
L 168.235381 241.553995 
L 168.540049 241.366538 
L 168.844717 241.647723 
L 169.758722 241.366538 
L 170.063391 241.460266 
L 170.368059 241.366538 
L 171.282064 241.553995 
L 171.586732 241.366538 
L 171.8914 241.553995 
L 172.196069 241.366538 
L 172.805405 241.647723 
L 173.110074 241.460266 
L 173.414742 241.553995 
L 173.71941 241.27281 
L 174.024079 241.647723 
L 174.938084 241.460266 
L 175.54742 241.553995 
L 175.852088 241.460266 
L 176.766093 241.741451 
L 177.070762 241.460266 
L 177.37543 241.460266 
L 177.680098 241.741451 
L 177.984767 241.460266 
L 178.289435 241.741451 
L 178.594103 241.460266 
L 178.898771 241.647723 
L 179.20344 241.553995 
L 179.508108 241.647723 
L 179.812776 241.460266 
L 180.422113 241.647723 
L 180.726781 241.366538 
L 181.03145 241.553995 
L 181.336118 241.366538 
L 181.640786 241.553995 
L 188.648157 241.460266 
L 188.952826 241.741451 
L 189.257494 241.460266 
L 189.562162 241.553995 
L 190.171499 241.27281 
L 190.476167 241.647723 
L 190.780835 241.460266 
L 192.304177 241.553995 
L 192.608845 241.835179 
L 192.913514 241.553995 
L 193.218182 241.647723 
L 193.52285 241.553995 
L 193.827518 241.741451 
L 194.436855 241.647723 
L 194.741523 241.647723 
L 195.046192 241.460266 
L 195.35086 241.553995 
L 195.655528 241.366538 
L 195.960197 241.647723 
L 196.569533 241.460266 
L 196.874201 241.741451 
L 197.17887 241.741451 
L 197.483538 241.366538 
L 198.397543 241.553995 
L 200.530221 241.460266 
L 200.834889 241.741451 
L 201.139558 241.366538 
L 201.444226 241.647723 
L 202.358231 241.647723 
L 202.662899 241.460266 
L 203.272236 241.553995 
L 203.576904 241.460266 
L 203.881572 241.553995 
L 204.186241 241.460266 
L 204.490909 241.553995 
L 204.795577 241.460266 
L 205.100246 241.647723 
L 205.404914 241.460266 
L 205.709582 241.741451 
L 206.014251 241.553995 
L 206.623587 241.647723 
L 206.928256 241.366538 
L 207.232924 241.647723 
L 207.537592 241.647723 
L 207.84226 241.460266 
L 208.146929 241.460266 
L 208.451597 241.741451 
L 209.060934 241.553995 
L 209.365602 241.647723 
L 209.974939 241.460266 
L 210.279607 241.647723 
L 210.584275 241.553995 
L 211.49828 241.741451 
L 211.802948 241.553995 
L 212.107617 241.835179 
L 212.716953 241.460266 
L 213.630958 241.553995 
L 214.544963 241.741451 
L 214.849631 241.553995 
L 215.1543 241.553995 
L 215.458968 241.741451 
L 216.372973 241.553995 
L 216.677641 241.741451 
L 217.286978 241.553995 
L 217.896314 241.647723 
L 218.505651 241.741451 
L 218.810319 241.460266 
L 219.114988 241.647723 
L 219.724324 241.553995 
L 220.028993 241.741451 
L 220.942998 241.553995 
L 222.466339 241.553995 
L 222.771007 241.741451 
L 223.075676 241.741451 
L 223.380344 241.553995 
L 223.685012 241.741451 
L 224.599017 241.553995 
L 224.903686 241.741451 
L 225.513022 241.460266 
L 225.81769 241.741451 
L 226.122359 241.741451 
L 226.731695 241.460266 
L 227.341032 241.553995 
L 227.950369 241.835179 
L 228.559705 241.553995 
L 228.864373 241.741451 
L 229.169042 241.553995 
L 229.778378 241.741451 
L 230.083047 241.647723 
L 230.387715 241.741451 
L 230.692383 241.553995 
L 231.30172 241.647723 
L 231.911057 241.553995 
L 232.215725 241.647723 
L 232.825061 241.553995 
L 233.434398 241.647723 
L 233.739066 241.460266 
L 234.043735 241.741451 
L 234.348403 241.647723 
L 234.653071 241.835179 
L 234.95774 241.553995 
L 235.262408 241.647723 
L 235.871744 241.553995 
L 236.176413 241.741451 
L 236.481081 241.647723 
L 236.785749 241.835179 
L 237.699754 241.553995 
L 238.004423 241.928907 
L 238.613759 241.647723 
L 244.707125 241.647723 
L 245.011794 241.835179 
L 245.925799 241.647723 
L 246.839803 241.647723 
L 247.144472 241.835179 
L 247.44914 241.553995 
L 248.058477 241.647723 
L 248.972482 241.647723 
L 249.27715 241.835179 
L 249.581818 241.366538 
L 249.886486 241.647723 
L 250.800491 241.741451 
L 251.10516 241.460266 
L 251.409828 241.835179 
L 251.714496 241.741451 
L 252.019165 241.835179 
L 252.323833 241.647723 
L 252.93317 241.741451 
L 253.542506 241.835179 
L 253.847174 241.553995 
L 254.151843 241.553995 
L 254.456511 241.835179 
L 255.370516 241.647723 
L 255.675184 241.741451 
L 256.284521 241.647723 
L 256.589189 241.741451 
L 257.503194 241.553995 
L 257.807862 241.741451 
L 258.112531 241.647723 
L 258.721867 241.741451 
L 259.026536 241.647723 
L 259.331204 241.741451 
L 259.635872 241.647723 
L 260.245209 241.928907 
L 260.854545 241.647723 
L 261.159214 241.647723 
L 261.463882 241.928907 
L 261.76855 241.647723 
L 262.377887 241.741451 
L 262.682555 241.647723 
L 262.987224 241.835179 
L 263.291892 241.835179 
L 263.59656 241.647723 
L 263.901229 241.647723 
L 264.205897 241.928907 
L 264.815233 241.647723 
L 265.119902 241.835179 
L 265.42457 241.553995 
L 265.729238 241.835179 
L 266.338575 241.741451 
L 266.643243 241.553995 
L 266.947912 241.741451 
L 267.557248 241.647723 
L 268.166585 241.741451 
L 268.775921 241.647723 
L 269.689926 241.741451 
L 269.994595 241.835179 
L 270.603931 241.741451 
L 270.9086 241.835179 
L 271.213268 241.741451 
L 271.822604 241.835179 
L 272.127273 241.647723 
L 272.431941 241.647723 
L 272.736609 241.835179 
L 273.041278 241.741451 
L 273.345946 241.928907 
L 273.650614 241.741451 
L 273.955283 241.928907 
L 274.259951 241.741451 
L 275.173956 241.835179 
L 275.478624 241.553995 
L 275.783292 241.553995 
L 276.087961 241.835179 
L 276.392629 241.647723 
L 276.697297 241.741451 
L 277.001966 242.022635 
L 277.306634 241.741451 
L 277.611302 241.835179 
L 277.915971 241.741451 
L 278.220639 241.928907 
L 278.525307 241.741451 
L 279.439312 241.741451 
L 279.74398 241.553995 
L 280.048649 241.835179 
L 280.353317 241.647723 
L 281.267322 241.741451 
L 281.57199 241.835179 
L 282.181327 241.647723 
L 282.485995 241.741451 
L 282.790663 241.647723 
L 283.095332 241.741451 
L 283.704668 241.647723 
L 284.314005 241.741451 
L 287.360688 241.835179 
L 287.665356 241.553995 
L 287.970025 241.835179 
L 293.149386 241.835179 
L 293.454054 241.647723 
L 294.063391 241.835179 
L 294.368059 241.741451 
L 295.282064 241.928907 
L 295.8914 241.741451 
L 296.805405 241.928907 
L 297.110074 241.647723 
L 297.414742 241.835179 
L 297.71941 241.835179 
L 298.024079 241.647723 
L 298.328747 241.928907 
L 298.633415 241.647723 
L 299.54742 241.835179 
L 300.156757 241.647723 
L 300.766093 241.741451 
L 301.070762 241.647723 
L 301.37543 241.741451 
L 301.680098 242.022635 
L 302.289435 241.741451 
L 302.594103 241.928907 
L 302.898771 241.741451 
L 303.20344 241.741451 
L 303.508108 241.553995 
L 304.422113 241.928907 
L 304.726781 241.647723 
L 305.03145 241.835179 
L 306.859459 241.741451 
L 307.164128 241.647723 
L 308.078133 241.835179 
L 308.382801 241.647723 
L 308.687469 242.022635 
L 310.210811 241.647723 
L 310.515479 241.835179 
L 310.820147 241.741451 
L 311.124816 241.928907 
L 312.038821 241.835179 
L 312.343489 241.741451 
L 312.648157 241.835179 
L 312.952826 241.553995 
L 313.257494 241.835179 
L 313.562162 241.928907 
L 313.86683 241.553995 
L 314.171499 241.553995 
L 314.476167 241.835179 
L 314.780835 241.647723 
L 315.085504 241.928907 
L 315.999509 241.647723 
L 316.304177 241.928907 
L 316.608845 241.647723 
L 316.913514 241.835179 
L 317.218182 241.835179 
L 317.52285 241.647723 
L 317.827518 241.928907 
L 318.436855 241.835179 
L 318.741523 241.928907 
L 319.046192 241.741451 
L 319.35086 242.022635 
L 319.655528 241.835179 
L 319.960197 241.835179 
L 320.264865 242.022635 
L 320.569533 242.022635 
L 320.874201 241.647723 
L 321.17887 241.835179 
L 323.00688 241.835179 
L 323.311548 242.022635 
L 323.616216 241.741451 
L 323.920885 241.928907 
L 324.530221 241.647723 
L 325.139558 241.741451 
L 326.053563 241.741451 
L 326.358231 242.022635 
L 326.662899 241.835179 
L 331.537592 241.835179 
L 331.84226 242.022635 
L 332.146929 241.835179 
L 334.584275 241.928907 
L 334.888943 241.553995 
L 335.49828 241.835179 
L 339.1543 241.835179 
L 339.458968 241.647723 
L 339.763636 241.928907 
L 340.068305 241.741451 
L 340.372973 241.835179 
L 340.98231 241.647723 
L 341.286978 241.835179 
L 341.591646 241.647723 
L 341.896314 241.835179 
L 342.200983 241.741451 
L 343.114988 241.928907 
L 343.419656 241.647723 
L 344.028993 241.741451 
L 344.333661 241.741451 
L 344.638329 241.928907 
L 344.942998 241.741451 
L 345.247666 241.741451 
L 345.552334 241.928907 
L 346.161671 241.741451 
L 346.466339 241.928907 
L 347.075676 241.647723 
L 347.380344 241.928907 
L 347.685012 241.741451 
L 348.599017 241.928907 
L 348.903686 241.741451 
L 349.208354 241.928907 
L 349.513022 241.741451 
L 349.81769 241.928907 
L 350.122359 241.835179 
L 351.036364 242.022635 
L 351.341032 241.835179 
L 355.911057 241.835179 
L 356.215725 242.022635 
L 357.12973 241.835179 
L 358.043735 241.741451 
L 358.348403 242.022635 
L 358.95774 241.928907 
L 360.176413 241.835179 
L 360.481081 241.741451 
L 361.090418 241.835179 
L 361.395086 241.835179 
L 361.699754 242.116364 
L 362.309091 241.835179 
L 362.613759 241.928907 
L 362.918428 241.835179 
L 363.832432 242.116364 
L 364.137101 241.835179 
L 364.441769 242.022635 
L 364.746437 241.835179 
L 366.574447 241.928907 
L 366.879115 241.553995 
L 367.183784 241.835179 
L 368.707125 241.741451 
L 369.316462 241.647723 
L 369.62113 241.928907 
L 369.925799 241.928907 
L 370.230467 241.741451 
L 370.535135 242.022635 
L 370.839803 241.647723 
L 371.144472 242.022635 
L 371.753808 241.835179 
L 372.058477 242.116364 
L 372.363145 241.835179 
L 373.581818 241.928907 
L 373.581818 241.928907 
" style="fill:none;stroke:#1f77b4;stroke-linecap:square;stroke-width:1.5;"/>
   </g>
   <g id="patch_3">
    <path d="M 54 252 
L 54 34.56 
" style="fill:none;stroke:#000000;stroke-linecap:square;stroke-linejoin:miter;stroke-width:0.8;"/>
   </g>
   <g id="patch_4">
    <path d="M 388.8 252 
L 388.8 34.56 
" style="fill:none;stroke:#000000;stroke-linecap:square;stroke-linejoin:miter;stroke-width:0.8;"/>
   </g>
   <g id="patch_5">
    <path d="M 54 252 
L 388.8 252 
" style="fill:none;stroke:#000000;stroke-linecap:square;stroke-linejoin:miter;stroke-width:0.8;"/>
   </g>
   <g id="patch_6">
    <path d="M 54 34.56 
L 388.8 34.56 
" style="fill:none;stroke:#000000;stroke-linecap:square;stroke-linejoin:miter;stroke-width:0.8;"/>
   </g>
   <g id="legend_1">
    <g id="patch_7">
     <path d="M 261.140625 57.238125 
L 381.8 57.238125 
Q 383.8 57.238125 383.8 55.238125 
L 383.8 41.56 
Q 383.8 39.56 381.8 39.56 
L 261.140625 39.56 
Q 259.140625 39.56 259.140625 41.56 
L 259.140625 55.238125 
Q 259.140625 57.238125 261.140625 57.238125 
z
" style="fill:#ffffff;opacity:0.8;stroke:#cccccc;stroke-linejoin:miter;"/>
    </g>
    <g id="line2d_15">
     <path d="M 263.140625 47.658437 
L 283.140625 47.658437 
" style="fill:none;stroke:#1f77b4;stroke-linecap:square;stroke-width:1.5;"/>
    </g>
    <g id="line2d_16"/>
    <g id="text_17">
     <!-- Classification loss -->
     <defs>
      <path d="M 64.40625 67.28125 
L 64.40625 56.890625 
Q 59.421875 61.53125 53.78125 63.8125 
Q 48.140625 66.109375 41.796875 66.109375 
Q 29.296875 66.109375 22.65625 58.46875 
Q 16.015625 50.828125 16.015625 36.375 
Q 16.015625 21.96875 22.65625 14.328125 
Q 29.296875 6.6875 41.796875 6.6875 
Q 48.140625 6.6875 53.78125 8.984375 
Q 59.421875 11.28125 64.40625 15.921875 
L 64.40625 5.609375 
Q 59.234375 2.09375 53.4375 0.328125 
Q 47.65625 -1.421875 41.21875 -1.421875 
Q 24.65625 -1.421875 15.125 8.703125 
Q 5.609375 18.84375 5.609375 36.375 
Q 5.609375 53.953125 15.125 64.078125 
Q 24.65625 74.21875 41.21875 74.21875 
Q 47.75 74.21875 53.53125 72.484375 
Q 59.328125 70.75 64.40625 67.28125 
z
" id="DejaVuSans-67"/>
      <path d="M 9.421875 75.984375 
L 18.40625 75.984375 
L 18.40625 0 
L 9.421875 0 
z
" id="DejaVuSans-108"/>
      <path d="M 34.28125 27.484375 
Q 23.390625 27.484375 19.1875 25 
Q 14.984375 22.515625 14.984375 16.5 
Q 14.984375 11.71875 18.140625 8.90625 
Q 21.296875 6.109375 26.703125 6.109375 
Q 34.1875 6.109375 38.703125 11.40625 
Q 43.21875 16.703125 43.21875 25.484375 
L 43.21875 27.484375 
z
M 52.203125 31.203125 
L 52.203125 0 
L 43.21875 0 
L 43.21875 8.296875 
Q 40.140625 3.328125 35.546875 0.953125 
Q 30.953125 -1.421875 24.3125 -1.421875 
Q 15.921875 -1.421875 10.953125 3.296875 
Q 6 8.015625 6 15.921875 
Q 6 25.140625 12.171875 29.828125 
Q 18.359375 34.515625 30.609375 34.515625 
L 43.21875 34.515625 
L 43.21875 35.40625 
Q 43.21875 41.609375 39.140625 45 
Q 35.0625 48.390625 27.6875 48.390625 
Q 23 48.390625 18.546875 47.265625 
Q 14.109375 46.140625 10.015625 43.890625 
L 10.015625 52.203125 
Q 14.9375 54.109375 19.578125 55.046875 
Q 24.21875 56 28.609375 56 
Q 40.484375 56 46.34375 49.84375 
Q 52.203125 43.703125 52.203125 31.203125 
z
" id="DejaVuSans-97"/>
      <path d="M 9.421875 54.6875 
L 18.40625 54.6875 
L 18.40625 0 
L 9.421875 0 
z
M 9.421875 75.984375 
L 18.40625 75.984375 
L 18.40625 64.59375 
L 9.421875 64.59375 
z
" id="DejaVuSans-105"/>
      <path d="M 37.109375 75.984375 
L 37.109375 68.5 
L 28.515625 68.5 
Q 23.6875 68.5 21.796875 66.546875 
Q 19.921875 64.59375 19.921875 59.515625 
L 19.921875 54.6875 
L 34.71875 54.6875 
L 34.71875 47.703125 
L 19.921875 47.703125 
L 19.921875 0 
L 10.890625 0 
L 10.890625 47.703125 
L 2.296875 47.703125 
L 2.296875 54.6875 
L 10.890625 54.6875 
L 10.890625 58.5 
Q 10.890625 67.625 15.140625 71.796875 
Q 19.390625 75.984375 28.609375 75.984375 
z
" id="DejaVuSans-102"/>
      <path d="M 18.3125 70.21875 
L 18.3125 54.6875 
L 36.8125 54.6875 
L 36.8125 47.703125 
L 18.3125 47.703125 
L 18.3125 18.015625 
Q 18.3125 11.328125 20.140625 9.421875 
Q 21.96875 7.515625 27.59375 7.515625 
L 36.8125 7.515625 
L 36.8125 0 
L 27.59375 0 
Q 17.1875 0 13.234375 3.875 
Q 9.28125 7.765625 9.28125 18.015625 
L 9.28125 47.703125 
L 2.6875 47.703125 
L 2.6875 54.6875 
L 9.28125 54.6875 
L 9.28125 70.21875 
z
" id="DejaVuSans-116"/>
      <path d="M 54.890625 33.015625 
L 54.890625 0 
L 45.90625 0 
L 45.90625 32.71875 
Q 45.90625 40.484375 42.875 44.328125 
Q 39.84375 48.1875 33.796875 48.1875 
Q 26.515625 48.1875 22.3125 43.546875 
Q 18.109375 38.921875 18.109375 30.90625 
L 18.109375 0 
L 9.078125 0 
L 9.078125 54.6875 
L 18.109375 54.6875 
L 18.109375 46.1875 
Q 21.34375 51.125 25.703125 53.5625 
Q 30.078125 56 35.796875 56 
Q 45.21875 56 50.046875 50.171875 
Q 54.890625 44.34375 54.890625 33.015625 
z
" id="DejaVuSans-110"/>
      <path id="DejaVuSans-32"/>
     </defs>
     <g transform="translate(291.140625 51.158437)scale(0.1 -0.1)">
      <use xlink:href="#DejaVuSans-67"/>
      <use x="69.824219" xlink:href="#DejaVuSans-108"/>
      <use x="97.607422" xlink:href="#DejaVuSans-97"/>
      <use x="158.886719" xlink:href="#DejaVuSans-115"/>
      <use x="210.986328" xlink:href="#DejaVuSans-115"/>
      <use x="263.085938" xlink:href="#DejaVuSans-105"/>
      <use x="290.869141" xlink:href="#DejaVuSans-102"/>
      <use x="326.074219" xlink:href="#DejaVuSans-105"/>
      <use x="353.857422" xlink:href="#DejaVuSans-99"/>
      <use x="408.837891" xlink:href="#DejaVuSans-97"/>
      <use x="470.117188" xlink:href="#DejaVuSans-116"/>
      <use x="509.326172" xlink:href="#DejaVuSans-105"/>
      <use x="537.109375" xlink:href="#DejaVuSans-111"/>
      <use x="598.291016" xlink:href="#DejaVuSans-110"/>
      <use x="661.669922" xlink:href="#DejaVuSans-32"/>
      <use x="693.457031" xlink:href="#DejaVuSans-108"/>
      <use x="721.240234" xlink:href="#DejaVuSans-111"/>
      <use x="782.421875" xlink:href="#DejaVuSans-115"/>
      <use x="834.521484" xlink:href="#DejaVuSans-115"/>
     </g>
    </g>
   </g>
  </g>
 </g>
 <defs>
  <clipPath id="pacc03f6c64">
   <rect height="217.44" width="334.8" x="54" y="34.56"/>
  </clipPath>
 </defs>
</svg>
