<?xml version="1.0" encoding="utf-8" standalone="no"?>
<!DOCTYPE svg PUBLIC "-//W3C//DTD SVG 1.1//EN"
  "http://www.w3.org/Graphics/SVG/1.1/DTD/svg11.dtd">
<!-- Created with matplotlib (https://matplotlib.org/) -->
<svg height="288pt" version="1.1" viewBox="0 0 432 288" width="432pt" xmlns="http://www.w3.org/2000/svg" xmlns:xlink="http://www.w3.org/1999/xlink">
 <defs>
  <style type="text/css">
*{stroke-linecap:butt;stroke-linejoin:round;}
  </style>
 </defs>
 <g id="figure_1">
  <g id="patch_1">
   <path d="M 0 288 
L 432 288 
L 432 0 
L 0 0 
z
" style="fill:#ffffff;"/>
  </g>
  <g id="axes_1">
   <g id="patch_2">
    <path d="M 54 252 
L 388.8 252 
L 388.8 34.56 
L 54 34.56 
z
" style="fill:#ffffff;"/>
   </g>
   <g id="matplotlib.axis_1">
    <g id="xtick_1">
     <g id="line2d_1">
      <defs>
       <path d="M 0 0 
L 0 3.5 
" id="m66c28d1f43" style="stroke:#000000;stroke-width:0.8;"/>
      </defs>
      <g>
       <use style="stroke:#000000;stroke-width:0.8;" x="69.218182" xlink:href="#m66c28d1f43" y="252"/>
      </g>
     </g>
     <g id="text_1">
      <!-- 0 -->
      <defs>
       <path d="M 31.78125 66.40625 
Q 24.171875 66.40625 20.328125 58.90625 
Q 16.5 51.421875 16.5 36.375 
Q 16.5 21.390625 20.328125 13.890625 
Q 24.171875 6.390625 31.78125 6.390625 
Q 39.453125 6.390625 43.28125 13.890625 
Q 47.125 21.390625 47.125 36.375 
Q 47.125 51.421875 43.28125 58.90625 
Q 39.453125 66.40625 31.78125 66.40625 
z
M 31.78125 74.21875 
Q 44.046875 74.21875 50.515625 64.515625 
Q 56.984375 54.828125 56.984375 36.375 
Q 56.984375 17.96875 50.515625 8.265625 
Q 44.046875 -1.421875 31.78125 -1.421875 
Q 19.53125 -1.421875 13.0625 8.265625 
Q 6.59375 17.96875 6.59375 36.375 
Q 6.59375 54.828125 13.0625 64.515625 
Q 19.53125 74.21875 31.78125 74.21875 
z
" id="DejaVuSans-48"/>
      </defs>
      <g transform="translate(66.036932 266.598437)scale(0.1 -0.1)">
       <use xlink:href="#DejaVuSans-48"/>
      </g>
     </g>
    </g>
    <g id="xtick_2">
     <g id="line2d_2">
      <g>
       <use style="stroke:#000000;stroke-width:0.8;" x="130.151843" xlink:href="#m66c28d1f43" y="252"/>
      </g>
     </g>
     <g id="text_2">
      <!-- 200 -->
      <defs>
       <path d="M 19.1875 8.296875 
L 53.609375 8.296875 
L 53.609375 0 
L 7.328125 0 
L 7.328125 8.296875 
Q 12.9375 14.109375 22.625 23.890625 
Q 32.328125 33.6875 34.8125 36.53125 
Q 39.546875 41.84375 41.421875 45.53125 
Q 43.3125 49.21875 43.3125 52.78125 
Q 43.3125 58.59375 39.234375 62.25 
Q 35.15625 65.921875 28.609375 65.921875 
Q 23.96875 65.921875 18.8125 64.3125 
Q 13.671875 62.703125 7.8125 59.421875 
L 7.8125 69.390625 
Q 13.765625 71.78125 18.9375 73 
Q 24.125 74.21875 28.421875 74.21875 
Q 39.75 74.21875 46.484375 68.546875 
Q 53.21875 62.890625 53.21875 53.421875 
Q 53.21875 48.921875 51.53125 44.890625 
Q 49.859375 40.875 45.40625 35.40625 
Q 44.1875 33.984375 37.640625 27.21875 
Q 31.109375 20.453125 19.1875 8.296875 
z
" id="DejaVuSans-50"/>
      </defs>
      <g transform="translate(120.608093 266.598437)scale(0.1 -0.1)">
       <use xlink:href="#DejaVuSans-50"/>
       <use x="63.623047" xlink:href="#DejaVuSans-48"/>
       <use x="127.246094" xlink:href="#DejaVuSans-48"/>
      </g>
     </g>
    </g>
    <g id="xtick_3">
     <g id="line2d_3">
      <g>
       <use style="stroke:#000000;stroke-width:0.8;" x="191.085504" xlink:href="#m66c28d1f43" y="252"/>
      </g>
     </g>
     <g id="text_3">
      <!-- 400 -->
      <defs>
       <path d="M 37.796875 64.3125 
L 12.890625 25.390625 
L 37.796875 25.390625 
z
M 35.203125 72.90625 
L 47.609375 72.90625 
L 47.609375 25.390625 
L 58.015625 25.390625 
L 58.015625 17.1875 
L 47.609375 17.1875 
L 47.609375 0 
L 37.796875 0 
L 37.796875 17.1875 
L 4.890625 17.1875 
L 4.890625 26.703125 
z
" id="DejaVuSans-52"/>
      </defs>
      <g transform="translate(181.541754 266.598437)scale(0.1 -0.1)">
       <use xlink:href="#DejaVuSans-52"/>
       <use x="63.623047" xlink:href="#DejaVuSans-48"/>
       <use x="127.246094" xlink:href="#DejaVuSans-48"/>
      </g>
     </g>
    </g>
    <g id="xtick_4">
     <g id="line2d_4">
      <g>
       <use style="stroke:#000000;stroke-width:0.8;" x="252.019165" xlink:href="#m66c28d1f43" y="252"/>
      </g>
     </g>
     <g id="text_4">
      <!-- 600 -->
      <defs>
       <path d="M 33.015625 40.375 
Q 26.375 40.375 22.484375 35.828125 
Q 18.609375 31.296875 18.609375 23.390625 
Q 18.609375 15.53125 22.484375 10.953125 
Q 26.375 6.390625 33.015625 6.390625 
Q 39.65625 6.390625 43.53125 10.953125 
Q 47.40625 15.53125 47.40625 23.390625 
Q 47.40625 31.296875 43.53125 35.828125 
Q 39.65625 40.375 33.015625 40.375 
z
M 52.59375 71.296875 
L 52.59375 62.3125 
Q 48.875 64.0625 45.09375 64.984375 
Q 41.3125 65.921875 37.59375 65.921875 
Q 27.828125 65.921875 22.671875 59.328125 
Q 17.53125 52.734375 16.796875 39.40625 
Q 19.671875 43.65625 24.015625 45.921875 
Q 28.375 48.1875 33.59375 48.1875 
Q 44.578125 48.1875 50.953125 41.515625 
Q 57.328125 34.859375 57.328125 23.390625 
Q 57.328125 12.15625 50.6875 5.359375 
Q 44.046875 -1.421875 33.015625 -1.421875 
Q 20.359375 -1.421875 13.671875 8.265625 
Q 6.984375 17.96875 6.984375 36.375 
Q 6.984375 53.65625 15.1875 63.9375 
Q 23.390625 74.21875 37.203125 74.21875 
Q 40.921875 74.21875 44.703125 73.484375 
Q 48.484375 72.75 52.59375 71.296875 
z
" id="DejaVuSans-54"/>
      </defs>
      <g transform="translate(242.475415 266.598437)scale(0.1 -0.1)">
       <use xlink:href="#DejaVuSans-54"/>
       <use x="63.623047" xlink:href="#DejaVuSans-48"/>
       <use x="127.246094" xlink:href="#DejaVuSans-48"/>
      </g>
     </g>
    </g>
    <g id="xtick_5">
     <g id="line2d_5">
      <g>
       <use style="stroke:#000000;stroke-width:0.8;" x="312.952826" xlink:href="#m66c28d1f43" y="252"/>
      </g>
     </g>
     <g id="text_5">
      <!-- 800 -->
      <defs>
       <path d="M 31.78125 34.625 
Q 24.75 34.625 20.71875 30.859375 
Q 16.703125 27.09375 16.703125 20.515625 
Q 16.703125 13.921875 20.71875 10.15625 
Q 24.75 6.390625 31.78125 6.390625 
Q 38.8125 6.390625 42.859375 10.171875 
Q 46.921875 13.96875 46.921875 20.515625 
Q 46.921875 27.09375 42.890625 30.859375 
Q 38.875 34.625 31.78125 34.625 
z
M 21.921875 38.8125 
Q 15.578125 40.375 12.03125 44.71875 
Q 8.5 49.078125 8.5 55.328125 
Q 8.5 64.0625 14.71875 69.140625 
Q 20.953125 74.21875 31.78125 74.21875 
Q 42.671875 74.21875 48.875 69.140625 
Q 55.078125 64.0625 55.078125 55.328125 
Q 55.078125 49.078125 51.53125 44.71875 
Q 48 40.375 41.703125 38.8125 
Q 48.828125 37.15625 52.796875 32.3125 
Q 56.78125 27.484375 56.78125 20.515625 
Q 56.78125 9.90625 50.3125 4.234375 
Q 43.84375 -1.421875 31.78125 -1.421875 
Q 19.734375 -1.421875 13.25 4.234375 
Q 6.78125 9.90625 6.78125 20.515625 
Q 6.78125 27.484375 10.78125 32.3125 
Q 14.796875 37.15625 21.921875 38.8125 
z
M 18.3125 54.390625 
Q 18.3125 48.734375 21.84375 45.5625 
Q 25.390625 42.390625 31.78125 42.390625 
Q 38.140625 42.390625 41.71875 45.5625 
Q 45.3125 48.734375 45.3125 54.390625 
Q 45.3125 60.0625 41.71875 63.234375 
Q 38.140625 66.40625 31.78125 66.40625 
Q 25.390625 66.40625 21.84375 63.234375 
Q 18.3125 60.0625 18.3125 54.390625 
z
" id="DejaVuSans-56"/>
      </defs>
      <g transform="translate(303.409076 266.598437)scale(0.1 -0.1)">
       <use xlink:href="#DejaVuSans-56"/>
       <use x="63.623047" xlink:href="#DejaVuSans-48"/>
       <use x="127.246094" xlink:href="#DejaVuSans-48"/>
      </g>
     </g>
    </g>
    <g id="xtick_6">
     <g id="line2d_6">
      <g>
       <use style="stroke:#000000;stroke-width:0.8;" x="373.886486" xlink:href="#m66c28d1f43" y="252"/>
      </g>
     </g>
     <g id="text_6">
      <!-- 1000 -->
      <defs>
       <path d="M 12.40625 8.296875 
L 28.515625 8.296875 
L 28.515625 63.921875 
L 10.984375 60.40625 
L 10.984375 69.390625 
L 28.421875 72.90625 
L 38.28125 72.90625 
L 38.28125 8.296875 
L 54.390625 8.296875 
L 54.390625 0 
L 12.40625 0 
z
" id="DejaVuSans-49"/>
      </defs>
      <g transform="translate(361.161486 266.598437)scale(0.1 -0.1)">
       <use xlink:href="#DejaVuSans-49"/>
       <use x="63.623047" xlink:href="#DejaVuSans-48"/>
       <use x="127.246094" xlink:href="#DejaVuSans-48"/>
       <use x="190.869141" xlink:href="#DejaVuSans-48"/>
      </g>
     </g>
    </g>
    <g id="text_7">
     <!-- Epochs -->
     <defs>
      <path d="M 9.8125 72.90625 
L 55.90625 72.90625 
L 55.90625 64.59375 
L 19.671875 64.59375 
L 19.671875 43.015625 
L 54.390625 43.015625 
L 54.390625 34.71875 
L 19.671875 34.71875 
L 19.671875 8.296875 
L 56.78125 8.296875 
L 56.78125 0 
L 9.8125 0 
z
" id="DejaVuSans-69"/>
      <path d="M 18.109375 8.203125 
L 18.109375 -20.796875 
L 9.078125 -20.796875 
L 9.078125 54.6875 
L 18.109375 54.6875 
L 18.109375 46.390625 
Q 20.953125 51.265625 25.265625 53.625 
Q 29.59375 56 35.59375 56 
Q 45.5625 56 51.78125 48.09375 
Q 58.015625 40.1875 58.015625 27.296875 
Q 58.015625 14.40625 51.78125 6.484375 
Q 45.5625 -1.421875 35.59375 -1.421875 
Q 29.59375 -1.421875 25.265625 0.953125 
Q 20.953125 3.328125 18.109375 8.203125 
z
M 48.6875 27.296875 
Q 48.6875 37.203125 44.609375 42.84375 
Q 40.53125 48.484375 33.40625 48.484375 
Q 26.265625 48.484375 22.1875 42.84375 
Q 18.109375 37.203125 18.109375 27.296875 
Q 18.109375 17.390625 22.1875 11.75 
Q 26.265625 6.109375 33.40625 6.109375 
Q 40.53125 6.109375 44.609375 11.75 
Q 48.6875 17.390625 48.6875 27.296875 
z
" id="DejaVuSans-112"/>
      <path d="M 30.609375 48.390625 
Q 23.390625 48.390625 19.1875 42.75 
Q 14.984375 37.109375 14.984375 27.296875 
Q 14.984375 17.484375 19.15625 11.84375 
Q 23.34375 6.203125 30.609375 6.203125 
Q 37.796875 6.203125 41.984375 11.859375 
Q 46.1875 17.53125 46.1875 27.296875 
Q 46.1875 37.015625 41.984375 42.703125 
Q 37.796875 48.390625 30.609375 48.390625 
z
M 30.609375 56 
Q 42.328125 56 49.015625 48.375 
Q 55.71875 40.765625 55.71875 27.296875 
Q 55.71875 13.875 49.015625 6.21875 
Q 42.328125 -1.421875 30.609375 -1.421875 
Q 18.84375 -1.421875 12.171875 6.21875 
Q 5.515625 13.875 5.515625 27.296875 
Q 5.515625 40.765625 12.171875 48.375 
Q 18.84375 56 30.609375 56 
z
" id="DejaVuSans-111"/>
      <path d="M 48.78125 52.59375 
L 48.78125 44.1875 
Q 44.96875 46.296875 41.140625 47.34375 
Q 37.3125 48.390625 33.40625 48.390625 
Q 24.65625 48.390625 19.8125 42.84375 
Q 14.984375 37.3125 14.984375 27.296875 
Q 14.984375 17.28125 19.8125 11.734375 
Q 24.65625 6.203125 33.40625 6.203125 
Q 37.3125 6.203125 41.140625 7.25 
Q 44.96875 8.296875 48.78125 10.40625 
L 48.78125 2.09375 
Q 45.015625 0.34375 40.984375 -0.53125 
Q 36.96875 -1.421875 32.421875 -1.421875 
Q 20.0625 -1.421875 12.78125 6.34375 
Q 5.515625 14.109375 5.515625 27.296875 
Q 5.515625 40.671875 12.859375 48.328125 
Q 20.21875 56 33.015625 56 
Q 37.15625 56 41.109375 55.140625 
Q 45.0625 54.296875 48.78125 52.59375 
z
" id="DejaVuSans-99"/>
      <path d="M 54.890625 33.015625 
L 54.890625 0 
L 45.90625 0 
L 45.90625 32.71875 
Q 45.90625 40.484375 42.875 44.328125 
Q 39.84375 48.1875 33.796875 48.1875 
Q 26.515625 48.1875 22.3125 43.546875 
Q 18.109375 38.921875 18.109375 30.90625 
L 18.109375 0 
L 9.078125 0 
L 9.078125 75.984375 
L 18.109375 75.984375 
L 18.109375 46.1875 
Q 21.34375 51.125 25.703125 53.5625 
Q 30.078125 56 35.796875 56 
Q 45.21875 56 50.046875 50.171875 
Q 54.890625 44.34375 54.890625 33.015625 
z
" id="DejaVuSans-104"/>
      <path d="M 44.28125 53.078125 
L 44.28125 44.578125 
Q 40.484375 46.53125 36.375 47.5 
Q 32.28125 48.484375 27.875 48.484375 
Q 21.1875 48.484375 17.84375 46.4375 
Q 14.5 44.390625 14.5 40.28125 
Q 14.5 37.15625 16.890625 35.375 
Q 19.28125 33.59375 26.515625 31.984375 
L 29.59375 31.296875 
Q 39.15625 29.25 43.1875 25.515625 
Q 47.21875 21.78125 47.21875 15.09375 
Q 47.21875 7.46875 41.1875 3.015625 
Q 35.15625 -1.421875 24.609375 -1.421875 
Q 20.21875 -1.421875 15.453125 -0.5625 
Q 10.6875 0.296875 5.421875 2 
L 5.421875 11.28125 
Q 10.40625 8.6875 15.234375 7.390625 
Q 20.0625 6.109375 24.8125 6.109375 
Q 31.15625 6.109375 34.5625 8.28125 
Q 37.984375 10.453125 37.984375 14.40625 
Q 37.984375 18.0625 35.515625 20.015625 
Q 33.0625 21.96875 24.703125 23.78125 
L 21.578125 24.515625 
Q 13.234375 26.265625 9.515625 29.90625 
Q 5.8125 33.546875 5.8125 39.890625 
Q 5.8125 47.609375 11.28125 51.796875 
Q 16.75 56 26.8125 56 
Q 31.78125 56 36.171875 55.265625 
Q 40.578125 54.546875 44.28125 53.078125 
z
" id="DejaVuSans-115"/>
     </defs>
     <g transform="translate(203.484375 280.276563)scale(0.1 -0.1)">
      <use xlink:href="#DejaVuSans-69"/>
      <use x="63.183594" xlink:href="#DejaVuSans-112"/>
      <use x="126.660156" xlink:href="#DejaVuSans-111"/>
      <use x="187.841797" xlink:href="#DejaVuSans-99"/>
      <use x="242.822266" xlink:href="#DejaVuSans-104"/>
      <use x="306.201172" xlink:href="#DejaVuSans-115"/>
     </g>
    </g>
   </g>
   <g id="matplotlib.axis_2">
    <g id="ytick_1">
     <g id="line2d_7">
      <defs>
       <path d="M 0 0 
L -3.5 0 
" id="mf4171ad074" style="stroke:#000000;stroke-width:0.8;"/>
      </defs>
      <g>
       <use style="stroke:#000000;stroke-width:0.8;" x="54" xlink:href="#mf4171ad074" y="228.110297"/>
      </g>
     </g>
     <g id="text_8">
      <!-- 0.2 -->
      <defs>
       <path d="M 10.6875 12.40625 
L 21 12.40625 
L 21 0 
L 10.6875 0 
z
" id="DejaVuSans-46"/>
      </defs>
      <g transform="translate(31.096875 231.909516)scale(0.1 -0.1)">
       <use xlink:href="#DejaVuSans-48"/>
       <use x="63.623047" xlink:href="#DejaVuSans-46"/>
       <use x="95.410156" xlink:href="#DejaVuSans-50"/>
      </g>
     </g>
    </g>
    <g id="ytick_2">
     <g id="line2d_8">
      <g>
       <use style="stroke:#000000;stroke-width:0.8;" x="54" xlink:href="#mf4171ad074" y="203.621218"/>
      </g>
     </g>
     <g id="text_9">
      <!-- 0.3 -->
      <defs>
       <path d="M 40.578125 39.3125 
Q 47.65625 37.796875 51.625 33 
Q 55.609375 28.21875 55.609375 21.1875 
Q 55.609375 10.40625 48.1875 4.484375 
Q 40.765625 -1.421875 27.09375 -1.421875 
Q 22.515625 -1.421875 17.65625 -0.515625 
Q 12.796875 0.390625 7.625 2.203125 
L 7.625 11.71875 
Q 11.71875 9.328125 16.59375 8.109375 
Q 21.484375 6.890625 26.8125 6.890625 
Q 36.078125 6.890625 40.9375 10.546875 
Q 45.796875 14.203125 45.796875 21.1875 
Q 45.796875 27.640625 41.28125 31.265625 
Q 36.765625 34.90625 28.71875 34.90625 
L 20.21875 34.90625 
L 20.21875 43.015625 
L 29.109375 43.015625 
Q 36.375 43.015625 40.234375 45.921875 
Q 44.09375 48.828125 44.09375 54.296875 
Q 44.09375 59.90625 40.109375 62.90625 
Q 36.140625 65.921875 28.71875 65.921875 
Q 24.65625 65.921875 20.015625 65.03125 
Q 15.375 64.15625 9.8125 62.3125 
L 9.8125 71.09375 
Q 15.4375 72.65625 20.34375 73.4375 
Q 25.25 74.21875 29.59375 74.21875 
Q 40.828125 74.21875 47.359375 69.109375 
Q 53.90625 64.015625 53.90625 55.328125 
Q 53.90625 49.265625 50.4375 45.09375 
Q 46.96875 40.921875 40.578125 39.3125 
z
" id="DejaVuSans-51"/>
      </defs>
      <g transform="translate(31.096875 207.420437)scale(0.1 -0.1)">
       <use xlink:href="#DejaVuSans-48"/>
       <use x="63.623047" xlink:href="#DejaVuSans-46"/>
       <use x="95.410156" xlink:href="#DejaVuSans-51"/>
      </g>
     </g>
    </g>
    <g id="ytick_3">
     <g id="line2d_9">
      <g>
       <use style="stroke:#000000;stroke-width:0.8;" x="54" xlink:href="#mf4171ad074" y="179.132139"/>
      </g>
     </g>
     <g id="text_10">
      <!-- 0.4 -->
      <g transform="translate(31.096875 182.931357)scale(0.1 -0.1)">
       <use xlink:href="#DejaVuSans-48"/>
       <use x="63.623047" xlink:href="#DejaVuSans-46"/>
       <use x="95.410156" xlink:href="#DejaVuSans-52"/>
      </g>
     </g>
    </g>
    <g id="ytick_4">
     <g id="line2d_10">
      <g>
       <use style="stroke:#000000;stroke-width:0.8;" x="54" xlink:href="#mf4171ad074" y="154.643059"/>
      </g>
     </g>
     <g id="text_11">
      <!-- 0.5 -->
      <defs>
       <path d="M 10.796875 72.90625 
L 49.515625 72.90625 
L 49.515625 64.59375 
L 19.828125 64.59375 
L 19.828125 46.734375 
Q 21.96875 47.46875 24.109375 47.828125 
Q 26.265625 48.1875 28.421875 48.1875 
Q 40.625 48.1875 47.75 41.5 
Q 54.890625 34.8125 54.890625 23.390625 
Q 54.890625 11.625 47.5625 5.09375 
Q 40.234375 -1.421875 26.90625 -1.421875 
Q 22.3125 -1.421875 17.546875 -0.640625 
Q 12.796875 0.140625 7.71875 1.703125 
L 7.71875 11.625 
Q 12.109375 9.234375 16.796875 8.0625 
Q 21.484375 6.890625 26.703125 6.890625 
Q 35.15625 6.890625 40.078125 11.328125 
Q 45.015625 15.765625 45.015625 23.390625 
Q 45.015625 31 40.078125 35.4375 
Q 35.15625 39.890625 26.703125 39.890625 
Q 22.75 39.890625 18.8125 39.015625 
Q 14.890625 38.140625 10.796875 36.28125 
z
" id="DejaVuSans-53"/>
      </defs>
      <g transform="translate(31.096875 158.442278)scale(0.1 -0.1)">
       <use xlink:href="#DejaVuSans-48"/>
       <use x="63.623047" xlink:href="#DejaVuSans-46"/>
       <use x="95.410156" xlink:href="#DejaVuSans-53"/>
      </g>
     </g>
    </g>
    <g id="ytick_5">
     <g id="line2d_11">
      <g>
       <use style="stroke:#000000;stroke-width:0.8;" x="54" xlink:href="#mf4171ad074" y="130.15398"/>
      </g>
     </g>
     <g id="text_12">
      <!-- 0.6 -->
      <g transform="translate(31.096875 133.953199)scale(0.1 -0.1)">
       <use xlink:href="#DejaVuSans-48"/>
       <use x="63.623047" xlink:href="#DejaVuSans-46"/>
       <use x="95.410156" xlink:href="#DejaVuSans-54"/>
      </g>
     </g>
    </g>
    <g id="ytick_6">
     <g id="line2d_12">
      <g>
       <use style="stroke:#000000;stroke-width:0.8;" x="54" xlink:href="#mf4171ad074" y="105.664901"/>
      </g>
     </g>
     <g id="text_13">
      <!-- 0.7 -->
      <defs>
       <path d="M 8.203125 72.90625 
L 55.078125 72.90625 
L 55.078125 68.703125 
L 28.609375 0 
L 18.3125 0 
L 43.21875 64.59375 
L 8.203125 64.59375 
z
" id="DejaVuSans-55"/>
      </defs>
      <g transform="translate(31.096875 109.46412)scale(0.1 -0.1)">
       <use xlink:href="#DejaVuSans-48"/>
       <use x="63.623047" xlink:href="#DejaVuSans-46"/>
       <use x="95.410156" xlink:href="#DejaVuSans-55"/>
      </g>
     </g>
    </g>
    <g id="ytick_7">
     <g id="line2d_13">
      <g>
       <use style="stroke:#000000;stroke-width:0.8;" x="54" xlink:href="#mf4171ad074" y="81.175822"/>
      </g>
     </g>
     <g id="text_14">
      <!-- 0.8 -->
      <g transform="translate(31.096875 84.975041)scale(0.1 -0.1)">
       <use xlink:href="#DejaVuSans-48"/>
       <use x="63.623047" xlink:href="#DejaVuSans-46"/>
       <use x="95.410156" xlink:href="#DejaVuSans-56"/>
      </g>
     </g>
    </g>
    <g id="ytick_8">
     <g id="line2d_14">
      <g>
       <use style="stroke:#000000;stroke-width:0.8;" x="54" xlink:href="#mf4171ad074" y="56.686743"/>
      </g>
     </g>
     <g id="text_15">
      <!-- 0.9 -->
      <defs>
       <path d="M 10.984375 1.515625 
L 10.984375 10.5 
Q 14.703125 8.734375 18.5 7.8125 
Q 22.3125 6.890625 25.984375 6.890625 
Q 35.75 6.890625 40.890625 13.453125 
Q 46.046875 20.015625 46.78125 33.40625 
Q 43.953125 29.203125 39.59375 26.953125 
Q 35.25 24.703125 29.984375 24.703125 
Q 19.046875 24.703125 12.671875 31.3125 
Q 6.296875 37.9375 6.296875 49.421875 
Q 6.296875 60.640625 12.9375 67.421875 
Q 19.578125 74.21875 30.609375 74.21875 
Q 43.265625 74.21875 49.921875 64.515625 
Q 56.59375 54.828125 56.59375 36.375 
Q 56.59375 19.140625 48.40625 8.859375 
Q 40.234375 -1.421875 26.421875 -1.421875 
Q 22.703125 -1.421875 18.890625 -0.6875 
Q 15.09375 0.046875 10.984375 1.515625 
z
M 30.609375 32.421875 
Q 37.25 32.421875 41.125 36.953125 
Q 45.015625 41.5 45.015625 49.421875 
Q 45.015625 57.28125 41.125 61.84375 
Q 37.25 66.40625 30.609375 66.40625 
Q 23.96875 66.40625 20.09375 61.84375 
Q 16.21875 57.28125 16.21875 49.421875 
Q 16.21875 41.5 20.09375 36.953125 
Q 23.96875 32.421875 30.609375 32.421875 
z
" id="DejaVuSans-57"/>
      </defs>
      <g transform="translate(31.096875 60.485961)scale(0.1 -0.1)">
       <use xlink:href="#DejaVuSans-48"/>
       <use x="63.623047" xlink:href="#DejaVuSans-46"/>
       <use x="95.410156" xlink:href="#DejaVuSans-57"/>
      </g>
     </g>
    </g>
    <g id="text_16">
     <!-- Accuracy -->
     <defs>
      <path d="M 34.1875 63.1875 
L 20.796875 26.90625 
L 47.609375 26.90625 
z
M 28.609375 72.90625 
L 39.796875 72.90625 
L 67.578125 0 
L 57.328125 0 
L 50.6875 18.703125 
L 17.828125 18.703125 
L 11.1875 0 
L 0.78125 0 
z
" id="DejaVuSans-65"/>
      <path d="M 8.5 21.578125 
L 8.5 54.6875 
L 17.484375 54.6875 
L 17.484375 21.921875 
Q 17.484375 14.15625 20.5 10.265625 
Q 23.53125 6.390625 29.59375 6.390625 
Q 36.859375 6.390625 41.078125 11.03125 
Q 45.3125 15.671875 45.3125 23.6875 
L 45.3125 54.6875 
L 54.296875 54.6875 
L 54.296875 0 
L 45.3125 0 
L 45.3125 8.40625 
Q 42.046875 3.421875 37.71875 1 
Q 33.40625 -1.421875 27.6875 -1.421875 
Q 18.265625 -1.421875 13.375 4.4375 
Q 8.5 10.296875 8.5 21.578125 
z
M 31.109375 56 
z
" id="DejaVuSans-117"/>
      <path d="M 41.109375 46.296875 
Q 39.59375 47.171875 37.8125 47.578125 
Q 36.03125 48 33.890625 48 
Q 26.265625 48 22.1875 43.046875 
Q 18.109375 38.09375 18.109375 28.8125 
L 18.109375 0 
L 9.078125 0 
L 9.078125 54.6875 
L 18.109375 54.6875 
L 18.109375 46.1875 
Q 20.953125 51.171875 25.484375 53.578125 
Q 30.03125 56 36.53125 56 
Q 37.453125 56 38.578125 55.875 
Q 39.703125 55.765625 41.0625 55.515625 
z
" id="DejaVuSans-114"/>
      <path d="M 34.28125 27.484375 
Q 23.390625 27.484375 19.1875 25 
Q 14.984375 22.515625 14.984375 16.5 
Q 14.984375 11.71875 18.140625 8.90625 
Q 21.296875 6.109375 26.703125 6.109375 
Q 34.1875 6.109375 38.703125 11.40625 
Q 43.21875 16.703125 43.21875 25.484375 
L 43.21875 27.484375 
z
M 52.203125 31.203125 
L 52.203125 0 
L 43.21875 0 
L 43.21875 8.296875 
Q 40.140625 3.328125 35.546875 0.953125 
Q 30.953125 -1.421875 24.3125 -1.421875 
Q 15.921875 -1.421875 10.953125 3.296875 
Q 6 8.015625 6 15.921875 
Q 6 25.140625 12.171875 29.828125 
Q 18.359375 34.515625 30.609375 34.515625 
L 43.21875 34.515625 
L 43.21875 35.40625 
Q 43.21875 41.609375 39.140625 45 
Q 35.0625 48.390625 27.6875 48.390625 
Q 23 48.390625 18.546875 47.265625 
Q 14.109375 46.140625 10.015625 43.890625 
L 10.015625 52.203125 
Q 14.9375 54.109375 19.578125 55.046875 
Q 24.21875 56 28.609375 56 
Q 40.484375 56 46.34375 49.84375 
Q 52.203125 43.703125 52.203125 31.203125 
z
" id="DejaVuSans-97"/>
      <path d="M 32.171875 -5.078125 
Q 28.375 -14.84375 24.75 -17.8125 
Q 21.140625 -20.796875 15.09375 -20.796875 
L 7.90625 -20.796875 
L 7.90625 -13.28125 
L 13.1875 -13.28125 
Q 16.890625 -13.28125 18.9375 -11.515625 
Q 21 -9.765625 23.484375 -3.21875 
L 25.09375 0.875 
L 2.984375 54.6875 
L 12.5 54.6875 
L 29.59375 11.921875 
L 46.6875 54.6875 
L 56.203125 54.6875 
z
" id="DejaVuSans-121"/>
     </defs>
     <g transform="translate(25.017187 166.194844)rotate(-90)scale(0.1 -0.1)">
      <use xlink:href="#DejaVuSans-65"/>
      <use x="68.392578" xlink:href="#DejaVuSans-99"/>
      <use x="123.373047" xlink:href="#DejaVuSans-99"/>
      <use x="178.353516" xlink:href="#DejaVuSans-117"/>
      <use x="241.732422" xlink:href="#DejaVuSans-114"/>
      <use x="282.845703" xlink:href="#DejaVuSans-97"/>
      <use x="344.125" xlink:href="#DejaVuSans-99"/>
      <use x="399.105469" xlink:href="#DejaVuSans-121"/>
     </g>
    </g>
   </g>
   <g id="line2d_15">
    <path clip-path="url(#pf31525f523)" d="M 69.218182 242.116364 
L 70.132187 205.823481 
L 71.046192 184.360723 
L 71.960197 164.075189 
L 72.569533 154.657415 
L 72.874201 151.685651 
L 73.17887 147.292606 
L 73.483538 145.368858 
L 73.788206 141.607482 
L 74.092875 139.812943 
L 74.702211 132.361992 
L 75.00688 131.414466 
L 75.311548 127.552607 
L 75.920885 124.724408 
L 76.225553 121.695213 
L 76.530221 121.408083 
L 76.834889 118.091773 
L 77.139558 118.680382 
L 77.444226 115.120002 
L 77.748894 114.660602 
L 78.053563 113.153179 
L 78.358231 110.181407 
L 78.662899 110.267557 
L 79.272236 107.870031 
L 79.576904 105.931935 
L 79.881572 105.903223 
L 80.186241 103.089373 
L 80.490909 102.515112 
L 80.795577 100.763633 
L 81.100246 101.007704 
L 81.709582 97.404248 
L 82.014251 98.423546 
L 82.318919 97.375537 
L 82.623587 95.638421 
L 83.232924 94.130998 
L 83.537592 93.87258 
L 83.84226 93.456255 
L 84.146929 92.322096 
L 84.451597 92.795859 
L 84.756265 90.943883 
L 85.060934 90.183004 
L 85.365602 89.737953 
L 85.67027 90.383985 
L 85.974939 88.575083 
L 86.279607 88.790442 
L 86.584275 86.794908 
L 86.888943 86.593912 
L 87.193612 87.254308 
L 87.49828 86.019652 
L 87.802948 86.27807 
L 88.107617 84.928568 
L 88.412285 84.799374 
L 88.716953 82.976109 
L 89.021622 84.928568 
L 89.32629 83.70829 
L 89.630958 83.033532 
L 89.935627 83.205816 
L 90.240295 81.167207 
L 90.544963 82.272653 
L 90.849631 80.89444 
L 91.1543 81.669681 
L 91.763636 80.549886 
L 92.068305 79.028115 
L 92.372973 79.961277 
L 92.677641 78.798408 
L 92.98231 78.425143 
L 93.286978 78.712273 
L 93.591646 78.812771 
L 93.896314 77.721687 
L 94.200983 78.410794 
L 94.505651 77.090004 
L 94.810319 76.573166 
L 95.114988 77.405845 
L 95.419656 77.018217 
L 95.724324 76.817236 
L 96.028993 75.654367 
L 96.638329 74.993971 
L 96.942998 76.228627 
L 97.247666 74.993971 
L 97.552334 74.864762 
L 97.857002 74.907837 
L 98.161671 73.386065 
L 98.466339 74.046461 
L 98.771007 73.88854 
L 99.075676 74.132595 
L 99.380344 73.486548 
L 99.685012 73.845465 
L 99.989681 72.26627 
L 100.294349 72.366753 
L 100.599017 72.840516 
L 100.903686 72.424191 
L 101.208354 71.735084 
L 101.513022 71.361819 
L 101.81769 72.065275 
L 102.122359 71.677647 
L 102.427027 71.735084 
L 102.731695 71.936065 
L 103.036364 71.074689 
L 103.341032 71.002903 
L 103.950369 69.997954 
L 104.255037 69.567266 
L 104.559705 70.77321 
L 104.864373 69.825685 
L 105.47371 68.99302 
L 105.778378 70.256373 
L 106.083047 68.404411 
L 106.387715 68.232127 
L 106.997052 68.792025 
L 107.30172 68.648467 
L 107.606388 67.844499 
L 107.911057 68.361336 
L 108.215725 67.370751 
L 108.520393 67.873225 
L 108.825061 66.695992 
L 109.12973 67.227178 
L 109.739066 67.413811 
L 110.043735 68.318262 
L 110.348403 66.896988 
L 110.653071 66.868276 
L 110.95774 65.877691 
L 111.262408 65.490063 
L 111.871744 66.724704 
L 112.176413 65.518774 
L 112.481081 65.504426 
L 112.785749 66.150458 
L 113.090418 65.045012 
L 113.395086 65.633621 
L 113.699754 65.504426 
L 114.004423 65.159872 
L 114.309091 65.073723 
L 114.613759 64.858379 
L 115.223096 63.221761 
L 115.527764 64.456402 
L 115.832432 63.896505 
L 116.137101 64.068789 
L 116.441769 63.23611 
L 116.746437 63.078189 
L 117.355774 63.882157 
L 117.660442 62.633152 
L 117.965111 62.604441 
L 118.269779 63.953928 
L 118.574447 62.274236 
L 118.879115 62.389082 
L 119.183784 62.661864 
L 119.488452 62.532654 
L 119.79312 62.676212 
L 120.097789 62.633152 
L 120.402457 62.762347 
L 120.707125 61.125729 
L 121.011794 61.714338 
L 121.316462 61.010883 
L 121.62113 60.99652 
L 121.925799 61.498994 
L 122.230467 61.771761 
L 122.535135 60.436622 
L 122.839803 61.326725 
L 123.144472 60.178204 
L 123.44914 61.28365 
L 123.753808 60.852962 
L 124.058477 61.326725 
L 124.363145 60.206915 
L 124.667813 60.53712 
L 124.972482 59.934148 
L 125.27715 60.092069 
L 125.581818 59.230693 
L 125.886486 60.364836 
L 126.191155 59.819302 
L 126.495823 60.178204 
L 126.800491 59.21633 
L 127.10516 59.101483 
L 127.409828 59.130195 
L 127.714496 59.431674 
L 128.019165 59.417325 
L 128.323833 59.546535 
L 128.628501 60.479697 
L 128.93317 59.015349 
L 129.542506 59.589595 
L 129.847174 58.498511 
L 130.151843 58.354953 
L 130.456511 58.713855 
L 130.761179 59.819302 
L 131.065848 58.240107 
L 131.370516 57.938614 
L 131.675184 58.642084 
L 131.979853 58.153958 
L 132.589189 58.4698 
L 132.893857 57.091586 
L 133.198526 57.019814 
L 133.807862 57.68021 
L 134.112531 57.665846 
L 134.417199 58.42674 
L 134.721867 56.459917 
L 135.026536 57.149024 
L 135.331204 58.311879 
L 135.635872 56.301996 
L 135.940541 57.321293 
L 136.245209 57.364368 
L 136.549877 56.991103 
L 136.854545 56.933665 
L 137.159214 56.402494 
L 137.463882 57.292581 
L 137.76855 56.574763 
L 138.073219 57.278218 
L 138.682555 55.957442 
L 138.987224 56.459917 
L 139.291892 56.373768 
L 139.59656 56.861893 
L 139.901229 56.632186 
L 140.205897 57.163372 
L 140.510565 57.306945 
L 140.815233 56.747032 
L 141.119902 56.761396 
L 141.729238 55.48368 
L 142.033907 56.144075 
L 142.338575 56.144075 
L 142.643243 55.440605 
L 142.947912 55.48368 
L 143.25258 56.617838 
L 143.557248 55.612889 
L 143.861916 55.325759 
L 144.166585 55.699024 
L 144.471253 55.699024 
L 144.775921 56.05794 
L 145.08059 55.253973 
L 145.385258 55.340122 
L 145.689926 55.799522 
L 145.994595 55.627238 
L 146.603931 55.81387 
L 146.9086 55.411893 
L 147.517936 54.952494 
L 147.822604 55.785158 
L 148.127273 55.038628 
L 148.431941 54.823284 
L 149.041278 54.938131 
L 149.345946 55.411893 
L 149.955283 54.651015 
L 150.564619 54.349522 
L 150.869287 54.450019 
L 151.173956 55.340122 
L 151.478624 54.493094 
L 151.783292 54.794573 
L 152.087961 53.99062 
L 152.392629 53.732201 
L 152.697297 55.253973 
L 153.001966 54.450019 
L 153.306634 54.564866 
L 153.611302 54.32081 
L 153.915971 54.349522 
L 154.220639 55.498043 
L 154.525307 53.904485 
L 154.829975 54.019331 
L 155.134644 54.765861 
L 155.439312 53.933197 
L 155.74398 54.363885 
L 156.353317 53.258438 
L 156.657985 54.205964 
L 156.962654 53.186667 
L 157.267322 54.450019 
L 157.57199 54.464383 
L 157.876658 53.689141 
L 158.181327 53.674778 
L 158.485995 54.191601 
L 158.790663 53.502508 
L 159.095332 53.186667 
L 159.4 53.229727 
L 159.704668 54.033694 
L 160.009337 53.272801 
L 160.314005 53.803987 
L 160.618673 52.913885 
L 160.923342 54.119829 
L 161.22801 53.904485 
L 161.532678 54.60794 
L 161.837346 54.435671 
L 162.142015 53.717853 
L 162.446683 53.732201 
L 162.751351 54.148541 
L 163.05602 53.11488 
L 163.665356 53.057457 
L 163.970025 53.129243 
L 164.274693 52.727252 
L 164.579361 53.502508 
L 164.884029 52.727252 
L 165.188698 53.545569 
L 165.493366 52.698541 
L 165.798034 53.516857 
L 166.407371 52.511908 
L 166.712039 53.631703 
L 167.016708 52.885173 
L 167.321376 51.75103 
L 167.626044 52.755964 
L 167.930713 52.856462 
L 168.235381 53.459434 
L 168.540049 52.009434 
L 168.844717 53.100517 
L 169.149386 52.425774 
L 169.454054 52.669829 
L 169.758722 52.109932 
L 170.063391 53.358936 
L 170.368059 51.865876 
L 170.672727 52.49756 
L 170.977396 51.722318 
L 171.282064 52.210429 
L 171.586732 52.124295 
L 171.8914 52.282216 
L 172.196069 52.267853 
L 172.805405 52.655481 
L 173.110074 51.707955 
L 173.414742 52.167355 
L 173.71941 52.899536 
L 174.024079 51.363402 
L 174.328747 52.253504 
L 174.633415 51.550034 
L 174.938084 51.822801 
L 175.242752 50.789156 
L 175.54742 51.894588 
L 175.852088 51.377765 
L 176.156757 51.363402 
L 176.461425 51.865876 
L 176.766093 51.090635 
L 177.070762 51.506974 
L 177.37543 52.454485 
L 177.680098 51.62182 
L 177.984767 51.765378 
L 178.289435 51.119346 
L 178.594103 51.822801 
L 178.898771 51.75103 
L 179.20344 51.435188 
L 179.508108 52.009434 
L 179.812776 52.08122 
L 180.117445 51.392113 
L 180.422113 52.813402 
L 181.03145 50.674295 
L 181.336118 51.018848 
L 181.640786 52.928248 
L 181.945455 51.765378 
L 182.250123 51.262904 
L 182.554791 51.79409 
L 183.164128 50.860927 
L 183.468796 51.4639 
L 183.773464 51.392113 
L 184.078133 51.119346 
L 184.382801 51.104983 
L 184.687469 52.03816 
L 184.992138 50.760444 
L 185.296806 51.578746 
L 185.601474 50.803504 
L 185.906143 50.516374 
L 186.210811 51.535686 
L 186.515479 50.789156 
L 186.820147 51.79409 
L 187.124816 51.04756 
L 187.429484 51.234192 
L 187.734152 50.214895 
L 188.038821 51.191132 
L 188.343489 50.961425 
L 188.648157 51.4639 
L 188.952826 51.478248 
L 189.562162 50.703006 
L 189.86683 51.478248 
L 190.171499 51.119346 
L 190.476167 50.545086 
L 190.780835 50.71737 
L 191.085504 50.659946 
L 191.390172 50.760444 
L 191.69484 50.186184 
L 191.999509 50.774793 
L 192.304177 50.114397 
L 192.608845 50.458951 
L 192.913514 49.482728 
L 193.218182 50.100049 
L 193.52285 49.784207 
L 193.827518 50.502025 
L 194.132187 50.616872 
L 194.436855 50.545086 
L 194.741523 50.846579 
L 195.046192 49.238658 
L 195.35086 49.855993 
L 195.655528 49.855993 
L 195.960197 51.104983 
L 196.264865 51.0045 
L 196.569533 50.487662 
L 196.874201 50.602523 
L 197.17887 49.769844 
L 197.483538 50.042626 
L 197.788206 49.884705 
L 198.092875 49.985188 
L 198.397543 49.784207 
L 199.00688 50.100049 
L 199.311548 49.84163 
L 199.616216 51.277267 
L 199.920885 49.396579 
L 200.225553 50.25797 
L 200.530221 48.994602 
L 200.834889 50.344105 
L 201.444226 50.143109 
L 201.748894 49.611923 
L 202.053563 49.310444 
L 202.358231 48.377282 
L 202.967568 50.774793 
L 203.272236 50.085686 
L 203.576904 49.812919 
L 203.881572 49.209947 
L 204.186241 51.162421 
L 204.490909 50.502025 
L 204.795577 49.310444 
L 205.100246 50.444602 
L 205.404914 49.784207 
L 205.709582 49.755496 
L 206.014251 49.26737 
L 206.318919 50.387165 
L 206.623587 49.123812 
L 206.928256 48.922816 
L 207.232924 49.5545 
L 207.537592 49.439654 
L 208.146929 49.454002 
L 208.451597 48.793621 
L 208.756265 49.927765 
L 209.060934 50.028263 
L 209.365602 49.080737 
L 209.67027 50.631235 
L 209.974939 49.497077 
L 210.279607 49.568863 
L 210.584275 49.927765 
L 210.888943 49.597575 
L 211.49828 49.683709 
L 211.802948 49.640635 
L 212.412285 48.736184 
L 212.716953 49.5545 
L 213.021622 48.779258 
L 213.32629 48.592626 
L 213.630958 49.654998 
L 214.240295 49.525788 
L 214.544963 48.793621 
L 214.849631 48.635701 
L 215.1543 49.468365 
L 215.458968 49.181235 
L 215.763636 49.956476 
L 216.068305 49.683709 
L 216.372973 48.621337 
L 216.98231 48.865393 
L 217.286978 49.195598 
L 218.200983 49.367867 
L 218.505651 48.405993 
L 218.810319 49.123812 
L 219.114988 48.836682 
L 219.419656 48.233724 
L 219.724324 48.104515 
L 220.028993 48.118863 
L 220.333661 49.396579 
L 220.638329 48.865393 
L 220.942998 48.018365 
L 221.552334 48.449068 
L 221.857002 48.793621 
L 222.161671 48.291147 
L 222.466339 48.535203 
L 222.771007 48.104515 
L 223.075676 48.233724 
L 223.380344 48.204998 
L 223.685012 47.831733 
L 223.989681 48.449068 
L 224.294349 47.860459 
L 224.599017 48.736184 
L 224.903686 48.793621 
L 225.208354 47.860459 
L 225.513022 48.204998 
L 225.81769 48.276784 
L 226.122359 48.635701 
L 226.427027 48.233724 
L 226.731695 48.204998 
L 227.036364 47.530254 
L 227.341032 48.650049 
L 227.6457 47.960942 
L 227.950369 48.276784 
L 228.255037 47.357985 
L 228.559705 47.73125 
L 228.864373 47.472831 
L 229.169042 47.989654 
L 229.47371 48.104515 
L 229.778378 47.156989 
L 230.083047 47.874807 
L 230.387715 48.004017 
L 230.692383 48.334207 
L 230.997052 48.305496 
L 231.30172 47.889171 
L 231.606388 48.133226 
L 232.215725 47.458468 
L 232.520393 47.975305 
L 232.825061 48.147575 
L 233.12973 48.047091 
L 233.434398 47.214412 
L 233.739066 46.999068 
L 234.043735 48.851045 
L 234.348403 48.147575 
L 234.653071 47.989654 
L 234.95774 48.34857 
L 235.567076 47.142641 
L 236.176413 48.434705 
L 236.481081 47.056491 
L 237.090418 47.200064 
L 237.395086 47.803021 
L 237.699754 47.243124 
L 238.309091 46.869859 
L 238.613759 46.89857 
L 238.918428 47.444119 
L 239.223096 47.357985 
L 239.527764 46.826799 
L 239.832432 48.147575 
L 240.137101 47.214412 
L 240.441769 47.329273 
L 240.746437 47.573329 
L 241.051106 47.372333 
L 241.355774 46.98472 
L 241.660442 47.415408 
L 241.965111 47.487194 
L 242.269779 46.56838 
L 242.574447 47.73125 
L 242.879115 46.812436 
L 243.488452 47.372333 
L 243.79312 47.415408 
L 244.097789 46.970357 
L 244.402457 47.142641 
L 245.316462 46.999068 
L 245.62113 46.783724 
L 245.925799 47.343622 
L 246.230467 47.070854 
L 246.535135 46.539668 
L 247.144472 47.02778 
L 247.44914 46.324324 
L 247.753808 46.195115 
L 248.058477 46.697589 
L 248.363145 46.755013 
L 248.972482 46.467882 
L 249.27715 45.879273 
L 249.581818 47.415408 
L 249.886486 47.070854 
L 250.191155 46.10898 
L 251.10516 46.89857 
L 251.409828 46.539668 
L 252.019165 46.180752 
L 252.323833 45.118395 
L 252.93317 46.037194 
L 253.237838 46.123329 
L 253.847174 45.620854 
L 254.151843 45.979771 
L 254.456511 45.82185 
L 254.761179 46.137692 
L 255.065848 45.261953 
L 255.370516 46.051557 
L 255.979853 45.017897 
L 256.284521 46.037194 
L 256.589189 46.209478 
L 256.893857 45.793138 
L 257.198526 45.577794 
L 257.807862 45.606506 
L 258.112531 45.419873 
L 258.417199 46.15204 
L 259.026536 45.53472 
L 259.331204 45.290664 
L 259.635872 45.462934 
L 259.940541 45.864925 
L 260.245209 45.204529 
L 260.549877 45.893636 
L 260.854545 44.78819 
L 261.159214 45.663929 
L 261.463882 45.577794 
L 261.76855 45.922348 
L 262.073219 45.907985 
L 262.682555 45.132743 
L 262.987224 45.721352 
L 263.291892 45.376799 
L 263.59656 45.305027 
L 263.901229 45.807487 
L 264.205897 45.520371 
L 264.510565 44.702055 
L 264.815233 45.391162 
L 265.119902 45.36245 
L 265.42457 44.845613 
L 265.729238 45.290664 
L 267.25258 45.40551 
L 267.557248 45.161455 
L 267.861916 45.82185 
L 268.166585 44.888688 
L 268.471253 45.190166 
L 268.775921 45.707004 
L 269.08059 45.462934 
L 269.385258 45.635218 
L 269.689926 45.549083 
L 269.994595 45.750064 
L 270.299263 45.190166 
L 270.603931 45.161455 
L 270.9086 45.333739 
L 271.213268 45.118395 
L 272.127273 45.40551 
L 272.431941 44.816901 
L 272.736609 44.745115 
L 273.041278 45.233241 
L 273.345946 45.089669 
L 273.650614 45.549083 
L 273.955283 45.36245 
L 274.259951 45.592143 
L 274.564619 45.175818 
L 274.869287 45.53472 
L 275.173956 45.592143 
L 275.478624 45.979771 
L 275.783292 45.893636 
L 276.087961 45.161455 
L 276.392629 45.82185 
L 276.697297 45.649566 
L 277.001966 45.247589 
L 277.306634 45.376799 
L 277.611302 44.859976 
L 278.220639 45.879273 
L 278.525307 45.305027 
L 278.829975 45.147106 
L 279.439312 45.721352 
L 280.353317 45.218878 
L 280.962654 45.807487 
L 281.267322 45.620854 
L 281.57199 45.118395 
L 281.876658 45.53472 
L 282.181327 44.716404 
L 282.485995 44.644632 
L 282.790663 45.190166 
L 283.095332 44.874324 
L 283.4 45.376799 
L 283.704668 45.520371 
L 284.314005 44.974822 
L 284.618673 45.520371 
L 285.22801 45.118395 
L 285.532678 45.807487 
L 285.837346 45.606506 
L 286.142015 45.003534 
L 286.446683 45.305027 
L 286.751351 44.759478 
L 287.05602 45.003534 
L 287.360688 44.443636 
L 287.665356 46.209478 
L 287.970025 45.592143 
L 288.274693 45.965408 
L 289.188698 44.946111 
L 289.493366 44.831264 
L 289.798034 45.218878 
L 290.102703 45.132743 
L 290.407371 45.936696 
L 291.016708 45.046608 
L 291.321376 45.692641 
L 291.626044 44.831264 
L 291.930713 44.888688 
L 292.235381 45.07532 
L 292.540049 45.879273 
L 293.149386 45.261953 
L 293.454054 45.333739 
L 293.758722 45.520371 
L 294.063391 44.644632 
L 294.368059 44.65898 
L 294.672727 45.261953 
L 294.977396 45.132743 
L 295.282064 45.348087 
L 295.586732 45.836199 
L 295.8914 45.147106 
L 296.500737 45.233241 
L 297.110074 45.707004 
L 297.414742 45.07532 
L 297.71941 45.850562 
L 298.024079 44.61592 
L 298.328747 45.49166 
L 298.938084 44.716404 
L 299.242752 45.40551 
L 299.54742 45.132743 
L 299.852088 45.161455 
L 300.156757 45.979771 
L 300.461425 45.376799 
L 300.766093 45.175818 
L 301.070762 45.40551 
L 301.37543 45.462934 
L 301.680098 45.032245 
L 301.984767 45.348087 
L 302.289435 44.802553 
L 302.594103 44.917399 
L 302.898771 45.40551 
L 303.20344 45.003534 
L 303.508108 45.147106 
L 303.812776 45.147106 
L 304.117445 45.290664 
L 304.422113 46.037194 
L 304.726781 44.989185 
L 305.03145 45.060957 
L 305.336118 45.850562 
L 305.640786 45.53472 
L 305.945455 46.037194 
L 306.250123 45.261953 
L 306.554791 45.348087 
L 306.859459 45.592143 
L 307.164128 45.40551 
L 307.468796 45.965408 
L 307.773464 45.046608 
L 308.078133 45.07532 
L 308.382801 46.338673 
L 308.687469 45.520371 
L 309.296806 45.218878 
L 309.601474 45.678292 
L 309.906143 45.060957 
L 310.210811 45.40551 
L 310.820147 44.946111 
L 311.124816 45.319376 
L 311.429484 46.15204 
L 311.734152 45.448585 
L 312.038821 45.965408 
L 312.343489 45.49166 
L 312.648157 45.261953 
L 312.952826 45.850562 
L 313.257494 45.348087 
L 313.562162 45.477297 
L 313.86683 45.994119 
L 314.171499 44.702055 
L 314.476167 45.247589 
L 314.780835 45.49166 
L 315.085504 45.376799 
L 315.390172 46.008483 
L 315.69484 45.549083 
L 315.999509 44.558483 
L 316.304177 44.888688 
L 317.218182 45.261953 
L 317.52285 45.649566 
L 317.827518 45.391162 
L 318.132187 45.462934 
L 318.436855 45.060957 
L 318.741523 44.960474 
L 319.046192 45.319376 
L 319.35086 45.850562 
L 319.655528 44.78819 
L 319.960197 45.434222 
L 320.264865 46.439171 
L 320.569533 45.089669 
L 320.874201 45.261953 
L 321.17887 45.807487 
L 321.483538 45.003534 
L 321.788206 45.477297 
L 322.092875 45.348087 
L 322.397543 45.391162 
L 322.702211 45.606506 
L 323.00688 44.946111 
L 323.311548 45.118395 
L 323.616216 45.764427 
L 323.920885 45.907985 
L 324.225553 45.864925 
L 324.530221 45.204529 
L 324.834889 45.635218 
L 325.139558 45.218878 
L 325.444226 44.601557 
L 325.748894 45.104032 
L 326.053563 45.032245 
L 326.358231 44.816901 
L 326.662899 45.893636 
L 326.967568 45.032245 
L 327.576904 45.836199 
L 327.881572 45.707004 
L 328.186241 45.391162 
L 328.490909 45.563431 
L 328.795577 45.40551 
L 329.100246 45.750064 
L 329.404914 45.563431 
L 329.709582 45.53472 
L 330.014251 44.874324 
L 330.318919 45.592143 
L 330.623587 44.773841 
L 330.928256 45.147106 
L 331.232924 44.946111 
L 331.537592 45.520371 
L 332.146929 45.663929 
L 332.451597 45.305027 
L 332.756265 46.223827 
L 333.060934 45.348087 
L 333.365602 44.917399 
L 333.67027 45.290664 
L 333.974939 44.946111 
L 334.279607 45.204529 
L 334.584275 45.104032 
L 335.193612 45.175818 
L 335.802948 45.247589 
L 336.412285 45.922348 
L 336.716953 44.673344 
L 337.021622 45.49166 
L 337.32629 46.841147 
L 337.630958 45.132743 
L 337.935627 45.793138 
L 338.240295 45.663929 
L 338.544963 44.50106 
L 338.849631 45.448585 
L 339.1543 45.434222 
L 339.458968 44.78819 
L 339.763636 45.118395 
L 340.068305 44.989185 
L 340.372973 45.319376 
L 340.677641 45.850562 
L 340.98231 45.391162 
L 341.286978 45.276301 
L 341.591646 46.180752 
L 341.896314 44.802553 
L 342.200983 46.10898 
L 342.810319 45.161455 
L 343.114988 45.003534 
L 343.419656 45.319376 
L 343.724324 44.874324 
L 344.028993 45.060957 
L 344.333661 45.060957 
L 344.638329 45.663929 
L 344.942998 45.333739 
L 345.247666 45.305027 
L 345.552334 45.951059 
L 345.857002 45.520371 
L 346.161671 45.764427 
L 346.466339 45.36245 
L 346.771007 45.893636 
L 347.075676 45.391162 
L 347.380344 46.008483 
L 347.685012 46.037194 
L 347.989681 45.104032 
L 348.294349 45.247589 
L 348.599017 44.78819 
L 348.903686 45.563431 
L 349.208354 45.879273 
L 349.513022 45.190166 
L 349.81769 44.816901 
L 350.122359 45.965408 
L 350.427027 45.032245 
L 350.731695 45.477297 
L 351.036364 44.931748 
L 351.341032 45.577794 
L 351.6457 45.36245 
L 351.950369 45.520371 
L 352.255037 44.946111 
L 352.559705 45.907985 
L 352.864373 45.419873 
L 353.169042 45.233241 
L 353.47371 45.348087 
L 354.083047 45.175818 
L 354.387715 44.687692 
L 354.692383 45.462934 
L 354.997052 45.635218 
L 355.30172 45.49166 
L 355.606388 44.544134 
L 355.911057 45.204529 
L 356.215725 44.644632 
L 356.520393 45.046608 
L 356.825061 45.663929 
L 357.12973 45.104032 
L 357.434398 45.663929 
L 358.043735 45.434222 
L 358.348403 45.448585 
L 358.653071 45.836199 
L 358.95774 44.745115 
L 359.262408 44.946111 
L 359.567076 45.477297 
L 359.871744 45.391162 
L 360.176413 45.089669 
L 360.481081 46.309961 
L 360.785749 45.305027 
L 361.090418 44.989185 
L 361.395086 44.874324 
L 361.699754 45.49166 
L 362.004423 45.147106 
L 362.309091 45.520371 
L 362.613759 45.003534 
L 362.918428 45.40551 
L 363.223096 45.53472 
L 363.832432 45.333739 
L 364.137101 45.592143 
L 364.441769 45.175818 
L 364.746437 45.721352 
L 365.355774 45.649566 
L 365.660442 45.319376 
L 365.965111 45.36245 
L 366.269779 45.233241 
L 366.574447 45.391162 
L 366.879115 45.82185 
L 367.183784 45.707004 
L 367.488452 45.161455 
L 367.79312 45.692641 
L 368.097789 45.305027 
L 368.402457 45.750064 
L 369.011794 45.53472 
L 369.316462 45.07532 
L 369.62113 45.49166 
L 369.925799 45.032245 
L 370.230467 45.276301 
L 370.839803 45.391162 
L 371.144472 45.994119 
L 371.44914 45.592143 
L 371.753808 45.376799 
L 372.363145 44.687692 
L 372.667813 45.204529 
L 372.972482 45.175818 
L 373.27715 45.764427 
L 373.581818 45.089669 
L 373.581818 45.089669 
" style="fill:none;stroke:#1f77b4;stroke-linecap:square;stroke-width:1.5;"/>
   </g>
   <g id="patch_3">
    <path d="M 54 252 
L 54 34.56 
" style="fill:none;stroke:#000000;stroke-linecap:square;stroke-linejoin:miter;stroke-width:0.8;"/>
   </g>
   <g id="patch_4">
    <path d="M 388.8 252 
L 388.8 34.56 
" style="fill:none;stroke:#000000;stroke-linecap:square;stroke-linejoin:miter;stroke-width:0.8;"/>
   </g>
   <g id="patch_5">
    <path d="M 54 252 
L 388.8 252 
" style="fill:none;stroke:#000000;stroke-linecap:square;stroke-linejoin:miter;stroke-width:0.8;"/>
   </g>
   <g id="patch_6">
    <path d="M 54 34.56 
L 388.8 34.56 
" style="fill:none;stroke:#000000;stroke-linecap:square;stroke-linejoin:miter;stroke-width:0.8;"/>
   </g>
   <g id="legend_1">
    <g id="patch_7">
     <path d="M 226.475 247 
L 381.8 247 
Q 383.8 247 383.8 245 
L 383.8 231.321875 
Q 383.8 229.321875 381.8 229.321875 
L 226.475 229.321875 
Q 224.475 229.321875 224.475 231.321875 
L 224.475 245 
Q 224.475 247 226.475 247 
z
" style="fill:#ffffff;opacity:0.8;stroke:#cccccc;stroke-linejoin:miter;"/>
    </g>
    <g id="line2d_16">
     <path d="M 228.475 237.420312 
L 248.475 237.420312 
" style="fill:none;stroke:#1f77b4;stroke-linecap:square;stroke-width:1.5;"/>
    </g>
    <g id="line2d_17"/>
    <g id="text_17">
     <!-- Corr.-based align. model -->
     <defs>
      <path d="M 64.40625 67.28125 
L 64.40625 56.890625 
Q 59.421875 61.53125 53.78125 63.8125 
Q 48.140625 66.109375 41.796875 66.109375 
Q 29.296875 66.109375 22.65625 58.46875 
Q 16.015625 50.828125 16.015625 36.375 
Q 16.015625 21.96875 22.65625 14.328125 
Q 29.296875 6.6875 41.796875 6.6875 
Q 48.140625 6.6875 53.78125 8.984375 
Q 59.421875 11.28125 64.40625 15.921875 
L 64.40625 5.609375 
Q 59.234375 2.09375 53.4375 0.328125 
Q 47.65625 -1.421875 41.21875 -1.421875 
Q 24.65625 -1.421875 15.125 8.703125 
Q 5.609375 18.84375 5.609375 36.375 
Q 5.609375 53.953125 15.125 64.078125 
Q 24.65625 74.21875 41.21875 74.21875 
Q 47.75 74.21875 53.53125 72.484375 
Q 59.328125 70.75 64.40625 67.28125 
z
" id="DejaVuSans-67"/>
      <path d="M 4.890625 31.390625 
L 31.203125 31.390625 
L 31.203125 23.390625 
L 4.890625 23.390625 
z
" id="DejaVuSans-45"/>
      <path d="M 48.6875 27.296875 
Q 48.6875 37.203125 44.609375 42.84375 
Q 40.53125 48.484375 33.40625 48.484375 
Q 26.265625 48.484375 22.1875 42.84375 
Q 18.109375 37.203125 18.109375 27.296875 
Q 18.109375 17.390625 22.1875 11.75 
Q 26.265625 6.109375 33.40625 6.109375 
Q 40.53125 6.109375 44.609375 11.75 
Q 48.6875 17.390625 48.6875 27.296875 
z
M 18.109375 46.390625 
Q 20.953125 51.265625 25.265625 53.625 
Q 29.59375 56 35.59375 56 
Q 45.5625 56 51.78125 48.09375 
Q 58.015625 40.1875 58.015625 27.296875 
Q 58.015625 14.40625 51.78125 6.484375 
Q 45.5625 -1.421875 35.59375 -1.421875 
Q 29.59375 -1.421875 25.265625 0.953125 
Q 20.953125 3.328125 18.109375 8.203125 
L 18.109375 0 
L 9.078125 0 
L 9.078125 75.984375 
L 18.109375 75.984375 
z
" id="DejaVuSans-98"/>
      <path d="M 56.203125 29.59375 
L 56.203125 25.203125 
L 14.890625 25.203125 
Q 15.484375 15.921875 20.484375 11.0625 
Q 25.484375 6.203125 34.421875 6.203125 
Q 39.59375 6.203125 44.453125 7.46875 
Q 49.3125 8.734375 54.109375 11.28125 
L 54.109375 2.78125 
Q 49.265625 0.734375 44.1875 -0.34375 
Q 39.109375 -1.421875 33.890625 -1.421875 
Q 20.796875 -1.421875 13.15625 6.1875 
Q 5.515625 13.8125 5.515625 26.8125 
Q 5.515625 40.234375 12.765625 48.109375 
Q 20.015625 56 32.328125 56 
Q 43.359375 56 49.78125 48.890625 
Q 56.203125 41.796875 56.203125 29.59375 
z
M 47.21875 32.234375 
Q 47.125 39.59375 43.09375 43.984375 
Q 39.0625 48.390625 32.421875 48.390625 
Q 24.90625 48.390625 20.390625 44.140625 
Q 15.875 39.890625 15.1875 32.171875 
z
" id="DejaVuSans-101"/>
      <path d="M 45.40625 46.390625 
L 45.40625 75.984375 
L 54.390625 75.984375 
L 54.390625 0 
L 45.40625 0 
L 45.40625 8.203125 
Q 42.578125 3.328125 38.25 0.953125 
Q 33.9375 -1.421875 27.875 -1.421875 
Q 17.96875 -1.421875 11.734375 6.484375 
Q 5.515625 14.40625 5.515625 27.296875 
Q 5.515625 40.1875 11.734375 48.09375 
Q 17.96875 56 27.875 56 
Q 33.9375 56 38.25 53.625 
Q 42.578125 51.265625 45.40625 46.390625 
z
M 14.796875 27.296875 
Q 14.796875 17.390625 18.875 11.75 
Q 22.953125 6.109375 30.078125 6.109375 
Q 37.203125 6.109375 41.296875 11.75 
Q 45.40625 17.390625 45.40625 27.296875 
Q 45.40625 37.203125 41.296875 42.84375 
Q 37.203125 48.484375 30.078125 48.484375 
Q 22.953125 48.484375 18.875 42.84375 
Q 14.796875 37.203125 14.796875 27.296875 
z
" id="DejaVuSans-100"/>
      <path id="DejaVuSans-32"/>
      <path d="M 9.421875 75.984375 
L 18.40625 75.984375 
L 18.40625 0 
L 9.421875 0 
z
" id="DejaVuSans-108"/>
      <path d="M 9.421875 54.6875 
L 18.40625 54.6875 
L 18.40625 0 
L 9.421875 0 
z
M 9.421875 75.984375 
L 18.40625 75.984375 
L 18.40625 64.59375 
L 9.421875 64.59375 
z
" id="DejaVuSans-105"/>
      <path d="M 45.40625 27.984375 
Q 45.40625 37.75 41.375 43.109375 
Q 37.359375 48.484375 30.078125 48.484375 
Q 22.859375 48.484375 18.828125 43.109375 
Q 14.796875 37.75 14.796875 27.984375 
Q 14.796875 18.265625 18.828125 12.890625 
Q 22.859375 7.515625 30.078125 7.515625 
Q 37.359375 7.515625 41.375 12.890625 
Q 45.40625 18.265625 45.40625 27.984375 
z
M 54.390625 6.78125 
Q 54.390625 -7.171875 48.1875 -13.984375 
Q 42 -20.796875 29.203125 -20.796875 
Q 24.46875 -20.796875 20.265625 -20.09375 
Q 16.0625 -19.390625 12.109375 -17.921875 
L 12.109375 -9.1875 
Q 16.0625 -11.328125 19.921875 -12.34375 
Q 23.78125 -13.375 27.78125 -13.375 
Q 36.625 -13.375 41.015625 -8.765625 
Q 45.40625 -4.15625 45.40625 5.171875 
L 45.40625 9.625 
Q 42.625 4.78125 38.28125 2.390625 
Q 33.9375 0 27.875 0 
Q 17.828125 0 11.671875 7.65625 
Q 5.515625 15.328125 5.515625 27.984375 
Q 5.515625 40.671875 11.671875 48.328125 
Q 17.828125 56 27.875 56 
Q 33.9375 56 38.28125 53.609375 
Q 42.625 51.21875 45.40625 46.390625 
L 45.40625 54.6875 
L 54.390625 54.6875 
z
" id="DejaVuSans-103"/>
      <path d="M 54.890625 33.015625 
L 54.890625 0 
L 45.90625 0 
L 45.90625 32.71875 
Q 45.90625 40.484375 42.875 44.328125 
Q 39.84375 48.1875 33.796875 48.1875 
Q 26.515625 48.1875 22.3125 43.546875 
Q 18.109375 38.921875 18.109375 30.90625 
L 18.109375 0 
L 9.078125 0 
L 9.078125 54.6875 
L 18.109375 54.6875 
L 18.109375 46.1875 
Q 21.34375 51.125 25.703125 53.5625 
Q 30.078125 56 35.796875 56 
Q 45.21875 56 50.046875 50.171875 
Q 54.890625 44.34375 54.890625 33.015625 
z
" id="DejaVuSans-110"/>
      <path d="M 52 44.1875 
Q 55.375 50.25 60.0625 53.125 
Q 64.75 56 71.09375 56 
Q 79.640625 56 84.28125 50.015625 
Q 88.921875 44.046875 88.921875 33.015625 
L 88.921875 0 
L 79.890625 0 
L 79.890625 32.71875 
Q 79.890625 40.578125 77.09375 44.375 
Q 74.3125 48.1875 68.609375 48.1875 
Q 61.625 48.1875 57.5625 43.546875 
Q 53.515625 38.921875 53.515625 30.90625 
L 53.515625 0 
L 44.484375 0 
L 44.484375 32.71875 
Q 44.484375 40.625 41.703125 44.40625 
Q 38.921875 48.1875 33.109375 48.1875 
Q 26.21875 48.1875 22.15625 43.53125 
Q 18.109375 38.875 18.109375 30.90625 
L 18.109375 0 
L 9.078125 0 
L 9.078125 54.6875 
L 18.109375 54.6875 
L 18.109375 46.1875 
Q 21.1875 51.21875 25.484375 53.609375 
Q 29.78125 56 35.6875 56 
Q 41.65625 56 45.828125 52.96875 
Q 50 49.953125 52 44.1875 
z
" id="DejaVuSans-109"/>
     </defs>
     <g transform="translate(256.475 240.920312)scale(0.1 -0.1)">
      <use xlink:href="#DejaVuSans-67"/>
      <use x="69.824219" xlink:href="#DejaVuSans-111"/>
      <use x="131.005859" xlink:href="#DejaVuSans-114"/>
      <use x="172.103516" xlink:href="#DejaVuSans-114"/>
      <use x="213.076172" xlink:href="#DejaVuSans-46"/>
      <use x="244.863281" xlink:href="#DejaVuSans-45"/>
      <use x="280.947266" xlink:href="#DejaVuSans-98"/>
      <use x="344.423828" xlink:href="#DejaVuSans-97"/>
      <use x="405.703125" xlink:href="#DejaVuSans-115"/>
      <use x="457.802734" xlink:href="#DejaVuSans-101"/>
      <use x="519.326172" xlink:href="#DejaVuSans-100"/>
      <use x="582.802734" xlink:href="#DejaVuSans-32"/>
      <use x="614.589844" xlink:href="#DejaVuSans-97"/>
      <use x="675.869141" xlink:href="#DejaVuSans-108"/>
      <use x="703.652344" xlink:href="#DejaVuSans-105"/>
      <use x="731.435547" xlink:href="#DejaVuSans-103"/>
      <use x="794.912109" xlink:href="#DejaVuSans-110"/>
      <use x="858.291016" xlink:href="#DejaVuSans-46"/>
      <use x="890.078125" xlink:href="#DejaVuSans-32"/>
      <use x="921.865234" xlink:href="#DejaVuSans-109"/>
      <use x="1019.277344" xlink:href="#DejaVuSans-111"/>
      <use x="1080.458984" xlink:href="#DejaVuSans-100"/>
      <use x="1143.935547" xlink:href="#DejaVuSans-101"/>
      <use x="1205.458984" xlink:href="#DejaVuSans-108"/>
     </g>
    </g>
   </g>
  </g>
 </g>
 <defs>
  <clipPath id="pf31525f523">
   <rect height="217.44" width="334.8" x="54" y="34.56"/>
  </clipPath>
 </defs>
</svg>
