<?xml version="1.0" encoding="utf-8" standalone="no"?>
<!DOCTYPE svg PUBLIC "-//W3C//DTD SVG 1.1//EN"
  "http://www.w3.org/Graphics/SVG/1.1/DTD/svg11.dtd">
<!-- Created with matplotlib (https://matplotlib.org/) -->
<svg height="288pt" version="1.1" viewBox="0 0 432 288" width="432pt" xmlns="http://www.w3.org/2000/svg" xmlns:xlink="http://www.w3.org/1999/xlink">
 <defs>
  <style type="text/css">
*{stroke-linecap:butt;stroke-linejoin:round;}
  </style>
 </defs>
 <g id="figure_1">
  <g id="patch_1">
   <path d="M 0 288 
L 432 288 
L 432 0 
L 0 0 
z
" style="fill:#ffffff;"/>
  </g>
  <g id="axes_1">
   <g id="patch_2">
    <path d="M 54 252 
L 388.8 252 
L 388.8 34.56 
L 54 34.56 
z
" style="fill:#ffffff;"/>
   </g>
   <g id="matplotlib.axis_1">
    <g id="xtick_1">
     <g id="line2d_1">
      <defs>
       <path d="M 0 0 
L 0 3.5 
" id="mdc5926e7c0" style="stroke:#000000;stroke-width:0.8;"/>
      </defs>
      <g>
       <use style="stroke:#000000;stroke-width:0.8;" x="69.218182" xlink:href="#mdc5926e7c0" y="252"/>
      </g>
     </g>
     <g id="text_1">
      <!-- 0 -->
      <defs>
       <path d="M 31.78125 66.40625 
Q 24.171875 66.40625 20.328125 58.90625 
Q 16.5 51.421875 16.5 36.375 
Q 16.5 21.390625 20.328125 13.890625 
Q 24.171875 6.390625 31.78125 6.390625 
Q 39.453125 6.390625 43.28125 13.890625 
Q 47.125 21.390625 47.125 36.375 
Q 47.125 51.421875 43.28125 58.90625 
Q 39.453125 66.40625 31.78125 66.40625 
z
M 31.78125 74.21875 
Q 44.046875 74.21875 50.515625 64.515625 
Q 56.984375 54.828125 56.984375 36.375 
Q 56.984375 17.96875 50.515625 8.265625 
Q 44.046875 -1.421875 31.78125 -1.421875 
Q 19.53125 -1.421875 13.0625 8.265625 
Q 6.59375 17.96875 6.59375 36.375 
Q 6.59375 54.828125 13.0625 64.515625 
Q 19.53125 74.21875 31.78125 74.21875 
z
" id="DejaVuSans-48"/>
      </defs>
      <g transform="translate(66.036932 266.598437)scale(0.1 -0.1)">
       <use xlink:href="#DejaVuSans-48"/>
      </g>
     </g>
    </g>
    <g id="xtick_2">
     <g id="line2d_2">
      <g>
       <use style="stroke:#000000;stroke-width:0.8;" x="130.151843" xlink:href="#mdc5926e7c0" y="252"/>
      </g>
     </g>
     <g id="text_2">
      <!-- 200 -->
      <defs>
       <path d="M 19.1875 8.296875 
L 53.609375 8.296875 
L 53.609375 0 
L 7.328125 0 
L 7.328125 8.296875 
Q 12.9375 14.109375 22.625 23.890625 
Q 32.328125 33.6875 34.8125 36.53125 
Q 39.546875 41.84375 41.421875 45.53125 
Q 43.3125 49.21875 43.3125 52.78125 
Q 43.3125 58.59375 39.234375 62.25 
Q 35.15625 65.921875 28.609375 65.921875 
Q 23.96875 65.921875 18.8125 64.3125 
Q 13.671875 62.703125 7.8125 59.421875 
L 7.8125 69.390625 
Q 13.765625 71.78125 18.9375 73 
Q 24.125 74.21875 28.421875 74.21875 
Q 39.75 74.21875 46.484375 68.546875 
Q 53.21875 62.890625 53.21875 53.421875 
Q 53.21875 48.921875 51.53125 44.890625 
Q 49.859375 40.875 45.40625 35.40625 
Q 44.1875 33.984375 37.640625 27.21875 
Q 31.109375 20.453125 19.1875 8.296875 
z
" id="DejaVuSans-50"/>
      </defs>
      <g transform="translate(120.608093 266.598437)scale(0.1 -0.1)">
       <use xlink:href="#DejaVuSans-50"/>
       <use x="63.623047" xlink:href="#DejaVuSans-48"/>
       <use x="127.246094" xlink:href="#DejaVuSans-48"/>
      </g>
     </g>
    </g>
    <g id="xtick_3">
     <g id="line2d_3">
      <g>
       <use style="stroke:#000000;stroke-width:0.8;" x="191.085504" xlink:href="#mdc5926e7c0" y="252"/>
      </g>
     </g>
     <g id="text_3">
      <!-- 400 -->
      <defs>
       <path d="M 37.796875 64.3125 
L 12.890625 25.390625 
L 37.796875 25.390625 
z
M 35.203125 72.90625 
L 47.609375 72.90625 
L 47.609375 25.390625 
L 58.015625 25.390625 
L 58.015625 17.1875 
L 47.609375 17.1875 
L 47.609375 0 
L 37.796875 0 
L 37.796875 17.1875 
L 4.890625 17.1875 
L 4.890625 26.703125 
z
" id="DejaVuSans-52"/>
      </defs>
      <g transform="translate(181.541754 266.598437)scale(0.1 -0.1)">
       <use xlink:href="#DejaVuSans-52"/>
       <use x="63.623047" xlink:href="#DejaVuSans-48"/>
       <use x="127.246094" xlink:href="#DejaVuSans-48"/>
      </g>
     </g>
    </g>
    <g id="xtick_4">
     <g id="line2d_4">
      <g>
       <use style="stroke:#000000;stroke-width:0.8;" x="252.019165" xlink:href="#mdc5926e7c0" y="252"/>
      </g>
     </g>
     <g id="text_4">
      <!-- 600 -->
      <defs>
       <path d="M 33.015625 40.375 
Q 26.375 40.375 22.484375 35.828125 
Q 18.609375 31.296875 18.609375 23.390625 
Q 18.609375 15.53125 22.484375 10.953125 
Q 26.375 6.390625 33.015625 6.390625 
Q 39.65625 6.390625 43.53125 10.953125 
Q 47.40625 15.53125 47.40625 23.390625 
Q 47.40625 31.296875 43.53125 35.828125 
Q 39.65625 40.375 33.015625 40.375 
z
M 52.59375 71.296875 
L 52.59375 62.3125 
Q 48.875 64.0625 45.09375 64.984375 
Q 41.3125 65.921875 37.59375 65.921875 
Q 27.828125 65.921875 22.671875 59.328125 
Q 17.53125 52.734375 16.796875 39.40625 
Q 19.671875 43.65625 24.015625 45.921875 
Q 28.375 48.1875 33.59375 48.1875 
Q 44.578125 48.1875 50.953125 41.515625 
Q 57.328125 34.859375 57.328125 23.390625 
Q 57.328125 12.15625 50.6875 5.359375 
Q 44.046875 -1.421875 33.015625 -1.421875 
Q 20.359375 -1.421875 13.671875 8.265625 
Q 6.984375 17.96875 6.984375 36.375 
Q 6.984375 53.65625 15.1875 63.9375 
Q 23.390625 74.21875 37.203125 74.21875 
Q 40.921875 74.21875 44.703125 73.484375 
Q 48.484375 72.75 52.59375 71.296875 
z
" id="DejaVuSans-54"/>
      </defs>
      <g transform="translate(242.475415 266.598437)scale(0.1 -0.1)">
       <use xlink:href="#DejaVuSans-54"/>
       <use x="63.623047" xlink:href="#DejaVuSans-48"/>
       <use x="127.246094" xlink:href="#DejaVuSans-48"/>
      </g>
     </g>
    </g>
    <g id="xtick_5">
     <g id="line2d_5">
      <g>
       <use style="stroke:#000000;stroke-width:0.8;" x="312.952826" xlink:href="#mdc5926e7c0" y="252"/>
      </g>
     </g>
     <g id="text_5">
      <!-- 800 -->
      <defs>
       <path d="M 31.78125 34.625 
Q 24.75 34.625 20.71875 30.859375 
Q 16.703125 27.09375 16.703125 20.515625 
Q 16.703125 13.921875 20.71875 10.15625 
Q 24.75 6.390625 31.78125 6.390625 
Q 38.8125 6.390625 42.859375 10.171875 
Q 46.921875 13.96875 46.921875 20.515625 
Q 46.921875 27.09375 42.890625 30.859375 
Q 38.875 34.625 31.78125 34.625 
z
M 21.921875 38.8125 
Q 15.578125 40.375 12.03125 44.71875 
Q 8.5 49.078125 8.5 55.328125 
Q 8.5 64.0625 14.71875 69.140625 
Q 20.953125 74.21875 31.78125 74.21875 
Q 42.671875 74.21875 48.875 69.140625 
Q 55.078125 64.0625 55.078125 55.328125 
Q 55.078125 49.078125 51.53125 44.71875 
Q 48 40.375 41.703125 38.8125 
Q 48.828125 37.15625 52.796875 32.3125 
Q 56.78125 27.484375 56.78125 20.515625 
Q 56.78125 9.90625 50.3125 4.234375 
Q 43.84375 -1.421875 31.78125 -1.421875 
Q 19.734375 -1.421875 13.25 4.234375 
Q 6.78125 9.90625 6.78125 20.515625 
Q 6.78125 27.484375 10.78125 32.3125 
Q 14.796875 37.15625 21.921875 38.8125 
z
M 18.3125 54.390625 
Q 18.3125 48.734375 21.84375 45.5625 
Q 25.390625 42.390625 31.78125 42.390625 
Q 38.140625 42.390625 41.71875 45.5625 
Q 45.3125 48.734375 45.3125 54.390625 
Q 45.3125 60.0625 41.71875 63.234375 
Q 38.140625 66.40625 31.78125 66.40625 
Q 25.390625 66.40625 21.84375 63.234375 
Q 18.3125 60.0625 18.3125 54.390625 
z
" id="DejaVuSans-56"/>
      </defs>
      <g transform="translate(303.409076 266.598437)scale(0.1 -0.1)">
       <use xlink:href="#DejaVuSans-56"/>
       <use x="63.623047" xlink:href="#DejaVuSans-48"/>
       <use x="127.246094" xlink:href="#DejaVuSans-48"/>
      </g>
     </g>
    </g>
    <g id="xtick_6">
     <g id="line2d_6">
      <g>
       <use style="stroke:#000000;stroke-width:0.8;" x="373.886486" xlink:href="#mdc5926e7c0" y="252"/>
      </g>
     </g>
     <g id="text_6">
      <!-- 1000 -->
      <defs>
       <path d="M 12.40625 8.296875 
L 28.515625 8.296875 
L 28.515625 63.921875 
L 10.984375 60.40625 
L 10.984375 69.390625 
L 28.421875 72.90625 
L 38.28125 72.90625 
L 38.28125 8.296875 
L 54.390625 8.296875 
L 54.390625 0 
L 12.40625 0 
z
" id="DejaVuSans-49"/>
      </defs>
      <g transform="translate(361.161486 266.598437)scale(0.1 -0.1)">
       <use xlink:href="#DejaVuSans-49"/>
       <use x="63.623047" xlink:href="#DejaVuSans-48"/>
       <use x="127.246094" xlink:href="#DejaVuSans-48"/>
       <use x="190.869141" xlink:href="#DejaVuSans-48"/>
      </g>
     </g>
    </g>
    <g id="text_7">
     <!-- Epochs -->
     <defs>
      <path d="M 9.8125 72.90625 
L 55.90625 72.90625 
L 55.90625 64.59375 
L 19.671875 64.59375 
L 19.671875 43.015625 
L 54.390625 43.015625 
L 54.390625 34.71875 
L 19.671875 34.71875 
L 19.671875 8.296875 
L 56.78125 8.296875 
L 56.78125 0 
L 9.8125 0 
z
" id="DejaVuSans-69"/>
      <path d="M 18.109375 8.203125 
L 18.109375 -20.796875 
L 9.078125 -20.796875 
L 9.078125 54.6875 
L 18.109375 54.6875 
L 18.109375 46.390625 
Q 20.953125 51.265625 25.265625 53.625 
Q 29.59375 56 35.59375 56 
Q 45.5625 56 51.78125 48.09375 
Q 58.015625 40.1875 58.015625 27.296875 
Q 58.015625 14.40625 51.78125 6.484375 
Q 45.5625 -1.421875 35.59375 -1.421875 
Q 29.59375 -1.421875 25.265625 0.953125 
Q 20.953125 3.328125 18.109375 8.203125 
z
M 48.6875 27.296875 
Q 48.6875 37.203125 44.609375 42.84375 
Q 40.53125 48.484375 33.40625 48.484375 
Q 26.265625 48.484375 22.1875 42.84375 
Q 18.109375 37.203125 18.109375 27.296875 
Q 18.109375 17.390625 22.1875 11.75 
Q 26.265625 6.109375 33.40625 6.109375 
Q 40.53125 6.109375 44.609375 11.75 
Q 48.6875 17.390625 48.6875 27.296875 
z
" id="DejaVuSans-112"/>
      <path d="M 30.609375 48.390625 
Q 23.390625 48.390625 19.1875 42.75 
Q 14.984375 37.109375 14.984375 27.296875 
Q 14.984375 17.484375 19.15625 11.84375 
Q 23.34375 6.203125 30.609375 6.203125 
Q 37.796875 6.203125 41.984375 11.859375 
Q 46.1875 17.53125 46.1875 27.296875 
Q 46.1875 37.015625 41.984375 42.703125 
Q 37.796875 48.390625 30.609375 48.390625 
z
M 30.609375 56 
Q 42.328125 56 49.015625 48.375 
Q 55.71875 40.765625 55.71875 27.296875 
Q 55.71875 13.875 49.015625 6.21875 
Q 42.328125 -1.421875 30.609375 -1.421875 
Q 18.84375 -1.421875 12.171875 6.21875 
Q 5.515625 13.875 5.515625 27.296875 
Q 5.515625 40.765625 12.171875 48.375 
Q 18.84375 56 30.609375 56 
z
" id="DejaVuSans-111"/>
      <path d="M 48.78125 52.59375 
L 48.78125 44.1875 
Q 44.96875 46.296875 41.140625 47.34375 
Q 37.3125 48.390625 33.40625 48.390625 
Q 24.65625 48.390625 19.8125 42.84375 
Q 14.984375 37.3125 14.984375 27.296875 
Q 14.984375 17.28125 19.8125 11.734375 
Q 24.65625 6.203125 33.40625 6.203125 
Q 37.3125 6.203125 41.140625 7.25 
Q 44.96875 8.296875 48.78125 10.40625 
L 48.78125 2.09375 
Q 45.015625 0.34375 40.984375 -0.53125 
Q 36.96875 -1.421875 32.421875 -1.421875 
Q 20.0625 -1.421875 12.78125 6.34375 
Q 5.515625 14.109375 5.515625 27.296875 
Q 5.515625 40.671875 12.859375 48.328125 
Q 20.21875 56 33.015625 56 
Q 37.15625 56 41.109375 55.140625 
Q 45.0625 54.296875 48.78125 52.59375 
z
" id="DejaVuSans-99"/>
      <path d="M 54.890625 33.015625 
L 54.890625 0 
L 45.90625 0 
L 45.90625 32.71875 
Q 45.90625 40.484375 42.875 44.328125 
Q 39.84375 48.1875 33.796875 48.1875 
Q 26.515625 48.1875 22.3125 43.546875 
Q 18.109375 38.921875 18.109375 30.90625 
L 18.109375 0 
L 9.078125 0 
L 9.078125 75.984375 
L 18.109375 75.984375 
L 18.109375 46.1875 
Q 21.34375 51.125 25.703125 53.5625 
Q 30.078125 56 35.796875 56 
Q 45.21875 56 50.046875 50.171875 
Q 54.890625 44.34375 54.890625 33.015625 
z
" id="DejaVuSans-104"/>
      <path d="M 44.28125 53.078125 
L 44.28125 44.578125 
Q 40.484375 46.53125 36.375 47.5 
Q 32.28125 48.484375 27.875 48.484375 
Q 21.1875 48.484375 17.84375 46.4375 
Q 14.5 44.390625 14.5 40.28125 
Q 14.5 37.15625 16.890625 35.375 
Q 19.28125 33.59375 26.515625 31.984375 
L 29.59375 31.296875 
Q 39.15625 29.25 43.1875 25.515625 
Q 47.21875 21.78125 47.21875 15.09375 
Q 47.21875 7.46875 41.1875 3.015625 
Q 35.15625 -1.421875 24.609375 -1.421875 
Q 20.21875 -1.421875 15.453125 -0.5625 
Q 10.6875 0.296875 5.421875 2 
L 5.421875 11.28125 
Q 10.40625 8.6875 15.234375 7.390625 
Q 20.0625 6.109375 24.8125 6.109375 
Q 31.15625 6.109375 34.5625 8.28125 
Q 37.984375 10.453125 37.984375 14.40625 
Q 37.984375 18.0625 35.515625 20.015625 
Q 33.0625 21.96875 24.703125 23.78125 
L 21.578125 24.515625 
Q 13.234375 26.265625 9.515625 29.90625 
Q 5.8125 33.546875 5.8125 39.890625 
Q 5.8125 47.609375 11.28125 51.796875 
Q 16.75 56 26.8125 56 
Q 31.78125 56 36.171875 55.265625 
Q 40.578125 54.546875 44.28125 53.078125 
z
" id="DejaVuSans-115"/>
     </defs>
     <g transform="translate(203.484375 280.276563)scale(0.1 -0.1)">
      <use xlink:href="#DejaVuSans-69"/>
      <use x="63.183594" xlink:href="#DejaVuSans-112"/>
      <use x="126.660156" xlink:href="#DejaVuSans-111"/>
      <use x="187.841797" xlink:href="#DejaVuSans-99"/>
      <use x="242.822266" xlink:href="#DejaVuSans-104"/>
      <use x="306.201172" xlink:href="#DejaVuSans-115"/>
     </g>
    </g>
   </g>
   <g id="matplotlib.axis_2">
    <g id="ytick_1">
     <g id="line2d_7">
      <defs>
       <path d="M 0 0 
L -3.5 0 
" id="ma96c4379c4" style="stroke:#000000;stroke-width:0.8;"/>
      </defs>
      <g>
       <use style="stroke:#000000;stroke-width:0.8;" x="54" xlink:href="#ma96c4379c4" y="245.905701"/>
      </g>
     </g>
     <g id="text_8">
      <!-- −30 -->
      <defs>
       <path d="M 10.59375 35.5 
L 73.1875 35.5 
L 73.1875 27.203125 
L 10.59375 27.203125 
z
" id="DejaVuSans-8722"/>
       <path d="M 40.578125 39.3125 
Q 47.65625 37.796875 51.625 33 
Q 55.609375 28.21875 55.609375 21.1875 
Q 55.609375 10.40625 48.1875 4.484375 
Q 40.765625 -1.421875 27.09375 -1.421875 
Q 22.515625 -1.421875 17.65625 -0.515625 
Q 12.796875 0.390625 7.625 2.203125 
L 7.625 11.71875 
Q 11.71875 9.328125 16.59375 8.109375 
Q 21.484375 6.890625 26.8125 6.890625 
Q 36.078125 6.890625 40.9375 10.546875 
Q 45.796875 14.203125 45.796875 21.1875 
Q 45.796875 27.640625 41.28125 31.265625 
Q 36.765625 34.90625 28.71875 34.90625 
L 20.21875 34.90625 
L 20.21875 43.015625 
L 29.109375 43.015625 
Q 36.375 43.015625 40.234375 45.921875 
Q 44.09375 48.828125 44.09375 54.296875 
Q 44.09375 59.90625 40.109375 62.90625 
Q 36.140625 65.921875 28.71875 65.921875 
Q 24.65625 65.921875 20.015625 65.03125 
Q 15.375 64.15625 9.8125 62.3125 
L 9.8125 71.09375 
Q 15.4375 72.65625 20.34375 73.4375 
Q 25.25 74.21875 29.59375 74.21875 
Q 40.828125 74.21875 47.359375 69.109375 
Q 53.90625 64.015625 53.90625 55.328125 
Q 53.90625 49.265625 50.4375 45.09375 
Q 46.96875 40.921875 40.578125 39.3125 
z
" id="DejaVuSans-51"/>
      </defs>
      <g transform="translate(25.895312 249.70492)scale(0.1 -0.1)">
       <use xlink:href="#DejaVuSans-8722"/>
       <use x="83.789062" xlink:href="#DejaVuSans-51"/>
       <use x="147.412109" xlink:href="#DejaVuSans-48"/>
      </g>
     </g>
    </g>
    <g id="ytick_2">
     <g id="line2d_8">
      <g>
       <use style="stroke:#000000;stroke-width:0.8;" x="54" xlink:href="#ma96c4379c4" y="201.130869"/>
      </g>
     </g>
     <g id="text_9">
      <!-- −28 -->
      <g transform="translate(25.895312 204.930087)scale(0.1 -0.1)">
       <use xlink:href="#DejaVuSans-8722"/>
       <use x="83.789062" xlink:href="#DejaVuSans-50"/>
       <use x="147.412109" xlink:href="#DejaVuSans-56"/>
      </g>
     </g>
    </g>
    <g id="ytick_3">
     <g id="line2d_9">
      <g>
       <use style="stroke:#000000;stroke-width:0.8;" x="54" xlink:href="#ma96c4379c4" y="156.356036"/>
      </g>
     </g>
     <g id="text_10">
      <!-- −26 -->
      <g transform="translate(25.895312 160.155255)scale(0.1 -0.1)">
       <use xlink:href="#DejaVuSans-8722"/>
       <use x="83.789062" xlink:href="#DejaVuSans-50"/>
       <use x="147.412109" xlink:href="#DejaVuSans-54"/>
      </g>
     </g>
    </g>
    <g id="ytick_4">
     <g id="line2d_10">
      <g>
       <use style="stroke:#000000;stroke-width:0.8;" x="54" xlink:href="#ma96c4379c4" y="111.581204"/>
      </g>
     </g>
     <g id="text_11">
      <!-- −24 -->
      <g transform="translate(25.895312 115.380423)scale(0.1 -0.1)">
       <use xlink:href="#DejaVuSans-8722"/>
       <use x="83.789062" xlink:href="#DejaVuSans-50"/>
       <use x="147.412109" xlink:href="#DejaVuSans-52"/>
      </g>
     </g>
    </g>
    <g id="ytick_5">
     <g id="line2d_11">
      <g>
       <use style="stroke:#000000;stroke-width:0.8;" x="54" xlink:href="#ma96c4379c4" y="66.806372"/>
      </g>
     </g>
     <g id="text_12">
      <!-- −22 -->
      <g transform="translate(25.895312 70.60559)scale(0.1 -0.1)">
       <use xlink:href="#DejaVuSans-8722"/>
       <use x="83.789062" xlink:href="#DejaVuSans-50"/>
       <use x="147.412109" xlink:href="#DejaVuSans-50"/>
      </g>
     </g>
    </g>
    <g id="text_13">
     <!-- Loss -->
     <defs>
      <path d="M 9.8125 72.90625 
L 19.671875 72.90625 
L 19.671875 8.296875 
L 55.171875 8.296875 
L 55.171875 0 
L 9.8125 0 
z
" id="DejaVuSans-76"/>
     </defs>
     <g transform="translate(19.815625 154.333906)rotate(-90)scale(0.1 -0.1)">
      <use xlink:href="#DejaVuSans-76"/>
      <use x="55.697266" xlink:href="#DejaVuSans-111"/>
      <use x="116.878906" xlink:href="#DejaVuSans-115"/>
      <use x="168.978516" xlink:href="#DejaVuSans-115"/>
     </g>
    </g>
   </g>
   <g id="line2d_12">
    <path clip-path="url(#p99d092231a)" d="M 69.218182 44.443636 
L 69.827518 75.494109 
L 71.655528 119.872936 
L 71.960197 129.549662 
L 72.264865 133.323371 
L 73.483538 155.147993 
L 74.702211 167.722554 
L 75.920885 177.092519 
L 76.530221 181.216287 
L 76.834889 182.456868 
L 77.444226 185.907974 
L 77.748894 187.861655 
L 78.053563 188.348442 
L 78.358231 190.673575 
L 78.662899 190.890708 
L 78.967568 192.320922 
L 79.272236 193.090472 
L 79.881572 195.985531 
L 80.186241 196.314325 
L 80.490909 196.294897 
L 80.795577 197.676219 
L 81.100246 197.534026 
L 81.709582 200.780425 
L 82.014251 201.782864 
L 82.318919 202.124042 
L 82.623587 202.220247 
L 83.232924 205.624382 
L 83.537592 205.742107 
L 83.84226 206.217151 
L 84.146929 206.383769 
L 84.451597 207.358923 
L 84.756265 207.929403 
L 85.060934 209.069125 
L 85.365602 209.734401 
L 85.67027 209.854261 
L 86.279607 211.792954 
L 86.584275 210.702124 
L 86.888943 212.457034 
L 87.49828 212.506225 
L 87.802948 213.28423 
L 88.107617 213.743774 
L 88.412285 213.991053 
L 88.716953 214.024829 
L 89.021622 214.447352 
L 89.32629 216.093717 
L 89.630958 215.769875 
L 89.935627 216.301882 
L 90.240295 216.308458 
L 90.849631 217.103671 
L 91.1543 218.247962 
L 91.763636 217.646866 
L 92.068305 218.09629 
L 92.372973 218.066015 
L 92.677641 219.776388 
L 92.98231 218.784624 
L 93.286978 219.879254 
L 93.591646 219.864095 
L 94.200983 220.143101 
L 94.810319 221.245374 
L 95.114988 220.822766 
L 95.419656 222.451752 
L 95.724324 221.674473 
L 96.028993 221.713586 
L 96.333661 222.376257 
L 96.638329 221.652738 
L 96.942998 223.062071 
L 97.247666 222.799634 
L 97.552334 223.494458 
L 97.857002 222.998319 
L 98.161671 223.494928 
L 98.466339 223.600953 
L 98.771007 224.406415 
L 99.075676 224.185311 
L 99.380344 224.794691 
L 99.685012 225.003412 
L 99.989681 224.46184 
L 100.294349 224.551298 
L 100.599017 225.135186 
L 101.208354 224.786237 
L 101.513022 225.452494 
L 101.81769 225.337459 
L 102.122359 225.624877 
L 102.427027 226.168156 
L 102.731695 225.835818 
L 103.036364 226.328967 
L 103.6457 226.768356 
L 103.950369 227.344387 
L 104.255037 226.737142 
L 104.559705 227.482481 
L 105.169042 227.851286 
L 105.47371 227.331791 
L 105.778378 227.348828 
L 106.083047 228.102579 
L 106.387715 228.011456 
L 106.692383 228.938913 
L 106.997052 228.314075 
L 107.30172 228.891089 
L 107.911057 228.643383 
L 108.215725 229.005612 
L 108.520393 228.800094 
L 108.825061 228.927 
L 109.12973 229.662988 
L 109.434398 229.651843 
L 109.739066 229.294396 
L 110.043735 229.983071 
L 110.348403 229.68263 
L 110.653071 230.177957 
L 110.95774 229.900446 
L 111.262408 230.030597 
L 111.567076 230.369213 
L 111.871744 229.815087 
L 112.176413 229.849803 
L 112.481081 230.414518 
L 113.090418 230.660858 
L 113.395086 230.330953 
L 113.699754 230.509698 
L 114.309091 231.06472 
L 114.613759 231.044822 
L 114.918428 231.150677 
L 115.223096 231.092262 
L 115.527764 231.234028 
L 115.832432 231.680549 
L 116.137101 231.699636 
L 116.441769 230.514395 
L 117.051106 231.707023 
L 117.355774 231.384633 
L 117.660442 231.369389 
L 117.965111 231.613082 
L 118.269779 230.841652 
L 118.574447 232.063744 
L 118.879115 231.8809 
L 119.183784 232.508855 
L 119.488452 231.015572 
L 119.79312 231.571491 
L 120.097789 232.39557 
L 120.402457 232.099869 
L 120.707125 232.747551 
L 121.011794 232.738627 
L 121.316462 232.118571 
L 121.62113 232.361453 
L 121.925799 232.007208 
L 122.230467 232.533707 
L 122.535135 232.767493 
L 122.839803 232.777655 
L 123.144472 232.431268 
L 123.44914 232.573162 
L 123.753808 233.102692 
L 124.058477 232.964129 
L 124.363145 233.438319 
L 124.667813 232.793711 
L 124.972482 233.475084 
L 125.27715 233.337759 
L 125.581818 232.747295 
L 125.886486 233.15816 
L 126.191155 234.124518 
L 126.495823 233.426278 
L 126.800491 233.216575 
L 127.10516 233.365856 
L 127.409828 234.238443 
L 127.714496 233.136725 
L 128.019165 233.608652 
L 128.323833 233.833342 
L 128.628501 233.660533 
L 129.237838 234.142068 
L 129.542506 233.833769 
L 129.847174 233.841669 
L 130.151843 233.621163 
L 130.456511 234.207015 
L 130.761179 234.163205 
L 131.065848 234.705161 
L 131.370516 234.259793 
L 131.675184 234.255438 
L 131.979853 234.401261 
L 132.284521 234.689746 
L 132.589189 234.682231 
L 132.893857 234.933011 
L 133.198526 234.47573 
L 133.807862 234.606864 
L 134.112531 235.25412 
L 134.417199 234.546101 
L 135.026536 235.301176 
L 135.331204 234.610494 
L 135.635872 235.2516 
L 135.940541 235.079218 
L 136.549877 235.334824 
L 136.854545 235.006115 
L 137.159214 235.408696 
L 137.463882 235.254333 
L 137.76855 235.690008 
L 138.073219 235.407415 
L 138.377887 235.297205 
L 138.682555 235.501954 
L 138.987224 235.167096 
L 139.291892 235.277434 
L 139.59656 234.976865 
L 139.901229 235.608364 
L 140.205897 235.438288 
L 140.510565 235.517668 
L 140.815233 236.632111 
L 141.119902 236.403535 
L 141.42457 235.989168 
L 142.643243 236.298918 
L 142.947912 236.06684 
L 143.25258 236.497775 
L 143.861916 235.861024 
L 144.166585 236.906377 
L 144.471253 235.881776 
L 144.775921 237.064327 
L 145.08059 236.416217 
L 145.385258 236.089941 
L 145.689926 236.554994 
L 145.994595 236.336623 
L 146.299263 236.317493 
L 146.9086 236.829473 
L 147.213268 236.572928 
L 147.517936 237.05822 
L 147.822604 236.759743 
L 148.431941 237.121076 
L 148.736609 236.474418 
L 149.041278 236.91987 
L 149.345946 236.498415 
L 149.650614 237.451963 
L 149.955283 237.440733 
L 150.259951 236.30148 
L 150.564619 237.589416 
L 150.869287 237.186792 
L 151.173956 237.126371 
L 151.478624 237.618367 
L 151.783292 237.437402 
L 152.087961 236.982982 
L 152.392629 237.403284 
L 152.697297 236.66119 
L 153.001966 237.606624 
L 153.306634 238.148837 
L 153.611302 237.307421 
L 153.915971 236.850439 
L 154.220639 237.765599 
L 154.525307 237.341966 
L 154.829975 237.853733 
L 155.134644 237.49509 
L 155.74398 237.555597 
L 156.353317 237.740064 
L 156.657985 237.50884 
L 156.962654 237.625925 
L 157.267322 237.966889 
L 157.57199 238.719829 
L 157.876658 237.781611 
L 158.181327 237.642279 
L 158.485995 237.656968 
L 158.790663 238.280397 
L 159.095332 238.13308 
L 159.704668 237.428435 
L 160.009337 238.736482 
L 160.314005 238.588738 
L 160.618673 236.976321 
L 161.22801 237.993919 
L 161.532678 237.691214 
L 161.837346 238.43681 
L 162.142015 238.446332 
L 162.446683 238.210881 
L 162.751351 238.590532 
L 163.05602 238.020436 
L 163.665356 238.797544 
L 164.274693 238.556457 
L 164.579361 239.268489 
L 164.884029 238.705952 
L 165.188698 238.846394 
L 165.493366 238.248073 
L 165.798034 238.650612 
L 166.102703 238.305377 
L 166.407371 239.062971 
L 166.712039 238.384544 
L 167.016708 238.399831 
L 167.321376 238.79131 
L 167.626044 238.658981 
L 167.930713 238.668887 
L 168.235381 239.195941 
L 168.540049 238.221983 
L 168.844717 238.108357 
L 169.149386 237.815217 
L 169.454054 238.746261 
L 169.758722 238.663208 
L 170.063391 239.136288 
L 170.672727 238.460935 
L 170.977396 238.775383 
L 171.282064 238.503764 
L 171.586732 238.538608 
L 171.8914 238.074239 
L 172.196069 238.231548 
L 172.500737 238.696643 
L 172.805405 238.680886 
L 173.414742 239.464442 
L 173.71941 239.357008 
L 174.024079 239.649592 
L 174.328747 238.398422 
L 174.633415 238.980089 
L 174.938084 238.378438 
L 175.242752 239.521063 
L 175.54742 239.186675 
L 175.852088 239.581997 
L 176.156757 239.624185 
L 176.461425 238.33215 
L 177.070762 239.725642 
L 177.984767 238.327112 
L 178.289435 239.272631 
L 178.594103 239.760272 
L 178.898771 238.609149 
L 179.20344 239.30803 
L 179.508108 239.481523 
L 179.812776 239.176897 
L 180.117445 239.568205 
L 180.422113 239.182319 
L 180.726781 239.628199 
L 181.336118 239.218444 
L 181.640786 239.070871 
L 181.945455 239.569315 
L 182.554791 239.817576 
L 182.859459 238.917021 
L 183.164128 238.693483 
L 183.468796 239.318449 
L 183.773464 239.272973 
L 184.078133 238.684003 
L 184.687469 239.849132 
L 184.992138 239.176555 
L 185.296806 239.664666 
L 185.601474 239.79819 
L 186.210811 239.408035 
L 186.515479 239.862412 
L 186.820147 239.363584 
L 187.124816 239.088976 
L 187.429484 239.348169 
L 187.734152 239.980607 
L 188.038821 238.973941 
L 188.343489 239.705103 
L 188.648157 239.401459 
L 188.952826 238.611455 
L 189.562162 240.567613 
L 189.86683 239.283733 
L 190.171499 239.343856 
L 190.476167 239.739947 
L 190.780835 239.098199 
L 191.390172 240.163622 
L 191.999509 238.63588 
L 192.304177 240.524997 
L 192.608845 238.684687 
L 192.913514 240.082918 
L 193.218182 239.759931 
L 193.52285 240.655661 
L 193.827518 240.078221 
L 194.132187 240.141503 
L 194.436855 240.36645 
L 194.741523 239.235695 
L 195.046192 239.437755 
L 195.35086 239.959172 
L 195.655528 239.16968 
L 195.960197 239.058957 
L 196.569533 239.898366 
L 196.874201 239.636184 
L 197.17887 238.889778 
L 197.483538 240.086804 
L 197.788206 239.542883 
L 198.092875 239.798276 
L 198.397543 239.648482 
L 198.702211 240.147396 
L 199.00688 239.763432 
L 199.311548 239.832735 
L 199.616216 240.115755 
L 199.920885 239.78632 
L 200.225553 239.904558 
L 200.530221 239.572817 
L 200.834889 240.737604 
L 201.139558 238.932991 
L 201.444226 240.44045 
L 201.748894 239.281001 
L 202.053563 239.150038 
L 202.358231 240.093252 
L 202.662899 240.034581 
L 202.967568 238.663379 
L 203.272236 239.318236 
L 203.576904 239.10264 
L 203.881572 239.452017 
L 204.186241 237.850744 
L 204.490909 238.023638 
L 204.795577 238.430319 
L 205.100246 239.621239 
L 205.404914 239.2462 
L 206.014251 239.338903 
L 206.318919 239.833376 
L 206.623587 240.095173 
L 206.928256 239.198802 
L 207.232924 238.71889 
L 207.537592 239.849303 
L 207.84226 240.08501 
L 208.146929 240.978948 
L 209.060934 238.737208 
L 209.365602 240.436991 
L 209.67027 239.821676 
L 209.974939 240.874331 
L 210.279607 239.718682 
L 210.584275 239.911475 
L 210.888943 239.897555 
L 211.193612 240.076342 
L 211.49828 239.058402 
L 212.107617 239.596601 
L 212.412285 240.270459 
L 212.716953 239.913781 
L 213.32629 240.8166 
L 213.630958 240.771337 
L 213.935627 239.703267 
L 214.240295 240.888294 
L 214.544963 240.697166 
L 214.849631 241.548189 
L 215.1543 239.375326 
L 215.458968 240.097607 
L 215.763636 239.98966 
L 216.068305 240.285959 
L 216.372973 240.264908 
L 216.677641 240.592165 
L 217.286978 240.085822 
L 217.591646 240.151282 
L 217.896314 240.015408 
L 218.200983 240.757929 
L 218.505651 241.0269 
L 218.810319 239.429599 
L 219.114988 240.099614 
L 219.419656 241.219822 
L 219.724324 240.3255 
L 220.028993 240.149147 
L 220.333661 240.168575 
L 220.942998 240.865834 
L 221.247666 240.435113 
L 221.552334 239.426567 
L 221.857002 240.918355 
L 222.161671 239.550271 
L 222.771007 241.260515 
L 223.075676 240.683972 
L 223.380344 240.687089 
L 223.685012 240.97946 
L 223.989681 240.932318 
L 224.294349 240.700796 
L 224.599017 240.842946 
L 224.903686 238.975777 
L 225.208354 241.126393 
L 225.513022 241.047354 
L 225.81769 240.003409 
L 226.122359 239.988208 
L 226.427027 239.639558 
L 226.731695 240.49673 
L 227.036364 240.566972 
L 227.341032 240.295055 
L 227.6457 240.688541 
L 227.950369 240.323835 
L 228.255037 240.412268 
L 228.559705 241.124642 
L 228.864373 240.182752 
L 229.169042 240.704938 
L 229.47371 240.151581 
L 229.778378 239.248548 
L 230.083047 240.014597 
L 230.387715 240.401123 
L 230.692383 240.285191 
L 230.997052 239.931544 
L 231.30172 240.611167 
L 231.606388 240.795847 
L 231.911057 241.274564 
L 232.825061 239.775388 
L 233.12973 241.351169 
L 233.434398 240.334296 
L 233.739066 240.683545 
L 234.348403 239.956951 
L 234.653071 240.797683 
L 234.95774 239.249744 
L 235.262408 239.667142 
L 235.567076 240.860923 
L 235.871744 239.89337 
L 236.176413 240.535331 
L 236.481081 240.639392 
L 236.785749 239.073518 
L 237.090418 240.381438 
L 237.699754 239.362943 
L 238.004423 241.192066 
L 238.309091 240.632859 
L 238.613759 239.077831 
L 238.918428 238.747414 
L 239.223096 241.670612 
L 239.527764 240.592336 
L 239.832432 240.35855 
L 240.441769 239.690414 
L 240.746437 240.916605 
L 241.051106 240.68521 
L 241.355774 240.046409 
L 241.660442 240.995857 
L 242.269779 241.417568 
L 242.574447 240.98911 
L 242.879115 241.356207 
L 243.488452 239.694898 
L 243.79312 240.070962 
L 244.402457 240.013231 
L 245.316462 240.951278 
L 245.62113 240.629315 
L 245.925799 240.921131 
L 246.230467 239.745669 
L 246.535135 239.76134 
L 246.839803 240.985353 
L 247.144472 239.406071 
L 247.44914 240.1813 
L 247.753808 240.297531 
L 248.058477 241.185618 
L 248.363145 241.047738 
L 248.667813 240.218492 
L 248.972482 240.301374 
L 249.27715 239.69178 
L 249.581818 241.048379 
L 249.886486 241.248986 
L 250.191155 238.755911 
L 250.495823 239.372764 
L 250.800491 240.40313 
L 251.10516 240.67778 
L 251.714496 239.703566 
L 252.019165 240.889191 
L 252.323833 240.792175 
L 252.628501 241.06294 
L 252.93317 240.92792 
L 253.237838 240.276394 
L 253.542506 241.179769 
L 253.847174 240.915366 
L 254.151843 240.07899 
L 254.456511 240.945684 
L 254.761179 240.70054 
L 255.065848 240.975019 
L 255.370516 240.622953 
L 255.675184 241.151074 
L 255.979853 239.605056 
L 256.284521 240.333058 
L 256.589189 241.466119 
L 256.893857 241.553313 
L 257.198526 240.641912 
L 257.503194 240.518934 
L 257.807862 240.718346 
L 258.112531 241.418038 
L 258.721867 241.50741 
L 259.026536 240.556724 
L 259.331204 240.905972 
L 259.635872 240.958409 
L 259.940541 239.78632 
L 260.245209 240.611381 
L 261.159214 241.180537 
L 261.463882 240.235829 
L 261.76855 240.277974 
L 262.073219 240.909004 
L 262.377887 240.23348 
L 262.682555 241.407961 
L 262.987224 239.75549 
L 263.291892 240.733248 
L 263.59656 240.750499 
L 263.901229 240.547287 
L 264.205897 239.659798 
L 264.815233 241.825957 
L 265.42457 240.593788 
L 265.729238 241.355396 
L 266.033907 240.758185 
L 266.338575 240.581576 
L 266.643243 240.806437 
L 266.947912 241.309536 
L 267.25258 239.999182 
L 267.861916 241.646145 
L 268.166585 240.519318 
L 268.775921 240.19411 
L 269.08059 240.432807 
L 269.385258 241.103463 
L 269.689926 241.083991 
L 269.994595 240.461929 
L 270.299263 241.664933 
L 270.603931 240.019166 
L 270.9086 239.707494 
L 271.213268 239.788241 
L 271.517936 240.611808 
L 271.822604 240.526663 
L 272.127273 241.289765 
L 272.736609 240.30748 
L 273.041278 241.162902 
L 273.345946 240.930739 
L 273.650614 240.378662 
L 273.955283 241.470602 
L 274.564619 240.930482 
L 274.869287 239.556932 
L 275.173956 241.02105 
L 275.478624 240.059561 
L 275.783292 241.254281 
L 276.087961 240.149873 
L 276.392629 240.711471 
L 276.697297 241.748669 
L 277.001966 241.01362 
L 277.915971 241.920709 
L 278.220639 241.216107 
L 278.525307 241.027712 
L 278.829975 241.816819 
L 279.439312 240.361326 
L 280.048649 240.966436 
L 280.353317 240.86673 
L 280.657985 240.297958 
L 280.962654 240.245052 
L 281.267322 241.287459 
L 281.57199 240.192488 
L 281.876658 241.032024 
L 282.181327 240.037826 
L 282.485995 241.075664 
L 282.790663 240.719242 
L 283.095332 240.72505 
L 283.4 239.634092 
L 283.704668 241.216064 
L 284.009337 240.95559 
L 284.314005 239.89179 
L 284.618673 241.219181 
L 285.22801 240.959305 
L 285.532678 241.605451 
L 285.837346 241.222811 
L 286.142015 241.536575 
L 286.446683 240.714118 
L 286.751351 241.321535 
L 287.360688 240.381865 
L 287.665356 241.382468 
L 287.970025 240.508985 
L 288.274693 240.187577 
L 288.579361 240.396554 
L 288.884029 241.207609 
L 289.188698 240.903026 
L 289.493366 241.101712 
L 289.798034 240.658479 
L 290.102703 241.211495 
L 290.407371 241.067936 
L 290.712039 240.653099 
L 291.016708 241.267262 
L 291.321376 241.534781 
L 291.626044 241.15607 
L 291.930713 240.588109 
L 292.235381 240.991843 
L 292.540049 241.070028 
L 292.844717 240.934454 
L 293.149386 241.657716 
L 293.454054 240.37072 
L 293.758722 240.977837 
L 294.063391 240.301289 
L 294.368059 240.769458 
L 294.672727 240.526748 
L 294.977396 240.756264 
L 295.282064 240.77723 
L 295.586732 240.921344 
L 295.8914 241.239037 
L 296.500737 240.894913 
L 296.805405 241.276357 
L 297.110074 240.189243 
L 297.414742 241.417056 
L 297.71941 241.619542 
L 298.328747 240.315081 
L 298.633415 241.179939 
L 298.938084 241.226184 
L 299.242752 239.477039 
L 299.54742 241.056748 
L 299.852088 240.974464 
L 300.156757 239.986201 
L 300.766093 241.360008 
L 301.070762 240.900165 
L 301.37543 241.174431 
L 301.680098 240.954309 
L 301.984767 240.484304 
L 302.289435 240.952217 
L 302.594103 239.673163 
L 302.898771 240.880693 
L 303.20344 240.843245 
L 303.508108 240.003495 
L 303.812776 240.549294 
L 304.117445 240.073609 
L 304.422113 241.211538 
L 304.726781 240.333784 
L 305.03145 240.547714 
L 305.336118 241.328794 
L 305.640786 240.971945 
L 305.945455 240.243045 
L 306.250123 240.651989 
L 306.859459 241.186771 
L 307.164128 242.079769 
L 307.468796 240.448393 
L 307.773464 240.515262 
L 308.078133 240.756093 
L 308.382801 241.706053 
L 308.687469 240.125149 
L 308.992138 240.365041 
L 309.296806 240.776461 
L 309.601474 240.905887 
L 309.906143 240.618853 
L 310.210811 241.013663 
L 310.515479 240.520386 
L 310.820147 239.571407 
L 311.124816 240.833381 
L 311.429484 240.99274 
L 311.734152 241.409284 
L 312.343489 240.483492 
L 312.648157 241.650457 
L 313.257494 239.837048 
L 313.562162 241.10342 
L 313.86683 241.408345 
L 314.171499 240.779835 
L 314.476167 241.221316 
L 314.780835 241.235749 
L 315.085504 239.255423 
L 315.390172 240.718602 
L 315.69484 240.574445 
L 315.999509 240.2319 
L 316.304177 240.623465 
L 316.608845 240.779749 
L 316.913514 239.83265 
L 317.218182 241.336693 
L 317.52285 239.801777 
L 317.827518 241.001323 
L 318.132187 240.452534 
L 318.436855 240.60173 
L 318.741523 241.475129 
L 319.046192 239.949778 
L 319.35086 241.11623 
L 319.655528 241.449807 
L 319.960197 240.877149 
L 320.264865 240.689053 
L 320.569533 241.50314 
L 320.874201 240.753616 
L 321.17887 240.822578 
L 321.483538 240.751823 
L 321.788206 239.917539 
L 322.092875 240.228228 
L 322.397543 241.258551 
L 322.702211 239.556548 
L 323.00688 242.064781 
L 323.616216 240.698148 
L 323.920885 241.484267 
L 324.225553 241.003799 
L 324.530221 241.044664 
L 324.834889 240.324091 
L 325.139558 240.460221 
L 325.444226 240.098376 
L 325.748894 240.973823 
L 326.053563 239.804595 
L 326.358231 240.816429 
L 326.662899 239.869757 
L 326.967568 240.876637 
L 327.272236 241.249499 
L 327.576904 241.389599 
L 327.881572 241.082625 
L 328.186241 241.896456 
L 328.490909 241.43657 
L 329.100246 241.482345 
L 329.709582 240.093593 
L 330.318919 242.116364 
L 330.623587 240.808572 
L 330.928256 241.63453 
L 331.232924 241.984846 
L 331.537592 240.376058 
L 331.84226 241.142448 
L 332.146929 241.073871 
L 332.451597 241.547165 
L 333.060934 240.342068 
L 333.365602 241.643839 
L 333.67027 240.329172 
L 333.974939 240.310726 
L 334.279607 240.455609 
L 334.584275 240.095643 
L 334.888943 241.172467 
L 335.193612 240.456719 
L 335.49828 240.730558 
L 335.802948 241.5101 
L 336.107617 241.478587 
L 336.412285 241.153849 
L 336.716953 239.984493 
L 337.021622 241.529657 
L 337.32629 240.217724 
L 337.935627 241.091634 
L 338.240295 240.383573 
L 338.544963 241.236731 
L 338.849631 239.843453 
L 339.1543 240.713136 
L 339.458968 240.34463 
L 339.763636 241.006233 
L 340.068305 240.589006 
L 340.372973 240.996113 
L 340.677641 240.142528 
L 340.98231 240.553735 
L 341.591646 240.143638 
L 341.896314 239.656851 
L 342.200983 241.002817 
L 342.505651 240.492033 
L 342.810319 240.643833 
L 343.114988 241.644394 
L 343.419656 240.639307 
L 344.028993 241.600754 
L 344.638329 240.563684 
L 345.247666 241.138691 
L 345.552334 241.076647 
L 345.857002 241.254324 
L 346.161671 240.035563 
L 346.466339 240.816514 
L 346.771007 241.035996 
L 347.075676 241.515694 
L 347.380344 240.586999 
L 347.685012 241.730137 
L 347.989681 240.761516 
L 348.294349 240.292151 
L 348.599017 240.60109 
L 348.903686 239.177537 
L 349.208354 241.089926 
L 349.513022 241.2296 
L 349.81769 240.398689 
L 350.122359 240.881291 
L 350.427027 240.320034 
L 350.731695 240.26115 
L 351.036364 241.147231 
L 351.341032 240.84175 
L 351.6457 241.353005 
L 351.950369 240.16311 
L 352.255037 241.190017 
L 352.864373 239.812794 
L 353.169042 241.242965 
L 353.47371 241.819808 
L 353.778378 240.936332 
L 354.083047 241.454675 
L 354.387715 240.30052 
L 354.997052 241.339469 
L 355.30172 240.902684 
L 355.606388 241.298946 
L 356.215725 240.035093 
L 357.12973 240.930824 
L 357.434398 240.808231 
L 357.739066 241.261412 
L 358.348403 239.927061 
L 358.653071 239.999908 
L 359.262408 241.717497 
L 359.567076 240.986036 
L 360.176413 240.529609 
L 360.481081 241.454931 
L 360.785749 240.616249 
L 361.090418 241.288783 
L 361.395086 241.061573 
L 361.699754 240.320333 
L 362.004423 241.354798 
L 362.309091 240.049953 
L 362.613759 241.619798 
L 362.918428 241.178402 
L 363.527764 241.430635 
L 363.832432 240.565905 
L 364.137101 240.881078 
L 364.441769 241.374227 
L 364.746437 240.747083 
L 365.051106 241.762034 
L 365.355774 240.722445 
L 365.660442 241.100431 
L 365.965111 240.156534 
L 366.269779 240.762712 
L 366.574447 239.941835 
L 367.183784 240.835943 
L 367.488452 240.55271 
L 367.79312 241.072932 
L 368.097789 240.653484 
L 368.402457 240.56552 
L 368.707125 241.206286 
L 369.316462 241.164909 
L 369.62113 240.66386 
L 369.925799 240.508942 
L 370.230467 239.886495 
L 370.535135 240.701821 
L 370.839803 241.015713 
L 371.144472 241.843464 
L 371.753808 239.707323 
L 372.058477 241.262992 
L 372.363145 240.553649 
L 372.972482 240.976898 
L 373.27715 239.926847 
L 373.581818 240.509711 
L 373.581818 240.509711 
" style="fill:none;stroke:#1f77b4;stroke-linecap:square;stroke-width:1.5;"/>
   </g>
   <g id="patch_3">
    <path d="M 54 252 
L 54 34.56 
" style="fill:none;stroke:#000000;stroke-linecap:square;stroke-linejoin:miter;stroke-width:0.8;"/>
   </g>
   <g id="patch_4">
    <path d="M 388.8 252 
L 388.8 34.56 
" style="fill:none;stroke:#000000;stroke-linecap:square;stroke-linejoin:miter;stroke-width:0.8;"/>
   </g>
   <g id="patch_5">
    <path d="M 54 252 
L 388.8 252 
" style="fill:none;stroke:#000000;stroke-linecap:square;stroke-linejoin:miter;stroke-width:0.8;"/>
   </g>
   <g id="patch_6">
    <path d="M 54 34.56 
L 388.8 34.56 
" style="fill:none;stroke:#000000;stroke-linecap:square;stroke-linejoin:miter;stroke-width:0.8;"/>
   </g>
   <g id="legend_1">
    <g id="patch_7">
     <path d="M 306.5 57.238125 
L 381.8 57.238125 
Q 383.8 57.238125 383.8 55.238125 
L 383.8 41.56 
Q 383.8 39.56 381.8 39.56 
L 306.5 39.56 
Q 304.5 39.56 304.5 41.56 
L 304.5 55.238125 
Q 304.5 57.238125 306.5 57.238125 
z
" style="fill:#ffffff;opacity:0.8;stroke:#cccccc;stroke-linejoin:miter;"/>
    </g>
    <g id="line2d_13">
     <path d="M 308.5 47.658437 
L 328.5 47.658437 
" style="fill:none;stroke:#1f77b4;stroke-linecap:square;stroke-width:1.5;"/>
    </g>
    <g id="line2d_14"/>
    <g id="text_14">
     <!-- CCA loss -->
     <defs>
      <path d="M 64.40625 67.28125 
L 64.40625 56.890625 
Q 59.421875 61.53125 53.78125 63.8125 
Q 48.140625 66.109375 41.796875 66.109375 
Q 29.296875 66.109375 22.65625 58.46875 
Q 16.015625 50.828125 16.015625 36.375 
Q 16.015625 21.96875 22.65625 14.328125 
Q 29.296875 6.6875 41.796875 6.6875 
Q 48.140625 6.6875 53.78125 8.984375 
Q 59.421875 11.28125 64.40625 15.921875 
L 64.40625 5.609375 
Q 59.234375 2.09375 53.4375 0.328125 
Q 47.65625 -1.421875 41.21875 -1.421875 
Q 24.65625 -1.421875 15.125 8.703125 
Q 5.609375 18.84375 5.609375 36.375 
Q 5.609375 53.953125 15.125 64.078125 
Q 24.65625 74.21875 41.21875 74.21875 
Q 47.75 74.21875 53.53125 72.484375 
Q 59.328125 70.75 64.40625 67.28125 
z
" id="DejaVuSans-67"/>
      <path d="M 34.1875 63.1875 
L 20.796875 26.90625 
L 47.609375 26.90625 
z
M 28.609375 72.90625 
L 39.796875 72.90625 
L 67.578125 0 
L 57.328125 0 
L 50.6875 18.703125 
L 17.828125 18.703125 
L 11.1875 0 
L 0.78125 0 
z
" id="DejaVuSans-65"/>
      <path id="DejaVuSans-32"/>
      <path d="M 9.421875 75.984375 
L 18.40625 75.984375 
L 18.40625 0 
L 9.421875 0 
z
" id="DejaVuSans-108"/>
     </defs>
     <g transform="translate(336.5 51.158437)scale(0.1 -0.1)">
      <use xlink:href="#DejaVuSans-67"/>
      <use x="69.824219" xlink:href="#DejaVuSans-67"/>
      <use x="139.648438" xlink:href="#DejaVuSans-65"/>
      <use x="208.056641" xlink:href="#DejaVuSans-32"/>
      <use x="239.84375" xlink:href="#DejaVuSans-108"/>
      <use x="267.626953" xlink:href="#DejaVuSans-111"/>
      <use x="328.808594" xlink:href="#DejaVuSans-115"/>
      <use x="380.908203" xlink:href="#DejaVuSans-115"/>
     </g>
    </g>
   </g>
  </g>
 </g>
 <defs>
  <clipPath id="p99d092231a">
   <rect height="217.44" width="334.8" x="54" y="34.56"/>
  </clipPath>
 </defs>
</svg>
