<?xml version="1.0" encoding="utf-8" standalone="no"?>
<!DOCTYPE svg PUBLIC "-//W3C//DTD SVG 1.1//EN"
  "http://www.w3.org/Graphics/SVG/1.1/DTD/svg11.dtd">
<!-- Created with matplotlib (https://matplotlib.org/) -->
<svg height="288pt" version="1.1" viewBox="0 0 432 288" width="432pt" xmlns="http://www.w3.org/2000/svg" xmlns:xlink="http://www.w3.org/1999/xlink">
 <defs>
  <style type="text/css">
*{stroke-linecap:butt;stroke-linejoin:round;}
  </style>
 </defs>
 <g id="figure_1">
  <g id="patch_1">
   <path d="M 0 288 
L 432 288 
L 432 0 
L 0 0 
z
" style="fill:#ffffff;"/>
  </g>
  <g id="axes_1">
   <g id="patch_2">
    <path d="M 54 252 
L 388.8 252 
L 388.8 34.56 
L 54 34.56 
z
" style="fill:#ffffff;"/>
   </g>
   <g id="matplotlib.axis_1">
    <g id="xtick_1">
     <g id="line2d_1">
      <defs>
       <path d="M 0 0 
L 0 3.5 
" id="me4751b51f4" style="stroke:#000000;stroke-width:0.8;"/>
      </defs>
      <g>
       <use style="stroke:#000000;stroke-width:0.8;" x="69.218182" xlink:href="#me4751b51f4" y="252"/>
      </g>
     </g>
     <g id="text_1">
      <!-- 0 -->
      <defs>
       <path d="M 31.78125 66.40625 
Q 24.171875 66.40625 20.328125 58.90625 
Q 16.5 51.421875 16.5 36.375 
Q 16.5 21.390625 20.328125 13.890625 
Q 24.171875 6.390625 31.78125 6.390625 
Q 39.453125 6.390625 43.28125 13.890625 
Q 47.125 21.390625 47.125 36.375 
Q 47.125 51.421875 43.28125 58.90625 
Q 39.453125 66.40625 31.78125 66.40625 
z
M 31.78125 74.21875 
Q 44.046875 74.21875 50.515625 64.515625 
Q 56.984375 54.828125 56.984375 36.375 
Q 56.984375 17.96875 50.515625 8.265625 
Q 44.046875 -1.421875 31.78125 -1.421875 
Q 19.53125 -1.421875 13.0625 8.265625 
Q 6.59375 17.96875 6.59375 36.375 
Q 6.59375 54.828125 13.0625 64.515625 
Q 19.53125 74.21875 31.78125 74.21875 
z
" id="DejaVuSans-48"/>
      </defs>
      <g transform="translate(66.036932 266.598437)scale(0.1 -0.1)">
       <use xlink:href="#DejaVuSans-48"/>
      </g>
     </g>
    </g>
    <g id="xtick_2">
     <g id="line2d_2">
      <g>
       <use style="stroke:#000000;stroke-width:0.8;" x="130.151843" xlink:href="#me4751b51f4" y="252"/>
      </g>
     </g>
     <g id="text_2">
      <!-- 200 -->
      <defs>
       <path d="M 19.1875 8.296875 
L 53.609375 8.296875 
L 53.609375 0 
L 7.328125 0 
L 7.328125 8.296875 
Q 12.9375 14.109375 22.625 23.890625 
Q 32.328125 33.6875 34.8125 36.53125 
Q 39.546875 41.84375 41.421875 45.53125 
Q 43.3125 49.21875 43.3125 52.78125 
Q 43.3125 58.59375 39.234375 62.25 
Q 35.15625 65.921875 28.609375 65.921875 
Q 23.96875 65.921875 18.8125 64.3125 
Q 13.671875 62.703125 7.8125 59.421875 
L 7.8125 69.390625 
Q 13.765625 71.78125 18.9375 73 
Q 24.125 74.21875 28.421875 74.21875 
Q 39.75 74.21875 46.484375 68.546875 
Q 53.21875 62.890625 53.21875 53.421875 
Q 53.21875 48.921875 51.53125 44.890625 
Q 49.859375 40.875 45.40625 35.40625 
Q 44.1875 33.984375 37.640625 27.21875 
Q 31.109375 20.453125 19.1875 8.296875 
z
" id="DejaVuSans-50"/>
      </defs>
      <g transform="translate(120.608093 266.598437)scale(0.1 -0.1)">
       <use xlink:href="#DejaVuSans-50"/>
       <use x="63.623047" xlink:href="#DejaVuSans-48"/>
       <use x="127.246094" xlink:href="#DejaVuSans-48"/>
      </g>
     </g>
    </g>
    <g id="xtick_3">
     <g id="line2d_3">
      <g>
       <use style="stroke:#000000;stroke-width:0.8;" x="191.085504" xlink:href="#me4751b51f4" y="252"/>
      </g>
     </g>
     <g id="text_3">
      <!-- 400 -->
      <defs>
       <path d="M 37.796875 64.3125 
L 12.890625 25.390625 
L 37.796875 25.390625 
z
M 35.203125 72.90625 
L 47.609375 72.90625 
L 47.609375 25.390625 
L 58.015625 25.390625 
L 58.015625 17.1875 
L 47.609375 17.1875 
L 47.609375 0 
L 37.796875 0 
L 37.796875 17.1875 
L 4.890625 17.1875 
L 4.890625 26.703125 
z
" id="DejaVuSans-52"/>
      </defs>
      <g transform="translate(181.541754 266.598437)scale(0.1 -0.1)">
       <use xlink:href="#DejaVuSans-52"/>
       <use x="63.623047" xlink:href="#DejaVuSans-48"/>
       <use x="127.246094" xlink:href="#DejaVuSans-48"/>
      </g>
     </g>
    </g>
    <g id="xtick_4">
     <g id="line2d_4">
      <g>
       <use style="stroke:#000000;stroke-width:0.8;" x="252.019165" xlink:href="#me4751b51f4" y="252"/>
      </g>
     </g>
     <g id="text_4">
      <!-- 600 -->
      <defs>
       <path d="M 33.015625 40.375 
Q 26.375 40.375 22.484375 35.828125 
Q 18.609375 31.296875 18.609375 23.390625 
Q 18.609375 15.53125 22.484375 10.953125 
Q 26.375 6.390625 33.015625 6.390625 
Q 39.65625 6.390625 43.53125 10.953125 
Q 47.40625 15.53125 47.40625 23.390625 
Q 47.40625 31.296875 43.53125 35.828125 
Q 39.65625 40.375 33.015625 40.375 
z
M 52.59375 71.296875 
L 52.59375 62.3125 
Q 48.875 64.0625 45.09375 64.984375 
Q 41.3125 65.921875 37.59375 65.921875 
Q 27.828125 65.921875 22.671875 59.328125 
Q 17.53125 52.734375 16.796875 39.40625 
Q 19.671875 43.65625 24.015625 45.921875 
Q 28.375 48.1875 33.59375 48.1875 
Q 44.578125 48.1875 50.953125 41.515625 
Q 57.328125 34.859375 57.328125 23.390625 
Q 57.328125 12.15625 50.6875 5.359375 
Q 44.046875 -1.421875 33.015625 -1.421875 
Q 20.359375 -1.421875 13.671875 8.265625 
Q 6.984375 17.96875 6.984375 36.375 
Q 6.984375 53.65625 15.1875 63.9375 
Q 23.390625 74.21875 37.203125 74.21875 
Q 40.921875 74.21875 44.703125 73.484375 
Q 48.484375 72.75 52.59375 71.296875 
z
" id="DejaVuSans-54"/>
      </defs>
      <g transform="translate(242.475415 266.598437)scale(0.1 -0.1)">
       <use xlink:href="#DejaVuSans-54"/>
       <use x="63.623047" xlink:href="#DejaVuSans-48"/>
       <use x="127.246094" xlink:href="#DejaVuSans-48"/>
      </g>
     </g>
    </g>
    <g id="xtick_5">
     <g id="line2d_5">
      <g>
       <use style="stroke:#000000;stroke-width:0.8;" x="312.952826" xlink:href="#me4751b51f4" y="252"/>
      </g>
     </g>
     <g id="text_5">
      <!-- 800 -->
      <defs>
       <path d="M 31.78125 34.625 
Q 24.75 34.625 20.71875 30.859375 
Q 16.703125 27.09375 16.703125 20.515625 
Q 16.703125 13.921875 20.71875 10.15625 
Q 24.75 6.390625 31.78125 6.390625 
Q 38.8125 6.390625 42.859375 10.171875 
Q 46.921875 13.96875 46.921875 20.515625 
Q 46.921875 27.09375 42.890625 30.859375 
Q 38.875 34.625 31.78125 34.625 
z
M 21.921875 38.8125 
Q 15.578125 40.375 12.03125 44.71875 
Q 8.5 49.078125 8.5 55.328125 
Q 8.5 64.0625 14.71875 69.140625 
Q 20.953125 74.21875 31.78125 74.21875 
Q 42.671875 74.21875 48.875 69.140625 
Q 55.078125 64.0625 55.078125 55.328125 
Q 55.078125 49.078125 51.53125 44.71875 
Q 48 40.375 41.703125 38.8125 
Q 48.828125 37.15625 52.796875 32.3125 
Q 56.78125 27.484375 56.78125 20.515625 
Q 56.78125 9.90625 50.3125 4.234375 
Q 43.84375 -1.421875 31.78125 -1.421875 
Q 19.734375 -1.421875 13.25 4.234375 
Q 6.78125 9.90625 6.78125 20.515625 
Q 6.78125 27.484375 10.78125 32.3125 
Q 14.796875 37.15625 21.921875 38.8125 
z
M 18.3125 54.390625 
Q 18.3125 48.734375 21.84375 45.5625 
Q 25.390625 42.390625 31.78125 42.390625 
Q 38.140625 42.390625 41.71875 45.5625 
Q 45.3125 48.734375 45.3125 54.390625 
Q 45.3125 60.0625 41.71875 63.234375 
Q 38.140625 66.40625 31.78125 66.40625 
Q 25.390625 66.40625 21.84375 63.234375 
Q 18.3125 60.0625 18.3125 54.390625 
z
" id="DejaVuSans-56"/>
      </defs>
      <g transform="translate(303.409076 266.598437)scale(0.1 -0.1)">
       <use xlink:href="#DejaVuSans-56"/>
       <use x="63.623047" xlink:href="#DejaVuSans-48"/>
       <use x="127.246094" xlink:href="#DejaVuSans-48"/>
      </g>
     </g>
    </g>
    <g id="xtick_6">
     <g id="line2d_6">
      <g>
       <use style="stroke:#000000;stroke-width:0.8;" x="373.886486" xlink:href="#me4751b51f4" y="252"/>
      </g>
     </g>
     <g id="text_6">
      <!-- 1000 -->
      <defs>
       <path d="M 12.40625 8.296875 
L 28.515625 8.296875 
L 28.515625 63.921875 
L 10.984375 60.40625 
L 10.984375 69.390625 
L 28.421875 72.90625 
L 38.28125 72.90625 
L 38.28125 8.296875 
L 54.390625 8.296875 
L 54.390625 0 
L 12.40625 0 
z
" id="DejaVuSans-49"/>
      </defs>
      <g transform="translate(361.161486 266.598437)scale(0.1 -0.1)">
       <use xlink:href="#DejaVuSans-49"/>
       <use x="63.623047" xlink:href="#DejaVuSans-48"/>
       <use x="127.246094" xlink:href="#DejaVuSans-48"/>
       <use x="190.869141" xlink:href="#DejaVuSans-48"/>
      </g>
     </g>
    </g>
    <g id="text_7">
     <!-- Epochs -->
     <defs>
      <path d="M 9.8125 72.90625 
L 55.90625 72.90625 
L 55.90625 64.59375 
L 19.671875 64.59375 
L 19.671875 43.015625 
L 54.390625 43.015625 
L 54.390625 34.71875 
L 19.671875 34.71875 
L 19.671875 8.296875 
L 56.78125 8.296875 
L 56.78125 0 
L 9.8125 0 
z
" id="DejaVuSans-69"/>
      <path d="M 18.109375 8.203125 
L 18.109375 -20.796875 
L 9.078125 -20.796875 
L 9.078125 54.6875 
L 18.109375 54.6875 
L 18.109375 46.390625 
Q 20.953125 51.265625 25.265625 53.625 
Q 29.59375 56 35.59375 56 
Q 45.5625 56 51.78125 48.09375 
Q 58.015625 40.1875 58.015625 27.296875 
Q 58.015625 14.40625 51.78125 6.484375 
Q 45.5625 -1.421875 35.59375 -1.421875 
Q 29.59375 -1.421875 25.265625 0.953125 
Q 20.953125 3.328125 18.109375 8.203125 
z
M 48.6875 27.296875 
Q 48.6875 37.203125 44.609375 42.84375 
Q 40.53125 48.484375 33.40625 48.484375 
Q 26.265625 48.484375 22.1875 42.84375 
Q 18.109375 37.203125 18.109375 27.296875 
Q 18.109375 17.390625 22.1875 11.75 
Q 26.265625 6.109375 33.40625 6.109375 
Q 40.53125 6.109375 44.609375 11.75 
Q 48.6875 17.390625 48.6875 27.296875 
z
" id="DejaVuSans-112"/>
      <path d="M 30.609375 48.390625 
Q 23.390625 48.390625 19.1875 42.75 
Q 14.984375 37.109375 14.984375 27.296875 
Q 14.984375 17.484375 19.15625 11.84375 
Q 23.34375 6.203125 30.609375 6.203125 
Q 37.796875 6.203125 41.984375 11.859375 
Q 46.1875 17.53125 46.1875 27.296875 
Q 46.1875 37.015625 41.984375 42.703125 
Q 37.796875 48.390625 30.609375 48.390625 
z
M 30.609375 56 
Q 42.328125 56 49.015625 48.375 
Q 55.71875 40.765625 55.71875 27.296875 
Q 55.71875 13.875 49.015625 6.21875 
Q 42.328125 -1.421875 30.609375 -1.421875 
Q 18.84375 -1.421875 12.171875 6.21875 
Q 5.515625 13.875 5.515625 27.296875 
Q 5.515625 40.765625 12.171875 48.375 
Q 18.84375 56 30.609375 56 
z
" id="DejaVuSans-111"/>
      <path d="M 48.78125 52.59375 
L 48.78125 44.1875 
Q 44.96875 46.296875 41.140625 47.34375 
Q 37.3125 48.390625 33.40625 48.390625 
Q 24.65625 48.390625 19.8125 42.84375 
Q 14.984375 37.3125 14.984375 27.296875 
Q 14.984375 17.28125 19.8125 11.734375 
Q 24.65625 6.203125 33.40625 6.203125 
Q 37.3125 6.203125 41.140625 7.25 
Q 44.96875 8.296875 48.78125 10.40625 
L 48.78125 2.09375 
Q 45.015625 0.34375 40.984375 -0.53125 
Q 36.96875 -1.421875 32.421875 -1.421875 
Q 20.0625 -1.421875 12.78125 6.34375 
Q 5.515625 14.109375 5.515625 27.296875 
Q 5.515625 40.671875 12.859375 48.328125 
Q 20.21875 56 33.015625 56 
Q 37.15625 56 41.109375 55.140625 
Q 45.0625 54.296875 48.78125 52.59375 
z
" id="DejaVuSans-99"/>
      <path d="M 54.890625 33.015625 
L 54.890625 0 
L 45.90625 0 
L 45.90625 32.71875 
Q 45.90625 40.484375 42.875 44.328125 
Q 39.84375 48.1875 33.796875 48.1875 
Q 26.515625 48.1875 22.3125 43.546875 
Q 18.109375 38.921875 18.109375 30.90625 
L 18.109375 0 
L 9.078125 0 
L 9.078125 75.984375 
L 18.109375 75.984375 
L 18.109375 46.1875 
Q 21.34375 51.125 25.703125 53.5625 
Q 30.078125 56 35.796875 56 
Q 45.21875 56 50.046875 50.171875 
Q 54.890625 44.34375 54.890625 33.015625 
z
" id="DejaVuSans-104"/>
      <path d="M 44.28125 53.078125 
L 44.28125 44.578125 
Q 40.484375 46.53125 36.375 47.5 
Q 32.28125 48.484375 27.875 48.484375 
Q 21.1875 48.484375 17.84375 46.4375 
Q 14.5 44.390625 14.5 40.28125 
Q 14.5 37.15625 16.890625 35.375 
Q 19.28125 33.59375 26.515625 31.984375 
L 29.59375 31.296875 
Q 39.15625 29.25 43.1875 25.515625 
Q 47.21875 21.78125 47.21875 15.09375 
Q 47.21875 7.46875 41.1875 3.015625 
Q 35.15625 -1.421875 24.609375 -1.421875 
Q 20.21875 -1.421875 15.453125 -0.5625 
Q 10.6875 0.296875 5.421875 2 
L 5.421875 11.28125 
Q 10.40625 8.6875 15.234375 7.390625 
Q 20.0625 6.109375 24.8125 6.109375 
Q 31.15625 6.109375 34.5625 8.28125 
Q 37.984375 10.453125 37.984375 14.40625 
Q 37.984375 18.0625 35.515625 20.015625 
Q 33.0625 21.96875 24.703125 23.78125 
L 21.578125 24.515625 
Q 13.234375 26.265625 9.515625 29.90625 
Q 5.8125 33.546875 5.8125 39.890625 
Q 5.8125 47.609375 11.28125 51.796875 
Q 16.75 56 26.8125 56 
Q 31.78125 56 36.171875 55.265625 
Q 40.578125 54.546875 44.28125 53.078125 
z
" id="DejaVuSans-115"/>
     </defs>
     <g transform="translate(203.484375 280.276563)scale(0.1 -0.1)">
      <use xlink:href="#DejaVuSans-69"/>
      <use x="63.183594" xlink:href="#DejaVuSans-112"/>
      <use x="126.660156" xlink:href="#DejaVuSans-111"/>
      <use x="187.841797" xlink:href="#DejaVuSans-99"/>
      <use x="242.822266" xlink:href="#DejaVuSans-104"/>
      <use x="306.201172" xlink:href="#DejaVuSans-115"/>
     </g>
    </g>
   </g>
   <g id="matplotlib.axis_2">
    <g id="ytick_1">
     <g id="line2d_7">
      <defs>
       <path d="M 0 0 
L -3.5 0 
" id="m14f63ece3a" style="stroke:#000000;stroke-width:0.8;"/>
      </defs>
      <g>
       <use style="stroke:#000000;stroke-width:0.8;" x="54" xlink:href="#m14f63ece3a" y="251.206251"/>
      </g>
     </g>
     <g id="text_8">
      <!-- 0.0 -->
      <defs>
       <path d="M 10.6875 12.40625 
L 21 12.40625 
L 21 0 
L 10.6875 0 
z
" id="DejaVuSans-46"/>
      </defs>
      <g transform="translate(31.096875 255.00547)scale(0.1 -0.1)">
       <use xlink:href="#DejaVuSans-48"/>
       <use x="63.623047" xlink:href="#DejaVuSans-46"/>
       <use x="95.410156" xlink:href="#DejaVuSans-48"/>
      </g>
     </g>
    </g>
    <g id="ytick_2">
     <g id="line2d_8">
      <g>
       <use style="stroke:#000000;stroke-width:0.8;" x="54" xlink:href="#m14f63ece3a" y="227.006462"/>
      </g>
     </g>
     <g id="text_9">
      <!-- 0.5 -->
      <defs>
       <path d="M 10.796875 72.90625 
L 49.515625 72.90625 
L 49.515625 64.59375 
L 19.828125 64.59375 
L 19.828125 46.734375 
Q 21.96875 47.46875 24.109375 47.828125 
Q 26.265625 48.1875 28.421875 48.1875 
Q 40.625 48.1875 47.75 41.5 
Q 54.890625 34.8125 54.890625 23.390625 
Q 54.890625 11.625 47.5625 5.09375 
Q 40.234375 -1.421875 26.90625 -1.421875 
Q 22.3125 -1.421875 17.546875 -0.640625 
Q 12.796875 0.140625 7.71875 1.703125 
L 7.71875 11.625 
Q 12.109375 9.234375 16.796875 8.0625 
Q 21.484375 6.890625 26.703125 6.890625 
Q 35.15625 6.890625 40.078125 11.328125 
Q 45.015625 15.765625 45.015625 23.390625 
Q 45.015625 31 40.078125 35.4375 
Q 35.15625 39.890625 26.703125 39.890625 
Q 22.75 39.890625 18.8125 39.015625 
Q 14.890625 38.140625 10.796875 36.28125 
z
" id="DejaVuSans-53"/>
      </defs>
      <g transform="translate(31.096875 230.805681)scale(0.1 -0.1)">
       <use xlink:href="#DejaVuSans-48"/>
       <use x="63.623047" xlink:href="#DejaVuSans-46"/>
       <use x="95.410156" xlink:href="#DejaVuSans-53"/>
      </g>
     </g>
    </g>
    <g id="ytick_3">
     <g id="line2d_9">
      <g>
       <use style="stroke:#000000;stroke-width:0.8;" x="54" xlink:href="#m14f63ece3a" y="202.806674"/>
      </g>
     </g>
     <g id="text_10">
      <!-- 1.0 -->
      <g transform="translate(31.096875 206.605893)scale(0.1 -0.1)">
       <use xlink:href="#DejaVuSans-49"/>
       <use x="63.623047" xlink:href="#DejaVuSans-46"/>
       <use x="95.410156" xlink:href="#DejaVuSans-48"/>
      </g>
     </g>
    </g>
    <g id="ytick_4">
     <g id="line2d_10">
      <g>
       <use style="stroke:#000000;stroke-width:0.8;" x="54" xlink:href="#m14f63ece3a" y="178.606886"/>
      </g>
     </g>
     <g id="text_11">
      <!-- 1.5 -->
      <g transform="translate(31.096875 182.406105)scale(0.1 -0.1)">
       <use xlink:href="#DejaVuSans-49"/>
       <use x="63.623047" xlink:href="#DejaVuSans-46"/>
       <use x="95.410156" xlink:href="#DejaVuSans-53"/>
      </g>
     </g>
    </g>
    <g id="ytick_5">
     <g id="line2d_11">
      <g>
       <use style="stroke:#000000;stroke-width:0.8;" x="54" xlink:href="#m14f63ece3a" y="154.407097"/>
      </g>
     </g>
     <g id="text_12">
      <!-- 2.0 -->
      <g transform="translate(31.096875 158.206316)scale(0.1 -0.1)">
       <use xlink:href="#DejaVuSans-50"/>
       <use x="63.623047" xlink:href="#DejaVuSans-46"/>
       <use x="95.410156" xlink:href="#DejaVuSans-48"/>
      </g>
     </g>
    </g>
    <g id="ytick_6">
     <g id="line2d_12">
      <g>
       <use style="stroke:#000000;stroke-width:0.8;" x="54" xlink:href="#m14f63ece3a" y="130.207309"/>
      </g>
     </g>
     <g id="text_13">
      <!-- 2.5 -->
      <g transform="translate(31.096875 134.006528)scale(0.1 -0.1)">
       <use xlink:href="#DejaVuSans-50"/>
       <use x="63.623047" xlink:href="#DejaVuSans-46"/>
       <use x="95.410156" xlink:href="#DejaVuSans-53"/>
      </g>
     </g>
    </g>
    <g id="ytick_7">
     <g id="line2d_13">
      <g>
       <use style="stroke:#000000;stroke-width:0.8;" x="54" xlink:href="#m14f63ece3a" y="106.007521"/>
      </g>
     </g>
     <g id="text_14">
      <!-- 3.0 -->
      <defs>
       <path d="M 40.578125 39.3125 
Q 47.65625 37.796875 51.625 33 
Q 55.609375 28.21875 55.609375 21.1875 
Q 55.609375 10.40625 48.1875 4.484375 
Q 40.765625 -1.421875 27.09375 -1.421875 
Q 22.515625 -1.421875 17.65625 -0.515625 
Q 12.796875 0.390625 7.625 2.203125 
L 7.625 11.71875 
Q 11.71875 9.328125 16.59375 8.109375 
Q 21.484375 6.890625 26.8125 6.890625 
Q 36.078125 6.890625 40.9375 10.546875 
Q 45.796875 14.203125 45.796875 21.1875 
Q 45.796875 27.640625 41.28125 31.265625 
Q 36.765625 34.90625 28.71875 34.90625 
L 20.21875 34.90625 
L 20.21875 43.015625 
L 29.109375 43.015625 
Q 36.375 43.015625 40.234375 45.921875 
Q 44.09375 48.828125 44.09375 54.296875 
Q 44.09375 59.90625 40.109375 62.90625 
Q 36.140625 65.921875 28.71875 65.921875 
Q 24.65625 65.921875 20.015625 65.03125 
Q 15.375 64.15625 9.8125 62.3125 
L 9.8125 71.09375 
Q 15.4375 72.65625 20.34375 73.4375 
Q 25.25 74.21875 29.59375 74.21875 
Q 40.828125 74.21875 47.359375 69.109375 
Q 53.90625 64.015625 53.90625 55.328125 
Q 53.90625 49.265625 50.4375 45.09375 
Q 46.96875 40.921875 40.578125 39.3125 
z
" id="DejaVuSans-51"/>
      </defs>
      <g transform="translate(31.096875 109.806739)scale(0.1 -0.1)">
       <use xlink:href="#DejaVuSans-51"/>
       <use x="63.623047" xlink:href="#DejaVuSans-46"/>
       <use x="95.410156" xlink:href="#DejaVuSans-48"/>
      </g>
     </g>
    </g>
    <g id="ytick_8">
     <g id="line2d_14">
      <g>
       <use style="stroke:#000000;stroke-width:0.8;" x="54" xlink:href="#m14f63ece3a" y="81.807732"/>
      </g>
     </g>
     <g id="text_15">
      <!-- 3.5 -->
      <g transform="translate(31.096875 85.606951)scale(0.1 -0.1)">
       <use xlink:href="#DejaVuSans-51"/>
       <use x="63.623047" xlink:href="#DejaVuSans-46"/>
       <use x="95.410156" xlink:href="#DejaVuSans-53"/>
      </g>
     </g>
    </g>
    <g id="ytick_9">
     <g id="line2d_15">
      <g>
       <use style="stroke:#000000;stroke-width:0.8;" x="54" xlink:href="#m14f63ece3a" y="57.607944"/>
      </g>
     </g>
     <g id="text_16">
      <!-- 4.0 -->
      <g transform="translate(31.096875 61.407163)scale(0.1 -0.1)">
       <use xlink:href="#DejaVuSans-52"/>
       <use x="63.623047" xlink:href="#DejaVuSans-46"/>
       <use x="95.410156" xlink:href="#DejaVuSans-48"/>
      </g>
     </g>
    </g>
    <g id="text_17">
     <!-- Loss -->
     <defs>
      <path d="M 9.8125 72.90625 
L 19.671875 72.90625 
L 19.671875 8.296875 
L 55.171875 8.296875 
L 55.171875 0 
L 9.8125 0 
z
" id="DejaVuSans-76"/>
     </defs>
     <g transform="translate(25.017187 154.333906)rotate(-90)scale(0.1 -0.1)">
      <use xlink:href="#DejaVuSans-76"/>
      <use x="55.697266" xlink:href="#DejaVuSans-111"/>
      <use x="116.878906" xlink:href="#DejaVuSans-115"/>
      <use x="168.978516" xlink:href="#DejaVuSans-115"/>
     </g>
    </g>
   </g>
   <g id="line2d_16">
    <path clip-path="url(#pf245e345aa)" d="M 69.218182 44.443636 
L 69.52285 99.876337 
L 69.827518 124.195788 
L 70.436855 147.143948 
L 71.35086 165.544921 
L 72.569533 178.205732 
L 72.874201 179.45965 
L 73.17887 182.563241 
L 73.788206 185.580466 
L 74.092875 186.49938 
L 74.397543 188.991783 
L 76.530221 196.84202 
L 76.834889 197.720165 
L 77.139558 197.979189 
L 77.748894 200.229757 
L 78.053563 200.889791 
L 78.358231 201.829487 
L 78.662899 202.407862 
L 78.967568 202.592867 
L 79.576904 204.968195 
L 79.881572 204.594718 
L 80.186241 206.081169 
L 80.490909 206.559882 
L 80.795577 207.367213 
L 81.100246 207.563521 
L 81.404914 208.168472 
L 81.709582 209.029455 
L 82.014251 208.970243 
L 82.318919 209.633702 
L 82.623587 209.85548 
L 82.928256 210.582136 
L 83.232924 210.813365 
L 83.537592 211.984855 
L 83.84226 211.619833 
L 84.146929 211.810452 
L 84.756265 212.891537 
L 85.365602 213.7138 
L 85.67027 213.273051 
L 85.974939 214.41648 
L 86.279607 214.334277 
L 86.584275 215.3741 
L 87.193612 215.485045 
L 87.49828 215.578384 
L 87.802948 215.943241 
L 88.107617 216.484501 
L 88.412285 216.540888 
L 88.716953 217.417827 
L 89.021622 216.941442 
L 89.630958 217.862715 
L 89.935627 217.621257 
L 90.240295 218.634075 
L 90.544963 218.411294 
L 91.1543 218.609274 
L 91.458968 218.688002 
L 91.763636 219.116115 
L 92.068305 219.844822 
L 92.372973 219.735565 
L 92.98231 220.407767 
L 93.286978 220.332675 
L 93.591646 220.445299 
L 93.896314 221.165389 
L 94.200983 220.696842 
L 94.505651 221.411858 
L 95.114988 221.46777 
L 95.419656 221.719913 
L 95.724324 221.458844 
L 96.028993 222.142118 
L 96.333661 222.333438 
L 96.638329 222.333752 
L 96.942998 222.094354 
L 97.247666 222.779521 
L 97.552334 222.547066 
L 97.857002 223.046322 
L 98.161671 223.211283 
L 98.466339 223.217266 
L 98.771007 223.037841 
L 99.075676 223.122133 
L 99.380344 223.501019 
L 99.685012 223.463995 
L 100.294349 224.141104 
L 100.599017 224.332095 
L 100.903686 224.011757 
L 101.208354 224.492114 
L 101.513022 224.711059 
L 101.81769 224.729767 
L 102.122359 224.401755 
L 102.427027 224.575803 
L 102.731695 224.525795 
L 103.036364 225.009516 
L 103.950369 225.477598 
L 104.255037 225.795626 
L 104.559705 225.555446 
L 104.864373 225.833351 
L 105.169042 225.494677 
L 105.47371 226.235408 
L 105.778378 225.612358 
L 106.083047 226.283412 
L 106.692383 226.582408 
L 106.997052 226.276186 
L 107.606388 226.795915 
L 107.911057 226.770549 
L 108.520393 227.147964 
L 108.825061 226.826844 
L 109.12973 227.276208 
L 109.739066 227.310768 
L 110.043735 226.980236 
L 110.653071 227.739215 
L 110.95774 227.689603 
L 111.262408 227.915976 
L 111.567076 227.988339 
L 111.871744 227.831482 
L 112.481081 228.104673 
L 113.395086 228.149463 
L 114.004423 228.727923 
L 114.309091 228.919792 
L 114.613759 228.839233 
L 115.527764 229.452287 
L 115.832432 229.106311 
L 116.137101 229.239364 
L 116.441769 229.64513 
L 116.746437 229.812203 
L 117.051106 229.716345 
L 117.660442 229.739958 
L 117.965111 230.153446 
L 118.269779 229.677508 
L 118.879115 230.399364 
L 119.183784 230.413275 
L 119.79312 230.221945 
L 120.097789 230.387163 
L 120.402457 230.40879 
L 120.707125 230.820753 
L 121.316462 230.802852 
L 121.62113 230.923606 
L 121.925799 230.764533 
L 122.230467 230.878035 
L 122.535135 231.397053 
L 122.839803 231.297027 
L 123.144472 231.450197 
L 123.44914 231.169116 
L 123.753808 231.439842 
L 124.058477 231.391763 
L 124.363145 231.648575 
L 124.667813 231.554 
L 124.972482 231.826843 
L 125.27715 231.818368 
L 125.886486 232.051992 
L 126.191155 231.884087 
L 126.495823 231.8512 
L 126.800491 232.277794 
L 127.714496 232.252395 
L 128.019165 232.48905 
L 128.323833 232.107061 
L 128.628501 232.390822 
L 129.237838 232.659571 
L 129.542506 232.460999 
L 130.456511 232.932359 
L 130.761179 232.596237 
L 131.065848 232.966504 
L 131.370516 233.157334 
L 131.675184 232.89858 
L 131.979853 233.344621 
L 132.284521 233.109708 
L 132.589189 233.078369 
L 132.893857 233.459957 
L 133.198526 233.604996 
L 133.503194 233.467623 
L 133.807862 233.500711 
L 134.112531 233.764926 
L 134.417199 233.297185 
L 134.721867 233.721789 
L 135.026536 233.545064 
L 135.635872 233.906205 
L 135.940541 233.889721 
L 136.245209 233.636774 
L 136.549877 233.76171 
L 136.854545 233.751986 
L 137.159214 234.254528 
L 137.463882 233.849241 
L 137.76855 234.281201 
L 138.073219 233.816633 
L 138.682555 234.356889 
L 138.987224 234.246621 
L 139.59656 234.273542 
L 141.119902 234.381982 
L 141.42457 234.712153 
L 141.729238 234.529244 
L 142.033907 234.478227 
L 142.338575 234.58087 
L 142.947912 234.965317 
L 143.25258 234.510837 
L 143.861916 235.089082 
L 144.166585 234.68103 
L 144.471253 235.049196 
L 144.775921 234.819551 
L 145.08059 235.245211 
L 145.689926 234.995214 
L 145.994595 235.12791 
L 146.603931 234.993043 
L 147.213268 235.275506 
L 147.517936 235.505405 
L 147.822604 235.35116 
L 148.431941 235.618493 
L 148.736609 235.395178 
L 149.041278 235.572701 
L 149.345946 235.140803 
L 149.650614 235.611281 
L 149.955283 235.823437 
L 150.259951 235.525799 
L 150.869287 235.823793 
L 151.173956 235.617609 
L 151.478624 235.582844 
L 151.783292 235.663787 
L 152.087961 236.007143 
L 152.392629 235.972535 
L 152.697297 235.675358 
L 153.001966 236.167435 
L 153.306634 235.721116 
L 153.611302 235.974703 
L 153.915971 235.98468 
L 154.220639 235.878857 
L 154.525307 236.061127 
L 155.134644 235.792863 
L 155.439312 236.309832 
L 155.74398 235.949149 
L 156.048649 236.033424 
L 156.353317 236.332504 
L 156.657985 236.156363 
L 156.962654 236.315009 
L 157.267322 236.035908 
L 157.57199 236.015216 
L 157.876658 236.225143 
L 158.181327 236.578454 
L 158.485995 236.472013 
L 159.4 236.522978 
L 160.009337 236.209222 
L 160.314005 236.735559 
L 160.923342 236.310054 
L 161.22801 236.538722 
L 162.446683 236.516763 
L 163.05602 236.616248 
L 163.360688 236.84628 
L 163.970025 236.883472 
L 164.274693 237.121753 
L 164.579361 236.80748 
L 164.884029 237.016198 
L 165.188698 236.800336 
L 165.493366 236.915524 
L 165.798034 236.594867 
L 166.407371 237.220534 
L 166.712039 237.038139 
L 167.016708 236.635591 
L 167.321376 237.376755 
L 167.930713 237.042153 
L 168.235381 236.934456 
L 168.540049 237.279803 
L 168.844717 236.986513 
L 169.149386 237.408582 
L 169.454054 237.174695 
L 169.758722 237.37424 
L 170.063391 237.018962 
L 170.368059 237.55742 
L 170.672727 237.246038 
L 170.977396 237.500003 
L 171.282064 237.286332 
L 171.8914 237.702061 
L 172.805405 237.202136 
L 173.110074 237.597424 
L 174.328747 237.647476 
L 174.633415 237.536865 
L 175.242752 237.90935 
L 176.156757 237.761253 
L 176.461425 237.93146 
L 177.070762 237.88611 
L 177.37543 237.297543 
L 177.680098 237.823891 
L 177.984767 237.865264 
L 178.289435 238.120542 
L 178.594103 237.865571 
L 179.812776 237.855604 
L 180.117445 237.897299 
L 180.422113 237.590024 
L 181.03145 238.211026 
L 181.336118 238.231702 
L 181.640786 237.744366 
L 181.945455 237.769058 
L 182.250123 238.072599 
L 182.554791 237.912923 
L 182.859459 238.194925 
L 183.164128 238.071087 
L 183.468796 238.116811 
L 183.773464 237.962925 
L 184.382801 238.232617 
L 184.687469 237.892556 
L 184.992138 238.164144 
L 185.601474 238.175993 
L 185.906143 238.381342 
L 186.210811 238.077099 
L 186.515479 238.297944 
L 186.820147 238.121759 
L 187.124816 238.328822 
L 187.429484 238.090701 
L 187.734152 238.890123 
L 188.038821 238.310934 
L 188.343489 238.504169 
L 188.648157 237.847791 
L 188.952826 238.192712 
L 189.257494 238.31837 
L 189.562162 238.603748 
L 189.86683 238.242952 
L 190.171499 238.363844 
L 190.476167 238.663565 
L 191.085504 238.40456 
L 191.390172 238.656408 
L 191.69484 238.743284 
L 191.999509 238.392617 
L 192.304177 238.798862 
L 193.218182 238.886204 
L 193.827518 238.726513 
L 194.132187 238.876327 
L 194.436855 238.849782 
L 194.741523 238.547441 
L 195.046192 239.065054 
L 195.35086 238.747813 
L 195.655528 238.868148 
L 195.960197 238.521363 
L 196.264865 238.607758 
L 196.874201 238.917669 
L 197.17887 239.098325 
L 197.483538 238.861152 
L 197.788206 238.982695 
L 198.092875 238.834012 
L 198.702211 239.035851 
L 199.00688 238.854773 
L 199.311548 239.001516 
L 199.616216 238.646209 
L 199.920885 239.392254 
L 200.225553 239.167571 
L 200.530221 239.334402 
L 201.444226 238.975112 
L 201.748894 239.296588 
L 202.053563 239.360781 
L 202.358231 239.567687 
L 202.662899 239.242705 
L 202.967568 238.73681 
L 203.272236 239.072676 
L 203.881572 239.220518 
L 204.186241 238.392949 
L 204.795577 239.21379 
L 205.100246 238.733934 
L 205.709582 238.980357 
L 206.014251 239.004691 
L 206.318919 238.873619 
L 206.623587 239.443331 
L 206.928256 239.522892 
L 207.84226 239.183698 
L 208.451597 239.50823 
L 208.756265 239.229365 
L 209.060934 239.267296 
L 209.365602 239.665596 
L 209.67027 238.958666 
L 209.974939 239.359413 
L 210.279607 239.225931 
L 210.888943 239.393229 
L 211.193612 239.002475 
L 212.107617 239.647421 
L 213.021622 239.455636 
L 213.32629 239.764668 
L 213.630958 239.31684 
L 213.935627 239.438338 
L 214.240295 239.417626 
L 214.544963 239.721965 
L 214.849631 239.850031 
L 215.1543 239.545708 
L 215.458968 239.652158 
L 215.763636 239.380049 
L 216.068305 239.337415 
L 216.372973 239.848389 
L 216.98231 239.6982 
L 217.591646 239.789266 
L 217.896314 239.641646 
L 218.200983 239.705479 
L 218.505651 239.916376 
L 218.810319 239.701107 
L 219.724324 240.254686 
L 220.028993 240.064467 
L 220.333661 239.482018 
L 220.942998 240.199275 
L 221.247666 240.050635 
L 221.857002 239.934572 
L 222.161671 240.227573 
L 222.466339 239.990895 
L 223.075676 240.377059 
L 223.685012 239.98532 
L 223.989681 240.244802 
L 224.294349 240.338764 
L 224.599017 239.907612 
L 225.208354 240.326685 
L 225.513022 240.179604 
L 225.81769 240.249122 
L 226.122359 239.916032 
L 226.427027 240.366703 
L 226.731695 240.311761 
L 227.036364 240.387409 
L 227.341032 240.000699 
L 227.6457 240.272472 
L 227.950369 240.195521 
L 228.255037 240.636271 
L 228.559705 240.318902 
L 228.864373 240.520077 
L 229.169042 240.276422 
L 229.47371 240.389946 
L 229.778378 240.713874 
L 230.083047 240.376286 
L 230.387715 240.388889 
L 230.692383 240.133765 
L 230.997052 240.143869 
L 231.606388 240.375586 
L 231.911057 240.177163 
L 232.520393 240.432869 
L 233.12973 240.090354 
L 233.739066 240.661972 
L 234.043735 240.111524 
L 234.348403 240.391351 
L 234.653071 240.434423 
L 234.95774 240.2217 
L 235.567076 240.82771 
L 235.871744 240.639777 
L 236.176413 240.296698 
L 236.481081 240.768494 
L 236.785749 240.654571 
L 237.090418 240.782959 
L 237.395086 240.487996 
L 238.004423 240.668506 
L 238.309091 240.949781 
L 238.613759 240.690247 
L 239.223096 240.659008 
L 239.527764 240.94796 
L 239.832432 240.558107 
L 240.441769 240.78354 
L 240.746437 240.725453 
L 241.051106 240.866465 
L 241.660442 240.7037 
L 241.965111 240.637313 
L 242.269779 240.976416 
L 242.574447 240.512755 
L 242.879115 240.787085 
L 243.79312 240.813716 
L 244.097789 241.043579 
L 244.707125 240.798014 
L 245.62113 241.136639 
L 245.925799 240.852562 
L 246.230467 241.040593 
L 246.535135 240.988029 
L 246.839803 241.111073 
L 247.144472 240.651987 
L 247.753808 241.340383 
L 248.058477 241.076253 
L 248.363145 240.999156 
L 248.667813 241.282845 
L 248.972482 241.268172 
L 249.27715 241.474052 
L 249.581818 240.88332 
L 249.886486 241.170022 
L 250.191155 241.236441 
L 250.800491 241.02053 
L 251.10516 240.986353 
L 251.409828 241.223522 
L 252.628501 241.43565 
L 253.847174 241.61058 
L 254.151843 241.3714 
L 255.065848 241.60141 
L 255.370516 241.38911 
L 255.979853 241.79704 
L 256.284521 241.521979 
L 256.893857 241.551482 
L 257.198526 241.859759 
L 258.112531 241.64527 
L 258.417199 241.613033 
L 258.721867 241.72843 
L 259.026536 241.709122 
L 259.331204 241.908876 
L 259.635872 241.966694 
L 259.940541 241.548428 
L 260.245209 241.848019 
L 260.549877 241.697183 
L 260.854545 241.960355 
L 261.76855 241.53356 
L 262.073219 241.61194 
L 262.377887 241.876564 
L 262.682555 241.943291 
L 262.987224 241.807127 
L 263.59656 242.050975 
L 263.901229 241.718791 
L 264.205897 241.584887 
L 264.510565 241.876627 
L 264.815233 241.760212 
L 265.119902 241.766216 
L 265.42457 241.931497 
L 266.338575 241.945363 
L 266.643243 241.66612 
L 266.947912 241.834823 
L 267.25258 241.671726 
L 267.557248 241.717467 
L 267.861916 241.581266 
L 268.166585 241.809186 
L 268.471253 241.741808 
L 268.775921 241.555008 
L 269.08059 241.813534 
L 269.385258 241.736122 
L 269.689926 241.87239 
L 269.994595 241.66844 
L 270.603931 241.911257 
L 271.213268 241.696576 
L 271.517936 241.810261 
L 271.822604 241.682114 
L 272.431941 241.931383 
L 272.736609 241.809445 
L 273.345946 241.917509 
L 273.650614 241.740351 
L 274.869287 241.981372 
L 275.173956 241.883002 
L 275.478624 241.571218 
L 276.087961 241.721106 
L 276.392629 241.623425 
L 276.697297 241.777652 
L 277.611302 241.8025 
L 277.915971 241.936246 
L 278.220639 241.579887 
L 279.134644 241.880183 
L 279.74398 241.50501 
L 280.048649 241.893188 
L 280.962654 241.683685 
L 281.57199 241.820679 
L 282.485995 241.890092 
L 282.790663 241.676403 
L 283.095332 242.054507 
L 283.704668 241.735986 
L 284.009337 241.807256 
L 284.314005 242.079157 
L 284.618673 241.734117 
L 284.923342 241.988231 
L 285.532678 241.744515 
L 285.837346 241.668616 
L 286.142015 242.000414 
L 287.360688 242.008162 
L 287.665356 241.725723 
L 287.970025 241.844636 
L 288.274693 241.45514 
L 288.884029 242.001259 
L 289.188698 241.805208 
L 289.493366 241.907449 
L 290.407371 241.531327 
L 290.712039 241.640571 
L 291.016708 241.90166 
L 291.321376 241.918402 
L 291.626044 242.062362 
L 291.930713 241.977076 
L 292.235381 242.107328 
L 292.540049 241.553753 
L 293.149386 241.843249 
L 293.758722 241.708295 
L 294.063391 242.027762 
L 294.368059 242.103706 
L 294.977396 241.813543 
L 295.282064 241.841939 
L 295.586732 241.704105 
L 296.500737 242.029475 
L 296.805405 242.001988 
L 297.110074 241.645598 
L 297.414742 241.876069 
L 297.71941 241.845509 
L 298.024079 242.070006 
L 298.328747 241.561042 
L 298.633415 241.880902 
L 298.938084 241.892654 
L 299.242752 241.744049 
L 299.852088 241.981555 
L 300.156757 241.67558 
L 300.461425 241.937158 
L 300.766093 241.860024 
L 301.070762 241.958685 
L 301.984767 241.707567 
L 302.594103 242.1029 
L 302.898771 241.793885 
L 303.20344 241.965743 
L 303.508108 241.854347 
L 303.812776 241.983421 
L 304.117445 241.899392 
L 304.422113 241.696503 
L 304.726781 241.864926 
L 305.03145 241.872503 
L 305.336118 241.620975 
L 306.250123 241.805576 
L 306.554791 241.824204 
L 306.859459 241.725336 
L 307.164128 241.974964 
L 307.468796 241.819488 
L 307.773464 241.897573 
L 308.078133 241.830719 
L 308.382801 241.422478 
L 308.687469 241.729073 
L 309.296806 241.778715 
L 309.601474 241.621783 
L 309.906143 241.949674 
L 310.210811 241.758905 
L 310.820147 241.992556 
L 311.124816 241.906085 
L 311.429484 241.537831 
L 311.734152 241.805999 
L 312.038821 241.607326 
L 312.952826 241.826236 
L 314.476167 241.829559 
L 314.780835 241.681589 
L 315.085504 241.95332 
L 315.390172 241.592104 
L 315.999509 241.945883 
L 316.304177 241.958862 
L 316.913514 241.695998 
L 317.218182 241.813236 
L 317.52285 241.620775 
L 317.827518 241.83746 
L 318.741523 241.805803 
L 319.046192 241.923203 
L 319.35086 241.674362 
L 319.655528 242.044858 
L 320.264865 241.590116 
L 320.874201 241.84902 
L 321.17887 241.757079 
L 321.483538 241.965458 
L 322.092875 241.955982 
L 322.397543 241.994766 
L 322.702211 241.703661 
L 323.00688 241.890833 
L 323.311548 241.743688 
L 323.616216 241.770913 
L 323.920885 241.624997 
L 325.139558 241.733737 
L 325.444226 242.026129 
L 325.748894 242.000697 
L 326.053563 241.802029 
L 326.358231 241.843645 
L 326.662899 241.643598 
L 326.967568 241.977599 
L 327.272236 241.960483 
L 327.576904 241.751291 
L 328.490909 241.746941 
L 329.404914 241.640244 
L 329.709582 241.90342 
L 330.014251 241.839341 
L 330.318919 241.895211 
L 330.623587 241.781238 
L 330.928256 241.993336 
L 331.232924 241.996703 
L 331.84226 241.613555 
L 332.451597 241.743101 
L 332.756265 241.611177 
L 333.365602 241.944476 
L 333.67027 241.919294 
L 333.974939 242.116364 
L 334.279607 241.814038 
L 334.584275 241.922926 
L 334.888943 241.736954 
L 335.193612 241.939843 
L 335.49828 241.932164 
L 335.802948 241.618812 
L 336.107617 241.819694 
L 336.412285 241.717877 
L 336.716953 242.099633 
L 337.021622 241.866343 
L 337.32629 241.427698 
L 337.630958 241.960406 
L 337.935627 241.633302 
L 338.240295 241.702476 
L 338.544963 241.945559 
L 339.1543 241.697163 
L 339.458968 241.855814 
L 339.763636 241.86009 
L 340.068305 242.056608 
L 340.372973 241.802978 
L 341.286978 241.873617 
L 341.591646 241.511431 
L 341.896314 241.970161 
L 342.200983 241.518474 
L 343.114988 242.011366 
L 343.419656 241.881311 
L 344.028993 241.981556 
L 344.333661 241.769364 
L 344.942998 241.765121 
L 345.247666 241.931148 
L 345.552334 241.797507 
L 345.857002 241.89837 
L 346.161671 241.6575 
L 346.466339 241.816095 
L 346.771007 241.40967 
L 347.075676 241.778586 
L 347.380344 241.741632 
L 347.685012 241.534859 
L 347.989681 241.864772 
L 348.294349 241.827298 
L 348.903686 241.983729 
L 349.208354 241.607655 
L 349.81769 242.030576 
L 350.122359 241.651539 
L 350.427027 241.924378 
L 350.731695 241.613632 
L 351.036364 241.891777 
L 351.341032 241.651206 
L 351.6457 241.874363 
L 351.950369 241.803291 
L 352.255037 241.993661 
L 352.559705 241.596712 
L 352.864373 241.909979 
L 353.47371 241.792084 
L 353.778378 241.808708 
L 354.387715 242.052482 
L 354.997052 241.728052 
L 355.606388 241.999603 
L 355.911057 241.843302 
L 356.215725 241.91187 
L 357.434398 241.647351 
L 358.043735 241.953995 
L 358.653071 241.626695 
L 358.95774 242.087469 
L 359.262408 241.905702 
L 360.176413 241.954268 
L 360.481081 241.489155 
L 360.785749 241.965963 
L 361.395086 241.948946 
L 361.699754 241.774385 
L 362.004423 241.929356 
L 362.309091 241.725865 
L 362.613759 241.936914 
L 363.223096 241.850893 
L 363.527764 241.928161 
L 363.832432 241.749584 
L 365.051106 241.939977 
L 365.355774 241.76096 
L 366.574447 241.783934 
L 367.183784 241.621579 
L 367.488452 241.873851 
L 367.79312 241.781023 
L 368.097789 241.986751 
L 368.402457 241.715567 
L 368.707125 241.914513 
L 369.011794 241.712324 
L 369.316462 241.774442 
L 369.62113 241.68228 
L 369.925799 241.911052 
L 370.230467 241.739456 
L 370.535135 241.864254 
L 370.839803 241.778665 
L 371.144472 241.477549 
L 371.44914 241.78812 
L 372.058477 241.778346 
L 372.363145 241.946349 
L 372.667813 241.801503 
L 373.581818 241.851895 
L 373.581818 241.851895 
" style="fill:none;stroke:#1f77b4;stroke-linecap:square;stroke-width:1.5;"/>
   </g>
   <g id="patch_3">
    <path d="M 54 252 
L 54 34.56 
" style="fill:none;stroke:#000000;stroke-linecap:square;stroke-linejoin:miter;stroke-width:0.8;"/>
   </g>
   <g id="patch_4">
    <path d="M 388.8 252 
L 388.8 34.56 
" style="fill:none;stroke:#000000;stroke-linecap:square;stroke-linejoin:miter;stroke-width:0.8;"/>
   </g>
   <g id="patch_5">
    <path d="M 54 252 
L 388.8 252 
" style="fill:none;stroke:#000000;stroke-linecap:square;stroke-linejoin:miter;stroke-width:0.8;"/>
   </g>
   <g id="patch_6">
    <path d="M 54 34.56 
L 388.8 34.56 
" style="fill:none;stroke:#000000;stroke-linecap:square;stroke-linejoin:miter;stroke-width:0.8;"/>
   </g>
   <g id="legend_1">
    <g id="patch_7">
     <path d="M 261.140625 57.238125 
L 381.8 57.238125 
Q 383.8 57.238125 383.8 55.238125 
L 383.8 41.56 
Q 383.8 39.56 381.8 39.56 
L 261.140625 39.56 
Q 259.140625 39.56 259.140625 41.56 
L 259.140625 55.238125 
Q 259.140625 57.238125 261.140625 57.238125 
z
" style="fill:#ffffff;opacity:0.8;stroke:#cccccc;stroke-linejoin:miter;"/>
    </g>
    <g id="line2d_17">
     <path d="M 263.140625 47.658437 
L 283.140625 47.658437 
" style="fill:none;stroke:#1f77b4;stroke-linecap:square;stroke-width:1.5;"/>
    </g>
    <g id="line2d_18"/>
    <g id="text_18">
     <!-- Classification loss -->
     <defs>
      <path d="M 64.40625 67.28125 
L 64.40625 56.890625 
Q 59.421875 61.53125 53.78125 63.8125 
Q 48.140625 66.109375 41.796875 66.109375 
Q 29.296875 66.109375 22.65625 58.46875 
Q 16.015625 50.828125 16.015625 36.375 
Q 16.015625 21.96875 22.65625 14.328125 
Q 29.296875 6.6875 41.796875 6.6875 
Q 48.140625 6.6875 53.78125 8.984375 
Q 59.421875 11.28125 64.40625 15.921875 
L 64.40625 5.609375 
Q 59.234375 2.09375 53.4375 0.328125 
Q 47.65625 -1.421875 41.21875 -1.421875 
Q 24.65625 -1.421875 15.125 8.703125 
Q 5.609375 18.84375 5.609375 36.375 
Q 5.609375 53.953125 15.125 64.078125 
Q 24.65625 74.21875 41.21875 74.21875 
Q 47.75 74.21875 53.53125 72.484375 
Q 59.328125 70.75 64.40625 67.28125 
z
" id="DejaVuSans-67"/>
      <path d="M 9.421875 75.984375 
L 18.40625 75.984375 
L 18.40625 0 
L 9.421875 0 
z
" id="DejaVuSans-108"/>
      <path d="M 34.28125 27.484375 
Q 23.390625 27.484375 19.1875 25 
Q 14.984375 22.515625 14.984375 16.5 
Q 14.984375 11.71875 18.140625 8.90625 
Q 21.296875 6.109375 26.703125 6.109375 
Q 34.1875 6.109375 38.703125 11.40625 
Q 43.21875 16.703125 43.21875 25.484375 
L 43.21875 27.484375 
z
M 52.203125 31.203125 
L 52.203125 0 
L 43.21875 0 
L 43.21875 8.296875 
Q 40.140625 3.328125 35.546875 0.953125 
Q 30.953125 -1.421875 24.3125 -1.421875 
Q 15.921875 -1.421875 10.953125 3.296875 
Q 6 8.015625 6 15.921875 
Q 6 25.140625 12.171875 29.828125 
Q 18.359375 34.515625 30.609375 34.515625 
L 43.21875 34.515625 
L 43.21875 35.40625 
Q 43.21875 41.609375 39.140625 45 
Q 35.0625 48.390625 27.6875 48.390625 
Q 23 48.390625 18.546875 47.265625 
Q 14.109375 46.140625 10.015625 43.890625 
L 10.015625 52.203125 
Q 14.9375 54.109375 19.578125 55.046875 
Q 24.21875 56 28.609375 56 
Q 40.484375 56 46.34375 49.84375 
Q 52.203125 43.703125 52.203125 31.203125 
z
" id="DejaVuSans-97"/>
      <path d="M 9.421875 54.6875 
L 18.40625 54.6875 
L 18.40625 0 
L 9.421875 0 
z
M 9.421875 75.984375 
L 18.40625 75.984375 
L 18.40625 64.59375 
L 9.421875 64.59375 
z
" id="DejaVuSans-105"/>
      <path d="M 37.109375 75.984375 
L 37.109375 68.5 
L 28.515625 68.5 
Q 23.6875 68.5 21.796875 66.546875 
Q 19.921875 64.59375 19.921875 59.515625 
L 19.921875 54.6875 
L 34.71875 54.6875 
L 34.71875 47.703125 
L 19.921875 47.703125 
L 19.921875 0 
L 10.890625 0 
L 10.890625 47.703125 
L 2.296875 47.703125 
L 2.296875 54.6875 
L 10.890625 54.6875 
L 10.890625 58.5 
Q 10.890625 67.625 15.140625 71.796875 
Q 19.390625 75.984375 28.609375 75.984375 
z
" id="DejaVuSans-102"/>
      <path d="M 18.3125 70.21875 
L 18.3125 54.6875 
L 36.8125 54.6875 
L 36.8125 47.703125 
L 18.3125 47.703125 
L 18.3125 18.015625 
Q 18.3125 11.328125 20.140625 9.421875 
Q 21.96875 7.515625 27.59375 7.515625 
L 36.8125 7.515625 
L 36.8125 0 
L 27.59375 0 
Q 17.1875 0 13.234375 3.875 
Q 9.28125 7.765625 9.28125 18.015625 
L 9.28125 47.703125 
L 2.6875 47.703125 
L 2.6875 54.6875 
L 9.28125 54.6875 
L 9.28125 70.21875 
z
" id="DejaVuSans-116"/>
      <path d="M 54.890625 33.015625 
L 54.890625 0 
L 45.90625 0 
L 45.90625 32.71875 
Q 45.90625 40.484375 42.875 44.328125 
Q 39.84375 48.1875 33.796875 48.1875 
Q 26.515625 48.1875 22.3125 43.546875 
Q 18.109375 38.921875 18.109375 30.90625 
L 18.109375 0 
L 9.078125 0 
L 9.078125 54.6875 
L 18.109375 54.6875 
L 18.109375 46.1875 
Q 21.34375 51.125 25.703125 53.5625 
Q 30.078125 56 35.796875 56 
Q 45.21875 56 50.046875 50.171875 
Q 54.890625 44.34375 54.890625 33.015625 
z
" id="DejaVuSans-110"/>
      <path id="DejaVuSans-32"/>
     </defs>
     <g transform="translate(291.140625 51.158437)scale(0.1 -0.1)">
      <use xlink:href="#DejaVuSans-67"/>
      <use x="69.824219" xlink:href="#DejaVuSans-108"/>
      <use x="97.607422" xlink:href="#DejaVuSans-97"/>
      <use x="158.886719" xlink:href="#DejaVuSans-115"/>
      <use x="210.986328" xlink:href="#DejaVuSans-115"/>
      <use x="263.085938" xlink:href="#DejaVuSans-105"/>
      <use x="290.869141" xlink:href="#DejaVuSans-102"/>
      <use x="326.074219" xlink:href="#DejaVuSans-105"/>
      <use x="353.857422" xlink:href="#DejaVuSans-99"/>
      <use x="408.837891" xlink:href="#DejaVuSans-97"/>
      <use x="470.117188" xlink:href="#DejaVuSans-116"/>
      <use x="509.326172" xlink:href="#DejaVuSans-105"/>
      <use x="537.109375" xlink:href="#DejaVuSans-111"/>
      <use x="598.291016" xlink:href="#DejaVuSans-110"/>
      <use x="661.669922" xlink:href="#DejaVuSans-32"/>
      <use x="693.457031" xlink:href="#DejaVuSans-108"/>
      <use x="721.240234" xlink:href="#DejaVuSans-111"/>
      <use x="782.421875" xlink:href="#DejaVuSans-115"/>
      <use x="834.521484" xlink:href="#DejaVuSans-115"/>
     </g>
    </g>
   </g>
  </g>
 </g>
 <defs>
  <clipPath id="pf245e345aa">
   <rect height="217.44" width="334.8" x="54" y="34.56"/>
  </clipPath>
 </defs>
</svg>
